<svg width="33" height="10" viewBox="0 0 33 10" fill="none" xmlns="http://www.w3.org/2000/svg"><path d="M23.989.41A6.924 6.924 0 0021.595 0c-2.64 0-4.504 1.315-4.517 3.202-.016 1.387 1.325 2.168 2.34 2.632 1.04.476 1.389.776 1.385 1.202-.006.648-.831.941-1.598.941-1.054 0-1.63-.145-2.516-.509l-.328-.151-.375 2.172c.642.265 1.798.491 2.993.511 2.806 0 4.64-1.307 4.662-3.315.023-1.107-.703-1.944-2.23-2.636-.93-.449-1.505-.749-1.505-1.204 0-.403.493-.833 1.524-.833a4.915 4.915 0 012.001.373l.248.11.374-2.1-.064.015zm6.85-.234h-2.062c-.642 0-1.126.175-1.406.805l-3.966 8.884h2.806l.561-1.457 3.425.003c.08.341.328 1.454.328 1.454H33L30.839.176zM13.282.095h2.674l-1.672 9.693h-2.671l1.67-9.696v.003zM6.493 5.437l.278 1.346L9.384.176h2.832L8.008 9.852H5.182l-2.31-8.193a.554.554 0 00-.246-.324A11.545 11.545 0 000 .374L.036.17H4.34c.585.023 1.055.204 1.211.82l.94 4.452v-.005h.002zm21.046.989l1.066-2.711c-.013.029.22-.56.355-.924l.183.837.619 2.796h-2.224v.002h.001z" fill="#F2F2F2" fill-opacity=".5"/></svg>