<svg width="40" height="25" viewBox="0 0 40 25" fill="none" xmlns="http://www.w3.org/2000/svg"><path d="M1.861 0C.834 0 0 .83 0 1.852v21.296C0 24.17.834 25 1.861 25H38.14c1.026 0 1.86-.83 1.86-1.852V1.852A1.857 1.857 0 0038.139 0H1.86zm11.255 3.01c2.284 0 4.38.79 6.026 2.11a9.793 9.793 0 00-2.927 4.69h.799a9.187 9.187 0 012.451-3.933 9.187 9.187 0 012.451 3.933h.811a9.793 9.793 0 00-2.934-4.662 9.57 9.57 0 016.047-2.139c5.292 0 9.581 4.27 9.581 9.537 0 5.267-4.29 9.537-9.581 9.537a9.571 9.571 0 01-6.13-2.206 9.789 9.789 0 003.082-4.973h-.78a9.177 9.177 0 01-2.547 4.257 9.175 9.175 0 01-2.545-4.258h-.744a9.787 9.787 0 003.049 4.91 9.6 9.6 0 01-6.109 2.178c-5.291 0-9.581-4.25-9.581-9.491 0-5.242 4.29-9.49 9.581-9.49zm12.005 6.703c-1.151 0-2.271 1.002-2.271 2.883 0 1.247.605 2.07 1.795 2.07.337 0 .872-.137.872-.137l.178-1.09s-.49.247-.825.247c-.707 0-.991-.542-.991-1.124 0-1.18.608-1.83 1.286-1.83.508 0 .916.286.916.286l.163-1.06s-.604-.245-1.123-.245zm9.679.092l-1.001.003-.215 1.311s-.377-.509-.965-.509c-.915 0-1.678 1.082-1.678 2.327 0 .803.406 1.59 1.238 1.59.598 0 .93-.409.93-.409l-.044.35h.973l.762-4.663zM6.122 9.82l-.797 4.674h.961l.608-3.524.09 3.524h.687l1.283-3.524-.569 3.524h1.021l.788-4.674h-1.58l-.984 2.868-.051-2.868H6.123zm10.043.304c-.022.021-.581 3.232-.581 3.623 0 .58.326.838.785.834.329-.003.583-.085.701-.12l.036-.01.124-.835c-.067 0-.166.028-.254.028-.342 0-.38-.181-.358-.316l.276-1.705h.521l.126-.925h-.491l.1-.574h-.985zm11.619.47c-.671 0-1.185.22-1.185.22l-.143.858s.425-.175 1.067-.175c.364 0 .63.042.63.343a.654.654 0 01-.032.252s-.288-.025-.421-.025c-.846 0-1.735.369-1.735 1.479 0 .875.584 1.075.945 1.075.69 0 .988-.457 1.004-.458l-.033.38h.861l.386-2.746c0-1.166-.998-1.203-1.344-1.203zm-16.157.005c-.673 0-1.19.22-1.19.22l-.142.859s.426-.176 1.07-.176c.366 0 .634.042.634.343 0 .184-.033.252-.033.252s-.289-.025-.422-.025c-.85 0-1.741.368-1.741 1.478 0 .874.584 1.075.947 1.075.693 0 .992-.457 1.008-.458l-.033.38h.865l.386-2.745c0-1.165-1-1.203-1.349-1.203zm3.055 0c-.723 0-1.457.29-1.457 1.282 0 1.125 1.224 1.011 1.224 1.485 0 .316-.342.342-.605.342-.456 0-.866-.157-.868-.15l-.131.859c.024.007.277.12 1.098.12.22 0 1.478.056 1.478-1.248 0-1.22-1.165-.979-1.165-1.469 0-.243.19-.32.537-.32.137 0 .668.043.668.043l.123-.867s-.343-.077-.902-.077zm4.52 0c-1.004 0-1.748 1.075-1.748 2.29 0 1.402.932 1.736 1.726 1.736.733 0 1.056-.163 1.056-.163l.175-.957s-.557.244-1.061.244c-1.073 0-.885-.795-.885-.795h2.031s.132-.643.132-.905c0-.653-.328-1.45-1.425-1.45zm3.64.041c-.453 0-.79.606-.79.606l.09-.556h-.94l-.63 3.839h1.038c.294-1.64.348-2.97 1.05-2.727.123-.635.242-.88.376-1.148 0 0-.063-.014-.195-.014zm8.416 0c-.453 0-.79.606-.79.606l.09-.556h-.94l-.63 3.839h1.037c.294-1.64.35-2.97 1.051-2.727.123-.635.242-.88.377-1.148 0 0-.063-.014-.195-.014zm-12.06.825c.57 0 .466.64.466.693H18.54c0-.066.106-.693.658-.693zm13.578.074c.363 0 .55.245.55.819 0 .521-.264 1.218-.811 1.218-.363 0-.534-.299-.534-.766 0-.765.352-1.27.795-1.27zm-4.991 1.307c.148 0 .179.014.204.02-.004 0-.005 0 .01.003.018.171-.104.973-.697.973-.305 0-.383-.242-.383-.384 0-.279.145-.612.866-.612zm-16.156.003c.168 0 .186.02.215.024.019.17-.104.972-.699.972-.307 0-.386-.241-.386-.384 0-.278.146-.612.87-.612z" fill="#F2F2F2" fill-opacity=".5"/></svg>