<svg width="25" height="25" viewBox="0 0 25 25" fill="none" xmlns="http://www.w3.org/2000/svg"><path d="M22.094 4.857a12.575 12.575 0 011.478 2.485l-11.236 8.394-4.695-2.983V9.164l4.695 2.983 9.758-7.29zM2.85 12.5c0-.161.003-.321.011-.48l-2.846-.142a12.612 12.612 0 00.922 5.407 12.478 12.478 0 002.676 4.052l2.018-2.044a9.587 9.587 0 01-2.06-3.116A9.69 9.69 0 012.85 12.5zm9.485-9.613c.16 0 .317.006.474.014L12.95.016A12.159 12.159 0 007.614.95a12.291 12.291 0 00-4 2.712l2.018 2.046a9.444 9.444 0 013.074-2.089 9.342 9.342 0 013.63-.732zm.001 19.226c-.16 0-.317 0-.475-.013l-.142 2.884a12.152 12.152 0 005.336-.933 12.285 12.285 0 003.998-2.713l-2.015-2.044a9.45 9.45 0 01-3.074 2.087 9.346 9.346 0 01-3.628.732z" fill="#8D8D8D"/><path d="M17.68 4.564l2.399-1.79A12.178 12.178 0 0012.33 0v2.887a9.35 9.35 0 015.35 1.677zm6.989 7.936a12.74 12.74 0 00-.194-2.24l-2.655 1.983v.257a9.7 9.7 0 01-.815 3.898 9.584 9.584 0 01-2.31 3.226l1.915 2.145c1.28-1.17 2.302-2.6 3.001-4.197a12.6 12.6 0 001.058-5.072zm-12.333 9.613a9.36 9.36 0 01-3.848-.826 9.473 9.473 0 01-3.183-2.34l-2.116 1.94a12.308 12.308 0 004.142 3.041A12.161 12.161 0 0012.336 25v-2.887zM5.974 5.375L4.06 3.23a12.461 12.461 0 00-3.002 4.197A12.61 12.61 0 000 12.5h2.85a9.691 9.691 0 01.815-3.898 9.584 9.584 0 012.31-3.226z" fill="#8D8D8D"/></svg>