<svg width="122" height="119" viewBox="0 0 122 119" fill="none" xmlns="http://www.w3.org/2000/svg"><g filter="url(#filter0_bd_1_616)" shape-rendering="crispEdges"><path d="M49.088 20.023c1.893-.147 4.15.399 6.789 2.105.243.158.443.377.678.548l1.737 1.26c.103.087.211.165.325.236l1.556 1.11 2.598-1.77c.29-.198.666-.44 1.113-.703 1.188-.705 2.81-1.53 4.617-2.084 3.59-1.098 7.394-1.044 10.49 2.503 1.87 2.14 2.648 4.21 2.849 6.241.642 10.843-.872 17.398-2.29 21.386-1.141 3.21-3.55 5.662-6.909 6.225-7.526 1.26-21.346 1.834-26.62-1.429-7.105-4.395-6.974-27.953-4.433-31.003 2.54-3.05 5.068-4.437 7.5-4.625z" fill="url(#paint0_linear_1_616)"/><path d="M67.183 29.67l-6.136-4.378 2.004-1.367s0 0 0 0c.284-.192.65-.427 1.087-.685v-.001c1.167-.692 2.751-1.496 4.509-2.035 1.75-.536 3.514-.778 5.197-.477 1.67.299 3.295 1.139 4.77 2.83h0c1.8 2.06 2.535 4.03 2.727 5.952.637 10.774-.868 17.259-2.262 21.179-1.094 3.078-3.378 5.372-6.52 5.899-3.733.625-9.039 1.081-14.062.975-2.51-.053-4.94-.246-7.062-.626-2.13-.38-3.91-.943-5.151-1.71-1.621-1.003-2.898-3.155-3.835-6.001-.93-2.824-1.496-6.233-1.763-9.62-.267-3.383-.234-6.722.021-9.396.128-1.338.31-2.5.536-3.413.23-.935.49-1.54.729-1.828 2.486-2.984 4.9-4.272 7.154-4.447h0c1.76-.137 3.91.365 6.48 2.027.088.057.174.13.284.225l.036.032a4.632 4.632 0 00.335.276l1.724 1.251c.112.093.23.178.354.256l1.544 1.101.283.203 6.437 4.592.58-.814z" stroke="url(#paint1_linear_1_616)"/></g><defs><linearGradient id="paint0_linear_1_616" x1="41.141" y1="17.142" x2="62.419" y2="71.167" gradientUnits="userSpaceOnUse"><stop stop-color="#fff" stop-opacity=".7"/><stop offset="1" stop-color="#fff" stop-opacity="0"/></linearGradient><linearGradient id="paint1_linear_1_616" x1="43.089" y1="17.857" x2="65.523" y2="71.112" gradientUnits="userSpaceOnUse"><stop stop-color="#F4F4F4"/><stop offset="1" stop-color="#7D7D7D"/></linearGradient><filter id="filter0_bd_1_616" x="0" y="0" width="121.992" height="118.078" filterUnits="userSpaceOnUse" color-interpolation-filters="sRGB"><feFlood flood-opacity="0" result="BackgroundImageFix"/><feGaussianBlur in="BackgroundImage" stdDeviation="2"/><feComposite in2="SourceAlpha" operator="in" result="effect1_backgroundBlur_1_616"/><feColorMatrix in="SourceAlpha" values="0 0 0 0 0 0 0 0 0 0 0 0 0 0 0 0 0 0 127 0" result="hardAlpha"/><feOffset dy="20"/><feGaussianBlur stdDeviation="20"/><feComposite in2="hardAlpha" operator="out"/><feColorMatrix values="0 0 0 0 0 0 0 0 0 0 0 0 0 0 0 0 0 0 0.3 0"/><feBlend in2="effect1_backgroundBlur_1_616" result="effect2_dropShadow_1_616"/><feBlend in="SourceGraphic" in2="effect2_dropShadow_1_616" result="shape"/></filter></defs></svg>