<svg width="184" height="131" viewBox="0 0 184 131" fill="none" xmlns="http://www.w3.org/2000/svg">
<path d="M61.3333 62.025H16.1767C17.6015 53.4955 20.9897 45.3269 26.1249 38.0409C31.26 30.7549 38.0292 24.5117 46 19.7102L59.7233 11.4402L51.29 0L37.5667 8.27001C26.0151 15.1898 16.5424 24.5658 9.98915 35.566C3.43586 46.5662 0.00465433 58.8505 0 71.3288V117.158C0 120.814 1.61547 124.32 4.49103 126.905C7.36659 129.49 11.2667 130.942 15.3333 130.942H61.3333C65.4 130.942 69.3001 129.49 72.1756 126.905C75.0512 124.32 76.6667 120.814 76.6667 117.158V75.8084C76.6667 72.1528 75.0512 68.647 72.1756 66.0621C69.3001 63.4772 65.4 62.025 61.3333 62.025ZM168.667 62.025H123.51C124.935 53.4955 128.323 45.3269 133.458 38.0409C138.593 30.7549 145.362 24.5117 153.333 19.7102L167.057 11.4402L158.7 0L144.9 8.27001C133.348 15.1898 123.876 24.5658 117.322 35.566C110.769 46.5662 107.338 58.8505 107.333 71.3288V117.158C107.333 120.814 108.949 124.32 111.824 126.905C114.7 129.49 118.6 130.942 122.667 130.942H168.667C172.733 130.942 176.633 129.49 179.509 126.905C182.385 124.32 184 120.814 184 117.158V75.8084C184 72.1528 182.385 68.647 179.509 66.0621C176.633 63.4772 172.733 62.025 168.667 62.025Z" fill="#363434" fill-opacity="0.1"/>
</svg>
