<svg width="144" height="144" viewBox="0 0 144 144" fill="none" xmlns="http://www.w3.org/2000/svg"><g clip-path="url(#clip0_602_1769)"><path d="M57.189 61.318L50 93.769l-4.342-.013 1.053 6.034 7.948 3.66.026 7.51 5.074 3.247.053 15.608 25.555-.2.058-15.251 4.337-2.652-.024-7.123 8.115-3.296 1.489-7.447-4.734-.015-6.524-32.212-30.896-.301z" fill="#414141"/><g filter="url(#filter0_bd_602_1769)" shape-rendering="crispEdges"><path d="M46.694 13.05c4.102-.32 8.995.864 14.713 4.562.528.341.96.817 1.469 1.187l3.764 2.733c.223.185.459.356.705.51l3.371 2.405 5.63-3.837c.63-.427 1.443-.95 2.412-1.522 2.574-1.53 6.088-3.315 10.005-4.516 7.782-2.38 16.026-2.264 22.735 5.424 4.05 4.638 5.737 9.125 6.173 13.524 1.748 29.533-3.883 44.387-7.206 51.967-1.368 3.12-3.504 5.825-6.806 6.661-13.553 3.434-50.592 6.166-63.612-1.89-15.395-9.524-15.113-60.575-9.606-67.185 5.506-6.61 10.984-9.615 16.253-10.023z" fill="url(#paint0_linear_602_1769)"/><path d="M46.733 13.548h0c3.968-.309 8.754.83 14.402 4.484l.272-.42-.272.42c.23.148.446.331.684.539l.08.07c.208.183.437.384.683.562l3.75 2.724c.234.192.479.37.735.53l3.36 2.398.283.202.288-.196 5.628-3.837s0 0 0 0c.623-.422 1.427-.94 2.386-1.506h.001c2.553-1.516 6.03-3.282 9.896-4.468 3.846-1.176 7.768-1.723 11.536-1.05 3.756.672 7.394 2.564 10.676 6.325h0c3.981 4.558 5.625 8.944 6.051 13.235 1.742 29.438-3.87 44.211-7.165 51.727-1.34 3.057-3.386 5.595-6.471 6.376-6.726 1.705-19.332 3.243-31.887 3.349-6.274.052-12.52-.254-18.002-1.072-5.492-.82-10.168-2.146-13.337-4.106-3.693-2.286-6.515-7.118-8.558-13.318-2.036-6.178-3.267-13.617-3.848-20.983-.58-7.363-.51-14.633.047-20.466.28-2.917.679-5.465 1.176-7.48.502-2.038 1.088-3.461 1.698-4.194 5.452-6.544 10.815-9.45 15.908-9.845z" stroke="url(#paint1_linear_602_1769)"/></g></g><defs><linearGradient id="paint0_linear_602_1769" x1="29.472" y1="6.806" x2="75.583" y2="123.884" gradientUnits="userSpaceOnUse"><stop stop-color="#fff" stop-opacity=".7"/><stop offset="1" stop-color="#fff" stop-opacity="0"/></linearGradient><linearGradient id="paint1_linear_602_1769" x1="33.693" y1="8.355" x2="82.311" y2="123.765" gradientUnits="userSpaceOnUse"><stop stop-color="#F4F4F4"/><stop offset="1" stop-color="#7D7D7D"/></linearGradient><clipPath id="clip0_602_1769"><path fill="#fff" d="M0 0h144v144H0z"/></clipPath><filter id="filter0_bd_602_1769" x="-3" y="-7" width="151" height="142.518" filterUnits="userSpaceOnUse" color-interpolation-filters="sRGB"><feFlood flood-opacity="0" result="BackgroundImageFix"/><feGaussianBlur in="BackgroundImageFix" stdDeviation="2"/><feComposite in2="SourceAlpha" operator="in" result="effect1_backgroundBlur_602_1769"/><feColorMatrix in="SourceAlpha" values="0 0 0 0 0 0 0 0 0 0 0 0 0 0 0 0 0 0 127 0" result="hardAlpha"/><feOffset dy="10"/><feGaussianBlur stdDeviation="15"/><feComposite in2="hardAlpha" operator="out"/><feColorMatrix values="0 0 0 0 0 0 0 0 0 0 0 0 0 0 0 0 0 0 0.3 0"/><feBlend in2="effect1_backgroundBlur_602_1769" result="effect2_dropShadow_602_1769"/><feBlend in="SourceGraphic" in2="effect2_dropShadow_602_1769" result="shape"/></filter></defs></svg>