<svg width="177" height="42" viewBox="0 0 177 42" fill="none" xmlns="http://www.w3.org/2000/svg"><g clip-path="url(#clip0_1_130)" fill="#36393A"><path d="M167.05 13.746h-5.071v14.222h5.071v-7.35c0-1.813.574-3.34 2.583-3.34 2.488 0 2.296 2.386 2.296 3.722v6.873H177V19.09c0-3.436-1.531-5.918-5.358-5.918-2.009 0-3.444.573-4.592 2.29v-1.717zm-17.318 0h-5.07v14.222h5.07v-7.35c0-1.813.574-3.34 2.679-3.34 2.488 0 2.297 2.386 2.297 3.722v6.873h5.07V19.09c0-3.436-1.53-5.918-5.357-5.918-2.01 0-3.445.573-4.593 2.29h-.096v-1.717zm-7.08 0h-5.07v1.336c-1.053-1.241-2.775-1.814-4.401-1.814-4.21 0-7.176 3.437-7.176 7.541 0 4.105 2.966 7.637 7.176 7.637 1.626 0 3.348-.669 4.305-2.1h.096v1.527h5.07V13.746zm-8.036 3.913c2.009 0 3.253 1.432 3.253 3.15 0 1.814-1.244 3.246-3.253 3.246-2.105 0-3.253-1.337-3.253-3.246 0-1.718 1.243-3.15 3.253-3.15zm-28.703-3.913h-5.071v14.222h5.071v-6.777c0-1.527 0-4.009 2.201-4.009 2.296 0 2.296 2.482 2.296 4.009v6.777h5.071v-6.777c0-1.623.095-3.914 2.487-3.914 2.105 0 2.105 2.482 2.105 3.914v6.777h5.071v-8.972c0-3.341-1.244-5.632-4.88-5.632-1.913 0-3.827.954-4.783 2.768-1.053-1.91-2.775-2.768-4.88-2.768-1.818 0-3.349.668-4.497 2.195h-.095v-1.813h-.096zm-22.197 0v8.59c0 4.678 3.349 6.205 7.654 6.205 4.306 0 7.654-1.527 7.654-6.204v-8.591h-5.07v7.636c0 1.814-.479 3.054-2.488 3.054-2.105 0-2.488-1.24-2.488-3.054v-7.636h-5.262zm-2.296 0h-5.07v1.336c-1.053-1.241-2.775-1.814-4.402-1.814-4.21 0-7.176 3.437-7.176 7.541 0 4.105 2.966 7.637 7.176 7.637 1.627 0 3.349-.669 4.306-2.1h.095v1.527h5.071V13.746zm-8.132 3.913c2.104 0 3.252 1.432 3.252 3.15 0 1.814-1.243 3.246-3.252 3.246-2.01 0-3.253-1.337-3.253-3.246 0-1.718 1.243-3.15 3.253-3.15z"/><path d="M59.415 13.746h-5.071v14.222h5.07v-5.727c0-2.482.67-4.295 3.445-4.295.765 0 1.53.095 2.2.477v-4.868h-.956c-2.01 0-3.636.763-4.593 2.482h-.095v-2.291zm-8.228 4.199h2.87v-4.2h-2.87V9.45H46.21v4.295h-1.72v4.2h1.722v10.023h4.976V17.945zm-7.559-3.722c-1.53-.668-3.062-.955-4.688-.955-3.157 0-6.315 1.528-6.315 5.06 0 2.577 1.627 3.34 3.158 3.818 1.626.381 3.157.477 3.157 1.622 0 .764-.957 1.05-1.627 1.05-1.243 0-2.965-.763-4.018-1.527l-1.818 3.532a11.102 11.102 0 005.74 1.623c3.35 0 6.698-1.528 6.698-5.346 0-2.577-1.818-3.723-4.114-4.2-.67-.095-2.296-.286-2.296-1.24 0-.669 1.052-.955 1.626-.955.861 0 1.914.286 2.68.668l1.817-3.15zM27.555 1.432C20.188 6.3 12.82 11.264 5.454 16.132c-3.253 2.482-3.158 6.3-.957 9.45l22.962-15.368.096-8.782zM.383 39.614c7.367-4.869 14.734-9.832 22.1-14.7 3.254-2.482 3.158-6.3.957-9.45L.479 30.832l-.095 8.782z"/></g><defs><clipPath id="clip0_1_130"><path fill="#fff" d="M0 0h177v42H0z"/></clipPath></defs></svg>