<svg width="285" height="50" viewBox="0 0 285 50" fill="none" xmlns="http://www.w3.org/2000/svg">
<path fill-rule="evenodd" clip-rule="evenodd" d="M178.486 25.0858C178.486 20.0151 175.215 16.9072 170.144 16.9072C165.073 16.9072 161.802 20.3422 161.802 25.0858C161.802 30.1565 165.073 33.2643 170.144 33.2643C175.297 33.2643 178.568 29.8293 178.568 25.0858H178.486ZM175.624 25.0858C175.624 28.3572 173.497 30.6472 170.226 30.6472C166.627 30.6472 164.746 28.1936 164.746 25.0858C164.746 21.8143 166.791 19.5244 170.144 19.5244C173.743 19.5244 175.624 21.9779 175.624 25.0858ZM212.427 25.0858C212.427 20.0151 209.156 16.9072 204.085 16.9072C198.933 16.9072 195.661 20.3422 195.661 25.0858C195.661 30.1565 199.014 33.2643 204.085 33.2643C209.156 33.2643 212.427 29.8293 212.427 25.0858ZM209.483 25.0858C209.483 28.3572 207.438 30.6472 204.085 30.6472C200.487 30.6472 198.605 28.1936 198.605 25.0858C198.605 21.8143 200.65 19.5244 204.003 19.5244C207.602 19.5244 209.483 21.9779 209.483 25.0858ZM215.29 33.0189V17.1526H222.16C225.676 17.1526 227.394 18.4611 227.394 21.0783C227.394 22.9593 226.74 24.1043 225.104 24.7586C226.985 25.0858 227.885 26.3943 227.885 28.3572C227.885 31.6286 225.595 33.0189 221.751 33.0189H215.371H215.29ZM221.751 23.859C223.55 23.859 224.613 23.0411 224.613 21.7326C224.613 20.424 223.795 19.7697 221.832 19.7697H218.152V23.859H221.751ZM221.914 30.4018C224.122 30.4018 225.104 29.6657 225.104 28.1936C225.104 26.6397 223.959 26.0672 221.996 26.0672H218.152V30.4018H221.914ZM235.981 22.1415H233.855V17.2344H231.074V33.0189H235.981C240.561 33.0189 243.015 31.1379 243.015 27.4575C243.015 23.859 240.97 22.1415 235.981 22.1415V22.1415ZM233.855 30.32V24.6768H236.227C238.926 24.6768 240.152 25.4947 240.152 27.3758C240.152 29.5022 238.762 30.4018 236.145 30.4018H233.855V30.32Z" fill="#FF0D65"/>
<path d="M248.74 26.149H255.937V23.5318H248.74V19.7697H256.755V17.1526H245.959V33.0189H257V30.4018H248.74V26.149Z" fill="#FF0D65"/>
<path fill-rule="evenodd" clip-rule="evenodd" d="M184.211 28.03V32.9372H181.43V17.2344H186.665C191.572 17.2344 193.698 19.0337 193.698 22.6322C193.698 26.3125 191.245 28.1118 186.665 28.1118H184.211V28.03ZM184.211 19.8515V25.4947H186.91C189.445 25.4947 190.836 24.6768 190.836 22.4686C190.836 20.5058 189.609 19.7697 186.91 19.7697H184.293L184.211 19.8515ZM145.936 30.4018C146.835 28.2754 147.49 25.2493 147.571 20.424V17.1526H158.612V30.4018H160.412V35.8814H157.794V33.0189H146.835V35.8814H144.218V30.4018H145.936ZM148.635 30.4018H155.832V19.7697H150.107V20.5876C150.107 24.6768 149.534 27.9483 148.635 30.4018Z" fill="#FF0D65"/>
<path d="M136.203 16.9072C133.749 16.9072 131.95 17.7251 131.051 18.3794V22.3051C131.615 21.454 132.38 20.755 133.279 20.27C134.178 19.785 135.182 19.5289 136.203 19.5244C137.839 19.6061 139.147 20.1786 139.147 21.6508C139.147 22.7958 138.493 23.7772 136.448 23.7772H134.077V26.149H136.53C138.984 26.149 139.965 26.8033 139.965 28.1936C139.965 29.8293 138.411 30.6472 136.53 30.6472C133.668 30.6472 131.623 29.3386 130.642 27.7847V31.2197C131.459 32.2011 133.668 33.2643 136.448 33.1825C140.701 33.1825 142.828 31.0561 142.828 28.3572C142.828 26.3125 141.683 25.0858 139.229 24.6768C141.11 24.0226 142.01 22.7958 142.01 20.9147C142.01 18.134 139.72 16.989 136.285 16.989L136.203 16.9072Z" fill="#FF0D65"/>
<path d="M70.4476 30.1565C71.4291 30.1565 72.4105 29.9111 73.3101 29.4204L74.128 29.0115L76.2544 30.6472C75.4837 31.4477 74.5549 32.0792 73.5271 32.5015C72.4993 32.9239 71.3949 33.128 70.2841 33.1007C67.9123 33.1007 65.7859 32.2011 64.3137 30.6472C63.5582 29.8981 62.9594 29.0061 62.5522 28.0232C62.145 27.0403 61.9375 25.9861 61.942 24.9222C61.942 22.6322 62.7598 20.5876 64.3137 19.1972C65.7859 17.7251 67.9123 16.9072 70.2841 16.9072C72.4105 16.9072 74.3733 17.6433 75.7637 18.8701L75.9273 18.9519L73.4737 20.7511C72.6558 20.0969 71.5109 19.7697 70.4476 19.7697C69.7474 19.7354 69.0477 19.8467 68.3926 20.0965C67.7375 20.3463 67.1414 20.7292 66.6418 21.2211C66.1423 21.713 65.7501 22.3031 65.4902 22.9542C65.2302 23.6054 65.1081 24.3033 65.1316 25.004C65.1316 27.9483 67.3398 30.1565 70.4476 30.1565V30.1565Z" fill="#21A038"/>
<path fill-rule="evenodd" clip-rule="evenodd" d="M86.5594 23.2865H82.4701V19.7697H89.013L92.5297 17.1526H79.1169V32.8554H86.0687C89.9944 32.8554 92.2844 31.0561 92.2844 27.9483C92.2844 24.9222 90.2398 23.2865 86.5594 23.2865ZM85.9869 30.2382H82.4701V25.9036H85.9869C88.1133 25.9036 89.0948 26.5579 89.0948 28.03C89.0948 29.5022 88.0315 30.2382 85.9869 30.2382Z" fill="#21A038"/>
<path d="M107.333 17.1526L103.734 19.7697H98.8272V23.6136H106.024V26.2308H98.8272V30.2382H107.333V32.8554H95.474V17.1526H107.251H107.333Z" fill="#21A038"/>
<path fill-rule="evenodd" clip-rule="evenodd" d="M110.441 17.1526H116.82C120.909 17.1526 123.526 19.279 123.526 22.7958C123.526 26.2308 120.909 28.3572 116.82 28.3572H113.876V32.8554H110.522V17.1526H110.441ZM113.712 25.74H116.738C118.946 25.74 120.091 24.6768 120.091 22.7958C120.091 20.8329 118.946 19.7697 116.82 19.7697H113.794V25.74H113.712Z" fill="#21A038"/>
<path d="M51.3098 17.0708C51.8823 17.8887 52.4548 18.7065 52.8637 19.6879L41.0048 28.439L36.0977 25.3311V21.569L41.0048 24.7586L51.3098 17.0708V17.0708Z" fill="#21A038"/>
<path d="M31.0269 25.0857V24.595L28.0009 24.4314V25.0857C28.0068 28.5539 29.3894 31.878 31.8448 34.3274L33.9712 32.201C33.0372 31.2665 32.2965 30.1571 31.7913 28.9362C31.2861 27.7154 31.0264 26.4069 31.0269 25.0857V25.0857Z" fill="url(#paint0_linear_1_507)"/>
<path d="M41.0048 15.0261H41.4956L41.6591 12H41.0048C37.4063 12 34.1349 13.4721 31.8449 15.8439L33.9713 17.9703C35.7706 16.1711 38.2241 15.0261 41.0048 15.0261V15.0261Z" fill="url(#paint1_linear_1_507)"/>
<path d="M41.0049 35.1452H40.5142L40.2688 38.1713H40.9231C44.5217 38.1713 47.7931 36.6991 50.0831 34.3273L47.9567 32.2009C46.0944 34.0748 43.565 35.1336 40.9231 35.1452H41.0049Z" fill="url(#paint2_linear_1_507)"/>
<path d="M46.6481 16.7436L49.1016 14.9443C46.7972 13.0479 43.9075 12.0076 40.9231 12V15.0261C43.0495 15.0261 45.0124 15.6803 46.6481 16.7436Z" fill="url(#paint3_linear_1_507)"/>
<path d="M54.0088 25.0856C54.0088 24.2678 53.927 23.4499 53.7635 22.7139L50.9827 24.8403V25.0856C50.9827 28.0299 49.756 30.7288 47.7113 32.5281L49.756 34.8181C51.1058 33.5833 52.1817 32.0791 52.9142 30.4028C53.6467 28.7264 54.0196 26.915 54.0088 25.0856Z" fill="#21A038"/>
<path d="M41.0048 35.1454C38.0605 35.1454 35.4434 33.8369 33.6441 31.874L31.2723 33.8369C33.8077 36.5358 37.1609 38.1715 41.0866 38.1715V35.1454H41.0048Z" fill="url(#paint4_linear_1_507)"/>
<path d="M34.2984 17.6433L32.2538 15.2715C30.8937 16.5156 29.8117 18.0329 29.0788 19.7242C28.3459 21.4155 27.9786 23.2426 28.001 25.0857H31.027C31.027 22.1415 32.2538 19.4425 34.2984 17.6433Z" fill="url(#paint5_linear_1_507)"/>
<defs>
<linearGradient id="paint0_linear_1_507" x1="32.4173" y1="34.0003" x2="29.0641" y2="24.4314" gradientUnits="userSpaceOnUse">
<stop offset="0.1" stop-color="#F2E913"/>
<stop offset="0.3" stop-color="#E7E518"/>
<stop offset="0.6" stop-color="#CADB26"/>
<stop offset="0.9" stop-color="#A3CD39"/>
</linearGradient>
<linearGradient id="paint1_linear_1_507" x1="32.6627" y1="16.3346" x2="41.1684" y2="13.145" gradientUnits="userSpaceOnUse">
<stop offset="0.1" stop-color="#0FA8E0"/>
<stop offset="0.5" stop-color="#0099F9"/>
<stop offset="0.9" stop-color="#0291EB"/>
</linearGradient>
<linearGradient id="paint2_linear_1_507" x1="40.187" y1="36.372" x2="49.6741" y2="34.2456" gradientUnits="userSpaceOnUse">
<stop offset="0.1" stop-color="#A3CD39"/>
<stop offset="0.3" stop-color="#86C339"/>
<stop offset="0.9" stop-color="#21A038"/>
</linearGradient>
<linearGradient id="paint3_linear_1_507" x1="40.3506" y1="12.9814" x2="48.5291" y2="15.5168" gradientUnits="userSpaceOnUse">
<stop offset="0.1" stop-color="#0291EB"/>
<stop offset="0.8" stop-color="#0C8ACB"/>
</linearGradient>
<linearGradient id="paint4_linear_1_507" x1="32.0902" y1="33.5097" x2="41.0048" y2="36.7811" gradientUnits="userSpaceOnUse">
<stop offset="0.1" stop-color="#F2E913"/>
<stop offset="0.3" stop-color="#EBE716"/>
<stop offset="0.5" stop-color="#D9E01F"/>
<stop offset="0.8" stop-color="#BBD62D"/>
<stop offset="1" stop-color="#A3CD39"/>
</linearGradient>
<linearGradient id="paint5_linear_1_507" x1="29.146" y1="25.4947" x2="32.7445" y2="16.0893" gradientUnits="userSpaceOnUse">
<stop offset="0.1" stop-color="#A3CD39"/>
<stop offset="0.3" stop-color="#81C55F"/>
<stop offset="0.9" stop-color="#0FA8E0"/>
</linearGradient>
</defs>
</svg>
