<svg width="285" height="50" viewBox="0 0 285 50" fill="none" xmlns="http://www.w3.org/2000/svg">
<path fill-rule="evenodd" clip-rule="evenodd" d="M115.136 36.0672C123.658 36.0672 130.521 29.08 130.521 20.5336C130.521 11.9295 123.6 5 115.136 5C106.671 5 99.7508 11.9295 99.7508 20.4758C99.7508 29.08 106.614 36.0672 115.136 36.0672ZM115.136 28.9645C119.769 28.9645 123.486 25.1532 123.486 20.5336C123.486 15.8562 119.711 12.1027 115.136 12.1027C110.503 12.1027 106.786 15.9139 106.786 20.5336C106.786 25.1532 110.503 28.9645 115.136 28.9645Z" fill="#13A546"/>
<path fill-rule="evenodd" clip-rule="evenodd" d="M122.571 35.605L129.492 43.7471C130.75 45.2485 132.981 45.4218 134.468 44.1514C135.955 42.881 136.126 40.6289 134.868 39.1275L128.119 31.1587C126.632 33.0065 124.745 34.5079 122.571 35.605Z" fill="#13A546"/>
<path d="M161.172 30.8942C161.172 31.9335 160.829 32.7997 160.2 33.4349C159.513 34.1279 158.713 34.4167 157.74 34.4167C156.654 34.4167 155.739 34.0124 155.052 33.2039L147.217 23.7337L143.817 26.8327V30.8339C143.817 31.8156 143.556 32.6265 142.87 33.3194C142.184 34.0124 141.326 34.3589 140.411 34.3589C139.496 34.3589 138.638 34.0124 137.951 33.3194C137.265 32.6265 136.979 31.7603 136.979 30.8364V10.3944C136.979 9.41276 137.322 8.60433 137.951 7.91138C138.638 7.21844 139.496 6.87196 140.468 6.87196C141.44 6.87196 142.241 7.21844 142.87 7.91138C143.556 8.60433 143.806 9.47051 143.806 10.3944V19.0563L154.938 7.73814C155.567 7.10294 156.31 6.81421 157.226 6.81421C158.141 6.81421 158.941 7.16069 159.513 7.79588C160.142 8.43109 160.428 9.18179 160.428 10.1057C160.428 11.0296 160.142 11.8381 159.513 12.4155L152.307 19.576L160.486 28.7576C160.943 29.2195 161.172 29.9702 161.172 30.8942Z" fill="#2C2B67"/>
<path d="M174.469 30.9909V13.494H169.722C168.864 13.494 168.12 13.2052 167.491 12.6278C166.919 12.0503 166.633 11.2996 166.633 10.4334C166.633 9.56725 166.919 8.87431 167.491 8.23911C168.12 7.60392 168.864 7.31519 169.722 7.31519H186.308C187.166 7.31519 187.852 7.60392 188.481 8.23911C189.111 8.81656 189.396 9.56725 189.396 10.4334C189.396 11.2419 189.111 11.9926 188.481 12.6278C187.909 13.2052 187.166 13.494 186.308 13.494H181.504V31.0487C181.504 32.0303 181.161 32.8387 180.474 33.5317C179.788 34.2246 178.93 34.5711 178.015 34.5711C177.043 34.5711 176.242 34.2246 175.556 33.5317C174.869 32.8387 174.469 31.9725 174.469 30.9909Z" fill="#2C2B67"/>
<path d="M197.667 38.7234L198.009 38.6656C199.84 38.6079 201.041 37.9727 201.67 36.7023L202.643 34.3925L193.491 11.5252C193.32 11.2364 193.263 10.7745 193.263 10.2548C193.263 9.27311 193.606 8.46466 194.235 7.82946C194.921 7.13651 195.722 6.79004 196.637 6.79004C198.296 6.79004 199.383 7.54073 199.84 8.98438L206.246 26.1349L212.594 8.98438C213.166 7.54073 214.253 6.79004 215.854 6.79004C216.827 6.79004 217.684 7.13651 218.313 7.82946C218.999 8.5224 219.286 9.33085 219.286 10.2548C219.286 10.659 219.172 11.121 218.999 11.5829L208.19 38.4346C206.531 42.7078 203.329 44.9022 198.524 44.9599C198.125 44.9599 197.838 44.9599 197.781 44.9022C196.865 44.8444 196.122 44.5556 195.493 43.9782C194.864 43.4007 194.636 42.6501 194.636 41.7261C194.636 40.86 194.921 40.167 195.493 39.5895C196.179 39.0698 196.865 38.7812 197.667 38.7234Z" fill="#2C2B67"/>
<path d="M95.484 31.5629V38.0303C95.484 38.8965 95.1981 39.5895 94.6261 40.2247C94.0542 40.8599 93.3107 41.0909 92.4528 41.0909C91.5949 41.0909 90.8514 40.8021 90.2223 40.2247C89.6504 39.6473 89.3644 38.8965 89.3644 38.0303V33.9444H71.1197V38.0303C71.1197 38.8965 70.8337 39.5895 70.2618 40.2247C69.6899 40.8599 68.9463 41.0909 68.0884 41.0909C67.2305 41.0909 66.487 40.8021 65.8579 40.2247C65.286 39.6473 65 38.8965 65 38.0303V32.6023C65 29.946 65.8579 28.4446 67.5165 27.9827C69.0035 25.2109 70.0902 20.418 70.7193 13.604L70.9481 11.0054C71.0625 9.79278 71.4629 8.86885 72.2064 8.23365C72.9499 7.5407 73.8675 7.30786 75.0114 7.30786L88.3378 7.3079C89.6532 7.3079 90.6798 7.5407 91.3661 8.2914C92.1096 8.98435 92.4528 10.0238 92.4528 11.3519V27.9249C94.5117 28.0982 95.484 29.3108 95.484 31.5629ZM85.583 28.1439V13.1009H76.9459L76.7818 15.6828C76.4386 21.4574 75.4481 25.834 74.0183 28.1439H85.583Z" fill="#2C2B67"/>
</svg>
