<svg width="285" height="50" viewBox="0 0 285 50" fill="none" xmlns="http://www.w3.org/2000/svg">
<path d="M45.7866 8.71464C45.9211 9.03403 45.9883 9.38705 45.9883 9.77368V11.7237V16.5566H50.8128H52.7712C53.1494 16.5566 53.5024 16.6238 53.8218 16.7583L53.8387 16.7667H53.8555L53.8723 16.7751L53.8891 16.7835L53.8975 16.7919L53.9143 16.8003H53.9311L53.9479 16.8087L53.9563 16.8172L54.0068 16.8424C54.2589 16.9684 54.5027 17.1534 54.7212 17.3719C54.9481 17.5988 55.1246 17.8342 55.2591 18.0947L55.2759 18.1199V18.1368L55.2843 18.1536L55.2927 18.1704L55.3011 18.1788L55.3095 18.1956L55.3179 18.2124V18.2292L55.3264 18.246L55.3348 18.2544L55.3432 18.2712V18.288L55.3516 18.3049L55.36 18.3217L55.3684 18.3301V18.3469L55.3768 18.3637L55.3852 18.3805V18.3973L55.3936 18.4057L55.402 18.4225V18.4393L55.4104 18.4561V18.473L55.4188 18.4898L55.4272 18.5066V18.5234L55.4356 18.5318V18.5486L55.444 18.5654V18.5822L55.4524 18.599V18.6158L55.4608 18.6327V18.6495L55.4692 18.6663V18.6831L55.4776 18.6915V18.7083V18.7251L55.4861 18.7419V18.7587L55.4945 18.7755V18.7923V18.8092L55.5029 18.826V18.8428V18.8596L55.5113 18.8764V18.8932V18.91L55.5197 18.9268V18.9436V18.9605V18.9773L55.5281 18.9941V19.0109V19.0277V19.0445V19.0613L55.5365 19.0781V19.1033V19.1201V19.137V19.1538V19.1706V19.1874V19.2042V19.221L55.5449 19.2378V19.2546V19.2714V19.2967V19.3135V19.3303V30.1308V30.1476V30.1644V30.1813V30.2065V30.2233L55.5365 30.2401V30.2569V30.2737V30.2905V30.3073V30.3241V30.341V30.3578V30.3746L55.5281 30.3914V30.4166V30.4334V30.4502V30.467L55.5197 30.4838V30.5006V30.5175V30.5343L55.5113 30.5511V30.5679V30.5847L55.5029 30.6015V30.6183V30.6351L55.4945 30.6519V30.6688V30.6856L55.4861 30.7024V30.7192L55.4776 30.736V30.7444V30.7612L55.4692 30.778V30.7948L55.4608 30.8116V30.8284L55.4524 30.8453V30.8621L55.444 30.8789V30.8957L55.4356 30.9125V30.9293L55.4272 30.9377V30.9545L55.4188 30.9713L55.4104 30.9881V31.005L55.402 31.0218V31.0386L55.3936 31.047L55.3852 31.0638V31.0806L55.3768 31.0974L55.3684 31.1142V31.131L55.36 31.1394L55.3516 31.1562L55.3432 31.1731V31.1899L55.3348 31.2067L55.3264 31.2151L55.3179 31.2319V31.2487L55.3095 31.2655L55.3011 31.2739L55.2927 31.2907L55.2843 31.3075L55.2759 31.3243V31.3328V31.3412L55.2591 31.3664C55.1246 31.6185 54.9481 31.8623 54.7212 32.0892C54.5027 32.3077 54.2589 32.4843 54.0068 32.6187L53.9563 32.6439L53.9479 32.6524H53.9311L53.9143 32.6608L53.8975 32.6692L53.8891 32.6776L53.8723 32.686H53.8555L53.8387 32.6944L53.8218 32.7028C53.5024 32.8373 53.1494 32.9045 52.7712 32.9045H50.8128H45.9883V37.7374V39.6874C45.9883 40.0741 45.9211 40.4271 45.7866 40.7465L45.7782 40.7633L45.7698 40.7717L45.7614 40.7885V40.8053L45.7529 40.8221L45.7445 40.8305L45.7361 40.8473L45.7277 40.8641L45.7193 40.8809L45.7025 40.923C45.568 41.1751 45.3915 41.4189 45.1646 41.6458C44.9461 41.8643 44.7023 42.0408 44.4502 42.1753L44.4165 42.1921L44.4081 42.2005H44.3997L44.3913 42.2089H44.3745L44.3577 42.2174L44.3409 42.2258L44.3325 42.2342L44.3157 42.2426H44.2989L44.2821 42.251L44.2652 42.2594L44.2568 42.2678H44.24L44.2232 42.2762L44.2064 42.2846L44.1896 42.293H44.1812L44.1644 42.3014L44.1476 42.3098H44.1308L44.114 42.3182L44.0971 42.3266H44.0887L44.0719 42.335H44.0551L44.0383 42.3434H44.0215L44.0047 42.3518L43.9879 42.3602H43.9711L43.9627 42.3686H43.9459L43.929 42.377H43.9122L43.8954 42.3855H43.8786L43.8618 42.3939H43.845H43.8282L43.8114 42.4023H43.7946L43.7778 42.4107H43.7609H43.7441L43.7273 42.4191H43.7105H43.6937L43.6769 42.4275H43.6601H43.6433L43.6265 42.4359H43.6097H43.5928H43.576L43.5592 42.4443H43.5424H43.5256H43.5088H43.492L43.4752 42.4527H43.4584H43.4415H43.4247H43.4079H43.3911L43.3743 42.4611H43.3575H43.3407H43.3155H43.2987H43.2819H43.265H43.2482H43.2314H43.2146H32.4057H32.3888H32.372H32.3552H32.3384H32.3216H32.3048H32.288H32.2712H32.246L32.2292 42.4527H32.2123H32.1955H32.1787H32.1619H32.1451L32.1283 42.4443H32.1115H32.0947H32.0779H32.061L32.0442 42.4359H32.0274H32.0106H31.9938L31.977 42.4275H31.9602H31.9434L31.9266 42.4191H31.9098H31.8929L31.8761 42.4107H31.8593H31.8425L31.8257 42.4023H31.8089L31.7921 42.3939H31.7753H31.7585L31.7417 42.3855H31.7248L31.708 42.377H31.6996L31.6828 42.3686H31.666L31.6492 42.3602H31.6324L31.6156 42.3518L31.5988 42.3434H31.582L31.5651 42.335H31.5567L31.5399 42.3266H31.5231L31.5063 42.3182L31.4895 42.3098H31.4727L31.4643 42.3014L31.4475 42.293H31.4307L31.4139 42.2846L31.397 42.2762L31.3802 42.2678H31.3718L31.355 42.2594L31.3382 42.251L31.3214 42.2426H31.3046L31.2962 42.2342L31.2794 42.2258L31.2626 42.2174L31.2458 42.2089H31.2373L31.2205 42.2005L31.2037 42.1921L31.1785 42.1753H31.1701C30.918 42.0408 30.6826 41.8643 30.4557 41.6458C30.2287 41.4189 30.0522 41.1835 29.9262 40.923H29.9177L29.9009 40.8809L29.8925 40.8641L29.8841 40.8473L29.8757 40.8305V40.8221H29.8673V40.8053L29.8589 40.7885L29.8505 40.7717L29.8421 40.7633V40.7465C29.7076 40.4271 29.6404 40.0741 29.6404 39.6874V37.7374V34.7368H31.6408V37.7374V39.0066V39.015V39.0234V39.0402V39.0486V39.057V39.0738V39.0823V39.0907V39.1075V39.1159V39.1243V39.1327V39.1495V39.1579V39.1663V39.1747V39.1915V39.1999V39.2083V39.2167V39.2335V39.2419V39.2504V39.2588V39.2672V39.284V39.2924V39.3008V39.3092V39.3176L31.6492 39.326V39.3344V39.3512V39.3596V39.368V39.3764V39.3848V39.3932V39.4016V39.41V39.4185V39.4269V39.4353V39.4437V39.4521V39.4605V39.4689L31.6576 39.4773V39.4857V39.4941V39.5025V39.5109V39.5193V39.5277V39.5361V39.5445V39.5529V39.5613V39.5697L31.666 39.5782V39.5866V39.595V39.6034V39.6202V39.6286V39.6454L31.6744 39.6538V39.6706V39.679V39.6958L31.6828 39.7042V39.721V39.7294V39.7379L31.6912 39.7631V39.7715V39.7799V39.7883C31.7332 39.9732 31.8089 40.1077 31.9098 40.2085V40.2169C32.0863 40.385 32.4645 40.4775 33.0613 40.4859H33.0697H33.0865H33.0949H33.1033H33.1201H42.5002H42.517H42.5254H42.5338H42.5506H42.559C43.1558 40.4775 43.5424 40.385 43.7105 40.2169L43.7189 40.2085C43.8114 40.1077 43.887 39.9732 43.929 39.7883V39.7799V39.7715V39.7631L43.9374 39.7379V39.7294V39.721L43.9459 39.7042V39.6958V39.679V39.6706L43.9543 39.6538V39.6454V39.6286V39.6202V39.6034V39.595H43.9627V39.5866V39.5782V39.5697V39.5613V39.5529V39.5445V39.5361V39.5277V39.5193V39.5109L43.9711 39.5025V39.4941V39.4857V39.4773V39.4689V39.4605V39.4521V39.4437V39.4353V39.4269V39.4185V39.41V39.4016V39.3932V39.3848V39.3764L43.9795 39.368V39.3596V39.3512V39.3344V39.326V39.3176V39.3092V39.3008V39.2924V39.284V39.2672V39.2588V39.2504V39.2419V39.2335V39.2167V39.2083V39.1999V39.1915V39.1747V39.1663V39.1579V39.1495V39.1327V39.1243V39.1159V39.1075V39.0907V39.0823V39.0738V39.057V39.0486V39.0402V39.0234V39.015V39.0066V37.7374V32.9045H40.0459V30.9041H43.9795H45.9883H47.7954H50.8128H52.082H52.0988H52.1072H52.1156H52.1324H52.1408H52.1492H52.166H52.1744H52.1828H52.1997H52.2081H52.2165H52.2249H52.2417H52.2501H52.2585H52.2669H52.2837H52.2921L52.3005 30.8957H52.3089H52.3173H52.3341H52.3425H52.351H52.3594H52.3678H52.3846H52.393H52.4014H52.4098H52.4182H52.4266H52.435H52.4434H52.4602H52.4686H52.477H52.4854H52.4938H52.5022L52.5106 30.8873H52.5191H52.5275H52.5359H52.5443H52.5527H52.5611H52.5695H52.5779H52.5863H52.5947H52.6031H52.6115L52.6199 30.8789H52.6283H52.6367H52.6451H52.6535H52.6619H52.6703H52.6787H52.6872L52.704 30.8705H52.7124H52.7292H52.7376H52.746H52.7544H52.7628L52.7712 30.8621H52.788H52.7964H52.8132L52.8216 30.8537H52.8469L52.8553 30.8453H52.8637C53.0486 30.8032 53.1915 30.736 53.2923 30.6351C53.4688 30.4586 53.5613 30.072 53.5613 29.4752V29.4668V29.4584V29.45V29.4416V29.4332V29.4248V20.0363V20.0279V20.0111V20.0027V19.9943V19.9775C53.5613 19.3891 53.4688 19.0025 53.2923 18.826C53.1915 18.7251 53.0486 18.6579 52.8637 18.6158L52.8553 18.6074H52.8469H52.8216L52.8132 18.599H52.7964H52.788H52.7712L52.7628 18.5906H52.7544H52.746H52.7376H52.7292H52.7124L52.704 18.5822H52.6872H52.6787H52.6703H52.6619H52.6535H52.6451H52.6367L52.6283 18.5738H52.6199H52.6115H52.6031H52.5947H52.5863H52.5779H52.5695H52.5611H52.5527H52.5443H52.5359H52.5275L52.5191 18.5654H52.5106H52.5022H52.4938H52.4854H52.477H52.4686H52.4602H52.4434H52.435H52.4266H52.4182H52.4098H52.4014H52.393H52.3846H52.3678H52.3594H52.351H52.3425L52.3341 18.557H52.3173H52.3089H52.3005H52.2921H52.2837H52.2669H52.2585H52.2501H52.2417H52.2249H52.2165H52.2081H52.1997H52.1828H52.1744H52.166H52.1492H52.1408H52.1324H52.1156H52.1072H52.0988H52.082H50.8128H47.7954H45.9883H43.9795H40.0459V16.5566H43.9795V11.7237V10.4545V10.4461V10.4377V10.4209V10.4125V10.4041V10.3873V10.3788V10.3704V10.3536V10.3452V10.3368V10.32V10.3116V10.3032V10.2948V10.278V10.2696V10.2612V10.2528V10.236V10.2276V10.2192V10.2107V10.2023V10.1939V10.1771V10.1687V10.1603V10.1519V10.1435V10.1351V10.1267V10.1099V10.1015V10.0931L43.9711 10.0847V10.0763V10.0679V10.0595V10.051V10.0426V10.0342V10.0258V10.0174V10.009V10.0006V9.99221V9.98381V9.9754V9.967V9.95859L43.9627 9.95019V9.94178V9.93338V9.92497V9.91657V9.90816V9.89976V9.89135V9.88295V9.87454V9.86614L43.9543 9.85773V9.84092V9.83252V9.82411V9.81571V9.8073V9.7989L43.9459 9.79049V9.78209V9.76528V9.75687L43.9374 9.74006V9.73166V9.72325V9.71485L43.929 9.69804V9.68123V9.67282C43.887 9.48791 43.8114 9.34502 43.7189 9.24416H43.7105C43.5424 9.07606 43.1558 8.9836 42.559 8.9752H42.5506H42.5338H42.5254H42.517H42.5002H33.1201H33.1033H33.0949H33.0865H33.0697H33.0613C32.4645 8.9836 32.0863 9.07606 31.9098 9.24416C31.8089 9.34502 31.7332 9.48791 31.6912 9.67282V9.68123V9.69804L31.6828 9.71485V9.72325V9.73166V9.74006V9.75687L31.6744 9.76528V9.78209V9.79049V9.7989V9.8073L31.666 9.81571V9.82411V9.83252V9.84092V9.85773V9.86614V9.87454V9.88295L31.6576 9.89135V9.89976V9.90816V9.91657V9.92497V9.93338V9.94178V9.95019V9.95859V9.967V9.9754V9.98381L31.6492 9.99221V10.0006V10.009V10.0174V10.0258V10.0342V10.0426V10.051V10.0595V10.0679V10.0763V10.0847V10.0931V10.1015V10.1099V10.1267V10.1351L31.6408 10.1435V10.1519V10.1603V10.1687V10.1771V10.1939V10.2023V10.2107V10.2192V10.2276V10.236V10.2528V10.2612V10.2696V10.278V10.2948V10.3032V10.3116V10.32V10.3368V10.3452V10.3536V10.3704V10.3788V10.3873V10.4041V10.4125V10.4209V10.4377V10.4461V10.4545V11.7237V14.7243H29.6404V11.7237V9.77368C29.6404 9.38705 29.7076 9.03403 29.8421 8.71464V8.69783L29.8505 8.68942L29.8589 8.67261L29.8673 8.6558V8.63899H29.8757V8.62218L29.8841 8.61378L29.8925 8.59697L29.9009 8.58016L29.9177 8.53813H29.9262C30.0522 8.27757 30.2287 8.04223 30.4557 7.81529C30.6826 7.59676 30.918 7.41185 31.1701 7.28577H31.1785L31.2037 7.26896L31.2205 7.26056L31.2373 7.25215L31.2458 7.24375H31.2626L31.2794 7.23534L31.2962 7.22694L31.3046 7.21853L31.3214 7.21013H31.3382L31.355 7.20172L31.3718 7.19332L31.3802 7.18491H31.397L31.4139 7.17651L31.4307 7.1681H31.4475L31.4643 7.1597L31.4727 7.15129H31.4895L31.5063 7.14289L31.5231 7.13448H31.5399L31.5567 7.12608H31.5651L31.582 7.11767L31.5988 7.10927H31.6156L31.6324 7.10086H31.6492L31.666 7.09246H31.6828L31.6996 7.08405H31.708L31.7248 7.07565H31.7417L31.7585 7.06724H31.7753H31.7921L31.8089 7.05884H31.8257L31.8425 7.05043H31.8593H31.8761L31.8929 7.04203H31.9098L31.9266 7.03362H31.9434H31.9602H31.977L31.9938 7.02522H32.0106H32.0274H32.0442L32.061 7.01681H32.0779H32.0947H32.1115L32.1283 7.00841H32.1451H32.1619H32.1787H32.1955H32.2123H32.2292L32.246 7H32.2712H32.288H32.3048H32.3216H32.3384H32.3552H32.372H32.3888H32.4057H43.2146H43.2314H43.2482H43.265H43.2819H43.2987H43.3155H43.3407H43.3575H43.3743L43.3911 7.00841H43.4079H43.4247H43.4415H43.4584H43.4752H43.492L43.5088 7.01681H43.5256H43.5424H43.5592L43.576 7.02522H43.5928H43.6097H43.6265L43.6433 7.03362H43.6601H43.6769H43.6937L43.7105 7.04203H43.7273L43.7441 7.05043H43.7609H43.7778L43.7946 7.05884H43.8114L43.8282 7.06724H43.845H43.8618L43.8786 7.07565H43.8954L43.9122 7.08405H43.929L43.9459 7.09246H43.9627L43.9711 7.10086H43.9879L44.0047 7.10927H44.0215L44.0383 7.11767L44.0551 7.12608H44.0719L44.0887 7.13448H44.0971L44.114 7.14289L44.1308 7.15129H44.1476L44.1644 7.1597L44.1812 7.1681H44.1896L44.2064 7.17651L44.2232 7.18491H44.24L44.2568 7.19332L44.2652 7.20172L44.2821 7.21013H44.2989L44.3157 7.21853L44.3325 7.22694L44.3409 7.23534L44.3577 7.24375H44.3745L44.3913 7.25215L44.3997 7.26056H44.4081L44.4165 7.26896L44.4502 7.28577C44.7023 7.41185 44.9461 7.59676 45.1646 7.81529C45.3915 8.04223 45.568 8.27757 45.7025 8.53813L45.7193 8.58016L45.7277 8.59697L45.7361 8.61378L45.7445 8.62218L45.7529 8.63899L45.7614 8.6558V8.67261L45.7698 8.68942L45.7782 8.69783L45.7866 8.71464Z" fill="#01BACC"/>
<path d="M28.6151 32.9045H38.2053V30.9041H28.6151V32.9045Z" fill="#ED1C60"/>
<path d="M21.7146 32.7028C22.034 32.8373 22.387 32.9046 22.7653 32.9046H24.7237V30.9041H23.4545C23.2107 30.9041 23.009 30.8957 22.8493 30.8789C22.5804 30.8453 22.3786 30.7613 22.2442 30.6352C22.0677 30.4503 21.9752 30.0468 21.9752 29.4248V20.0364C21.9752 19.7926 21.9836 19.5909 22.0004 19.4312C22.034 19.1622 22.1097 18.9605 22.2442 18.826C22.3702 18.6999 22.5804 18.6159 22.8493 18.5823C23.009 18.5655 23.2107 18.5571 23.4545 18.5571H35.4906V16.5566H22.7653C22.387 16.5566 22.034 16.6239 21.7146 16.7584C21.3952 16.8928 21.0927 17.0946 20.8153 17.3719C20.5379 17.6493 20.3362 17.9519 20.2017 18.2713C20.0672 18.5907 20 18.9437 20 19.3303V30.1309C20 30.5175 20.0672 30.8705 20.2017 31.1899C20.3362 31.5093 20.5379 31.8119 20.8153 32.0893C21.0927 32.3582 21.3868 32.5683 21.7146 32.7028Z" fill="#ED1C60"/>
<path d="M25.6482 36.9559V21.667H27.8924L31.9268 26.4747L35.9528 21.667H38.2054V32.8037H36.1462V24.634L31.9268 29.6602L27.6906 24.6508V36.9559H25.6482Z" fill="#ED1C60"/>
<path d="M21.7985 32.7028C22.1179 32.8373 22.4709 32.9046 22.8575 32.9046H24.8075H24.9336V30.9041H24.8075H23.5384H23.53H23.5131H23.5047H23.4963H23.4795H23.4711H23.4627H23.4459H23.4375H23.4291H23.4123H23.4039H23.3955H23.3871H23.3703H23.3618H23.3534H23.345H23.3282L23.3198 30.8957H23.3114H23.303H23.2946H23.2778H23.2694H23.261H23.2526H23.2442H23.2358H23.219H23.2106H23.2022H23.1937H23.1853H23.1769H23.1685H23.1601H23.1517H23.1433H23.1265H23.1181L23.1097 30.8873H23.1013H23.0929H23.0845H23.0761H23.0677H23.0593H23.0509H23.0425H23.0341H23.0256H23.0172H23.0088L23.0004 30.8789H22.992H22.9836H22.9752H22.9668H22.9584H22.95H22.9416H22.9332L22.9248 30.8705H22.908H22.8996H22.8828H22.8744H22.8575L22.8491 30.8621H22.8323H22.8239H22.8155L22.7987 30.8537H22.7819H22.7735L22.7651 30.8453H22.7567C22.5718 30.8033 22.4289 30.736 22.328 30.6352C22.1515 30.4587 22.0675 30.072 22.0591 29.4753V29.4669V29.4585V29.4501V29.4417V29.4332V29.4248V20.0364V20.0279V20.0111V20.0027V19.9943V19.9775C22.0675 19.3892 22.1515 19.0025 22.328 18.826C22.4289 18.7252 22.5718 18.6579 22.7567 18.6159L22.7651 18.6075H22.7735H22.7819H22.7987L22.8155 18.5991H22.8239H22.8323H22.8491L22.8575 18.5907H22.8744H22.8828H22.8996H22.908L22.9248 18.5823H22.9332H22.9416H22.95H22.9584H22.9668H22.9752H22.9836H22.992V18.5739H23.0004H23.0088H23.0172H23.0256H23.0341H23.0425H23.0509H23.0593H23.0677H23.0761H23.0845H23.0929L23.1013 18.5655H23.1097H23.1181H23.1265H23.1433H23.1517H23.1601H23.1685H23.1769H23.1853H23.1937H23.2022H23.2106H23.219H23.2358H23.2442H23.2526H23.261H23.2694H23.2778L23.2946 18.5571H23.303H23.3114H23.3198H23.3282H23.345H23.3534H23.3618H23.3703H23.3871H23.3955H23.4039H23.4123H23.4291H23.4375H23.4459H23.4627H23.4711H23.4795H23.4963H23.5047H23.5131H23.53H23.5384H24.8075H35.5745V16.5566H24.8075H22.8575C22.4709 16.5566 22.1179 16.6239 21.7985 16.7584L21.7817 16.7668H21.7649L21.7481 16.7752L21.7397 16.7836L21.7229 16.792L21.706 16.8004H21.6892L21.6808 16.8088L21.664 16.8172L21.622 16.8424H21.6136C21.3614 16.9685 21.1261 17.1534 20.8992 17.3719C20.6722 17.5989 20.4957 17.8342 20.3696 18.0948H20.3612L20.3528 18.12L20.3444 18.1368L20.336 18.1536L20.3276 18.1704L20.3192 18.1788V18.1956H20.3108V18.2124L20.3024 18.2293L20.294 18.2461L20.2856 18.2545V18.2713L20.2772 18.2881L20.2688 18.3049L20.2604 18.3217V18.3301L20.252 18.3469L20.2436 18.3637V18.3805L20.2352 18.3974L20.2267 18.4058V18.4226L20.2183 18.4394L20.2099 18.4562V18.473L20.2015 18.4898V18.5066L20.1931 18.5234V18.5318L20.1847 18.5486L20.1763 18.5655V18.5823L20.1679 18.5991V18.6159L20.1595 18.6327V18.6495V18.6663L20.1511 18.6831V18.6915L20.1427 18.7083V18.7252L20.1343 18.742V18.7588V18.7756L20.1259 18.7924V18.8092V18.826L20.1175 18.8428V18.8596V18.8764L20.1091 18.8933V18.9101V18.9269L20.1007 18.9437V18.9605V18.9773V18.9941L20.0923 19.0109V19.0277V19.0445V19.0614V19.0782V19.1034L20.0839 19.1202V19.137V19.1538V19.1706V19.1874V19.2042V19.2211V19.2379V19.2547V19.2715V19.2967V19.3135V19.3303V30.1309V30.1477V30.1645V30.1813V30.2065V30.2233V30.2401V30.2569V30.2738V30.2906V30.3074V30.3242V30.341L20.0923 30.3578V30.3746V30.3914V30.4166V30.4335V30.4503L20.1007 30.4671V30.4839V30.5007V30.5175L20.1091 30.5343V30.5511V30.5679L20.1175 30.5847V30.6016V30.6184L20.1259 30.6352V30.652V30.6688L20.1343 30.6856V30.7024V30.7192L20.1427 30.736V30.7444L20.1511 30.7613V30.7781L20.1595 30.7949V30.8117V30.8285L20.1679 30.8453V30.8621L20.1763 30.8789V30.8957L20.1847 30.9125L20.1931 30.9294V30.9378L20.2015 30.9546V30.9714L20.2099 30.9882V31.005L20.2183 31.0218L20.2267 31.0386V31.047L20.2352 31.0638L20.2436 31.0806V31.0975L20.252 31.1143L20.2604 31.1311V31.1395L20.2688 31.1563L20.2772 31.1731L20.2856 31.1899V31.2067L20.294 31.2151L20.3024 31.2319L20.3108 31.2487V31.2656H20.3192V31.274L20.3276 31.2908L20.336 31.3076L20.3444 31.3244L20.3528 31.3328V31.3412L20.3612 31.3664H20.3696C20.4957 31.6186 20.6722 31.8623 20.8992 32.0893C21.1261 32.3078 21.3614 32.4843 21.6136 32.6188H21.622L21.664 32.644L21.6808 32.6524H21.6892L21.706 32.6608L21.7229 32.6692L21.7397 32.6776L21.7481 32.686H21.7649L21.7817 32.6944L21.7985 32.7028ZM25.648 32.9046H27.6905V30.9041H25.648V32.9046ZM28.4049 32.9046H35.5745V30.9041H28.4049V32.9046Z" fill="#ED1C60"/>
<path d="M62.1935 31.8033C62.7399 32.3496 63.3955 32.6186 64.1519 32.6186H77.0033V30.3828H64.7991C64.5722 30.3828 64.3873 30.3744 64.2528 30.3576C64.0342 30.3408 63.883 30.282 63.7905 30.1895C63.698 30.0886 63.6392 29.9374 63.614 29.7272C63.5972 29.5843 63.5888 29.4078 63.5888 29.1809V20.3892C63.5888 20.1622 63.5972 19.9857 63.614 19.8428C63.6392 19.6327 63.698 19.4814 63.7905 19.3806C63.883 19.2881 64.0342 19.2293 64.2528 19.2041C64.3873 19.1956 64.5722 19.1872 64.7991 19.1872H77.0033V16.9431H64.1519C63.7737 16.9431 63.4207 17.0103 63.0929 17.1448C62.7735 17.2877 62.4709 17.4894 62.1935 17.7668C61.9162 18.0441 61.7144 18.3383 61.58 18.6661C61.4455 18.9855 61.3782 19.3385 61.3782 19.7252V29.8449C61.3782 30.2231 61.4455 30.5761 61.58 30.9039C61.7144 31.2233 61.9162 31.5259 62.1935 31.8033ZM80.9369 19.7252V32.6186H83.1558V27.0796H94.3766V32.6186H96.6124V19.7252C96.6124 19.3385 96.5452 18.9855 96.4107 18.6661C96.2762 18.3383 96.0745 18.0441 95.7971 17.7668C95.2508 17.2204 94.5868 16.9431 93.8135 16.9431H83.719C82.9625 16.9431 82.3069 17.2204 81.7606 17.7668C81.4832 18.0441 81.2815 18.3383 81.1386 18.6661C81.0041 18.9855 80.9369 19.3385 80.9369 19.7252ZM93.9732 24.8691H83.1558V20.3892C83.1558 20.1622 83.1642 19.9857 83.1811 19.8428C83.1979 19.6327 83.2567 19.4814 83.3492 19.3806H83.3576C83.45 19.2881 83.6013 19.2293 83.8114 19.2041C83.9543 19.1956 84.1308 19.1872 84.3578 19.1872H93.1747C93.3932 19.1872 93.5697 19.1956 93.7042 19.2041C93.906 19.2293 94.0488 19.2797 94.1497 19.3637C94.2506 19.4562 94.3178 19.6159 94.3514 19.8344C94.3682 19.9857 94.3766 20.1622 94.3766 20.3892V24.8691H93.9732ZM100.756 16.9263V32.6186H116.432V30.3828H102.967V16.9263H100.756ZM119.289 16.9263V32.6186H134.965V30.3828H121.5V16.9263H119.289Z" fill="#01BACC"/>
<path d="M137.798 16.9434V32.6189H140.017V19.8599L146.69 27.7523L153.339 19.8347V32.6189H155.583V16.9434H152.826L146.69 24.2894L140.529 16.9434H137.798ZM159.785 16.9434V32.6189H174.158V30.3831H162.03V25.9116H171.779V23.6506H162.03V19.1875H174.158V16.9434H159.785ZM178.024 16.9434V32.6189H190.901C191.674 32.6189 192.33 32.3499 192.885 31.8036C193.154 31.5262 193.364 31.2236 193.498 30.9042C193.633 30.5764 193.7 30.2234 193.7 29.8452V19.7254C193.7 19.3388 193.633 18.9858 193.498 18.6664C193.364 18.3386 193.154 18.0444 192.885 17.7671C192.33 17.2207 191.674 16.9434 190.901 16.9434H178.024ZM190.262 30.3831H181.445C181.218 30.3831 181.042 30.3747 180.899 30.3579C180.689 30.3327 180.529 30.2822 180.437 30.1898C180.344 30.0889 180.285 29.9376 180.26 29.7275C180.252 29.5846 180.243 29.3997 180.243 29.1812V20.3894C180.243 20.1625 180.252 19.986 180.26 19.8431C180.285 19.633 180.344 19.4817 180.437 19.3808C180.538 19.2884 180.689 19.2295 180.899 19.2043C181.042 19.1959 181.218 19.1875 181.445 19.1875H190.262C190.472 19.1875 190.649 19.1959 190.792 19.2043C190.994 19.2295 191.136 19.28 191.229 19.364C191.389 19.4985 191.464 19.8431 191.464 20.3894V29.1812C191.464 29.3997 191.456 29.5846 191.439 29.7275C191.405 29.9544 191.338 30.1057 191.229 30.2066C191.136 30.2822 190.994 30.3411 190.792 30.3579C190.649 30.3747 190.472 30.3831 190.262 30.3831ZM197.684 16.9434V32.6189H199.869V16.9434H197.684ZM204.19 31.8036C204.736 32.3499 205.391 32.6189 206.148 32.6189H218.999V30.3831H206.795C206.568 30.3831 206.383 30.3747 206.249 30.3579C206.03 30.3411 205.879 30.2822 205.786 30.1898V30.1814C205.652 30.0553 205.585 29.7191 205.585 29.1812V20.3894C205.585 20.1625 205.593 19.986 205.61 19.8431C205.635 19.633 205.694 19.4733 205.786 19.3808C205.879 19.2884 206.03 19.2295 206.249 19.2043C206.383 19.1959 206.568 19.1875 206.795 19.1875H218.999V16.9434H206.148C205.391 16.9434 204.736 17.2207 204.19 17.7671C203.912 18.0444 203.71 18.3386 203.576 18.6664C203.441 18.9858 203.374 19.3388 203.374 19.7254V29.8452C203.374 30.2234 203.441 30.5764 203.576 30.9042C203.71 31.2236 203.912 31.5262 204.19 31.8036ZM222.84 30.4335V32.6189H225.034V30.4335H222.84ZM228.766 16.9686V32.6189H230.977V26.9959L236.969 26.9706L241.71 32.6189H244.416V32.3247L239.878 26.9706H241.634C242.029 26.9706 242.391 26.9034 242.718 26.7689C243.046 26.626 243.34 26.4243 243.618 26.1469C243.895 25.8696 244.097 25.5754 244.24 25.2476C244.374 24.9282 244.442 24.5752 244.442 24.1886V19.7507C244.442 19.3724 244.374 19.0278 244.24 18.7084C244.105 18.3806 243.895 18.078 243.618 17.8007C243.34 17.5233 243.038 17.3132 242.71 17.1787C242.382 17.0358 242.029 16.9686 241.634 16.9686H228.766ZM240.995 24.7265H232.187C231.968 24.7265 231.783 24.7265 231.641 24.7097C231.439 24.6929 231.288 24.6424 231.203 24.5668C231.094 24.4743 231.027 24.3146 231.002 24.0877C230.985 23.9532 230.977 23.7767 230.977 23.5498V20.3894C230.977 20.1625 230.985 19.986 231.002 19.8431C231.027 19.633 231.086 19.4733 231.178 19.3808C231.271 19.2884 231.422 19.2295 231.641 19.2043C231.775 19.1959 231.96 19.1875 232.187 19.1875H240.995C241.214 19.1875 241.39 19.1959 241.525 19.2043C241.735 19.2295 241.886 19.2884 241.979 19.3808C242.071 19.4733 242.13 19.633 242.155 19.8431C242.172 19.986 242.181 20.1625 242.181 20.3894V23.5498C242.181 23.7767 242.172 23.9532 242.155 24.0877C242.13 24.3146 242.063 24.4743 241.954 24.5668C241.828 24.676 241.508 24.7265 240.995 24.7265ZM249.148 31.8036C249.695 32.3499 250.35 32.6189 251.107 32.6189H261.226C261.605 32.6189 261.958 32.5516 262.286 32.4171C262.605 32.2827 262.908 32.0809 263.185 31.8036C263.462 31.5262 263.664 31.2236 263.798 30.9042C263.933 30.5764 264 30.2234 264 29.8452V16.9434H261.764V29.1812C261.764 29.3997 261.756 29.5846 261.739 29.7275C261.706 29.9544 261.638 30.1057 261.537 30.2066C261.437 30.2822 261.294 30.3411 261.092 30.3579C260.958 30.3747 260.781 30.3831 260.562 30.3831H251.746C251.519 30.3831 251.342 30.3747 251.199 30.3579C250.989 30.3327 250.838 30.2822 250.737 30.1898C250.611 30.0553 250.544 29.7191 250.544 29.1812V16.9434H248.325V29.8452C248.325 30.2234 248.392 30.5764 248.526 30.9042C248.669 31.2236 248.871 31.5262 249.148 31.8036Z" fill="#ED1C60"/>
<path d="M63.9502 37.7793V39.3511H61.7481V37.7793H61.3782V41.3011H61.7481V39.6789H63.9502V41.3011H64.32V37.7793H63.9502ZM76.0956 41.3011H76.4906L74.8768 37.7793H74.5154L72.9016 41.3011H73.2883L73.7085 40.3597H75.6753L76.0956 41.3011ZM73.8514 40.0571L74.6919 38.166L75.5408 40.0571H73.8514ZM86.5431 37.5188C87.0474 37.5188 87.3584 37.2834 87.3668 36.8716H87.0894C87.081 37.1405 86.8625 37.3086 86.5431 37.3086C86.2237 37.3086 86.0052 37.1405 86.0052 36.8716H85.7278C85.7278 37.2834 86.0472 37.5188 86.5431 37.5188ZM85.0806 41.3011H85.4168L87.6694 38.3845V41.3011H88.0392V37.7793H87.703L85.442 40.6959V37.7793H85.0806V41.3011ZM99.7895 40.9817V37.7793H97.4109L97.3689 38.9224C97.3352 40.0403 97.226 40.9481 96.7301 40.9817H96.5536L96.5452 42.0911H96.8898L96.8982 41.3011H99.966V42.0911H100.319V40.9817H99.7895ZM97.7051 38.956L97.7387 38.0987H99.4197V40.9817H97.2512C97.5874 40.7211 97.6714 39.8722 97.7051 38.956ZM108.993 41.3011H109.329L111.582 38.3845V41.3011H111.952V37.7793H111.615L109.355 40.6959V37.7793H108.993V41.3011ZM130.502 41.3347C131.023 41.3347 131.485 41.1582 131.796 40.8136L131.561 40.5782C131.275 40.8724 130.922 40.9985 130.519 40.9985C129.661 40.9985 129.022 40.3765 129.022 39.536C129.022 38.7039 129.661 38.0819 130.519 38.0819C130.922 38.0819 131.275 38.208 131.561 38.4938L131.796 38.2584C131.485 37.9222 131.023 37.7457 130.502 37.7457C129.443 37.7457 128.661 38.5106 128.661 39.536C128.661 40.5698 129.443 41.3347 130.502 41.3347ZM142.563 39.4856C142.916 39.3511 143.143 39.0905 143.143 38.6787C143.143 38.0903 142.681 37.7793 141.941 37.7793H140.479V41.3011H142.034C142.891 41.3011 143.311 40.9565 143.311 40.3513C143.311 39.8806 143.059 39.5864 142.563 39.4856ZM140.84 38.0735H141.924C142.462 38.0735 142.765 38.3004 142.765 38.7207C142.765 39.1494 142.462 39.3763 141.924 39.3763H140.84V38.0735ZM142.034 41.0069H140.84V39.6621H142.034C142.63 39.6621 142.95 39.8638 142.95 40.3261C142.95 40.7884 142.63 41.0069 142.034 41.0069ZM153.7 41.3347C154.759 41.3347 155.549 40.5698 155.549 39.536C155.549 38.5106 154.759 37.7457 153.7 37.7457C152.641 37.7457 151.851 38.5106 151.851 39.536C151.851 40.5698 152.641 41.3347 153.7 41.3347ZM153.7 40.9985C152.851 40.9985 152.221 40.3765 152.221 39.536C152.221 38.6955 152.851 38.0819 153.7 38.0819C154.549 38.0819 155.179 38.6955 155.179 39.536C155.179 40.3765 154.549 40.9985 153.7 40.9985ZM164.727 40.9817V39.6705H166.551V39.3511H164.727V38.0987H166.77V37.7793H164.357V41.3011H166.845V40.9817H164.727ZM177.822 37.7793H175.587V41.3011H175.948L175.94 38.0987H177.822V37.7793ZM187.438 41.3347C188.497 41.3347 189.287 40.5698 189.287 39.536C189.287 38.5106 188.497 37.7457 187.438 37.7457C186.37 37.7457 185.589 38.5106 185.589 39.536C185.589 40.5698 186.37 41.3347 187.438 41.3347ZM187.438 40.9985C186.589 40.9985 185.959 40.3765 185.959 39.536C185.959 38.6955 186.589 38.0819 187.438 38.0819C188.287 38.0819 188.917 38.6955 188.917 39.536C188.917 40.3765 188.287 40.9985 187.438 40.9985ZM208.089 39.4856C208.442 39.3511 208.669 39.0905 208.669 38.6787C208.669 38.0903 208.207 37.7793 207.467 37.7793H206.005V41.3011H207.56C208.417 41.3011 208.846 40.9565 208.846 40.3513C208.846 39.8806 208.585 39.5864 208.089 39.4856ZM206.375 38.0735H207.45C207.988 38.0735 208.291 38.3004 208.291 38.7207C208.291 39.1494 207.988 39.3763 207.45 39.3763H206.375V38.0735ZM207.56 41.0069H206.375V39.6621H207.56C208.156 39.6621 208.476 39.8638 208.476 40.3261C208.476 40.7884 208.156 41.0069 207.56 41.0069ZM219.007 37.7793H217.688V41.3011H218.058V40.1916H219.007C219.898 40.1916 220.445 39.7377 220.445 38.9897C220.445 38.2332 219.898 37.7793 219.007 37.7793ZM218.991 39.8638H218.058V38.0987H218.991C219.697 38.0987 220.066 38.4181 220.066 38.9897C220.066 39.536 219.697 39.8638 218.991 39.8638ZM231.623 41.3011H232.018L230.405 37.7793H230.035L228.43 41.3011H228.816L229.236 40.3597H231.195L231.623 41.3011ZM229.371 40.0571L230.22 38.166L231.06 40.0571H229.371ZM242.5 37.7793V39.5108C242.138 39.6789 241.76 39.7629 241.424 39.7629C240.81 39.7629 240.449 39.4519 240.449 38.8972V37.7793H240.079V38.9392C240.079 39.6621 240.558 40.0907 241.39 40.0907C241.726 40.0907 242.113 40.0067 242.5 39.8386V41.3011H242.861V37.7793H242.5ZM254.645 41.3011H255.04L253.426 37.7793H253.056L251.451 41.3011H251.838L252.258 40.3597H254.225L254.645 41.3011ZM252.392 40.0571L253.241 38.166L254.082 40.0571H252.392ZM263.546 40.242H263.823L263.899 37.7793H263.47L263.546 40.242ZM263.68 41.3263C263.832 41.3263 263.941 41.2086 263.941 41.0657C263.941 40.9228 263.832 40.8052 263.68 40.8052C263.529 40.8052 263.42 40.9228 263.42 41.0657C263.42 41.2086 263.529 41.3263 263.68 41.3263Z" fill="#666666"/>
</svg>
