<svg width="22" height="19" viewBox="0 0 22 19" fill="none" xmlns="http://www.w3.org/2000/svg">
<path d="M11.4158 1.26358L13.735 6.24351C13.8017 6.38675 13.9388 6.48537 14.0969 6.50394L19.5954 7.14965C19.9835 7.19522 20.1393 7.67026 19.8524 7.93304L15.7872 11.6565C15.6703 11.7637 15.618 11.9232 15.6489 12.0779L16.7281 17.4569C16.8042 17.8365 16.3963 18.1301 16.0553 17.941L11.2236 15.2624C11.0847 15.1853 10.9153 15.1853 10.7763 15.2624L5.94472 17.941C5.60375 18.1301 5.19576 17.8365 5.27191 17.4569L6.35102 12.0779C6.38205 11.9232 6.32971 11.7637 6.21278 11.6565L2.14757 7.93304C1.86068 7.67026 2.01652 7.19522 2.40457 7.14965L7.9031 6.50394C8.06125 6.48537 8.1983 6.38675 8.265 6.24351L10.5842 1.26358C10.7478 0.91214 11.2522 0.91214 11.4158 1.26358Z" stroke="#FFD600" stroke-width="2" stroke-linecap="round" stroke-linejoin="round"/>
</svg>
