<svg width="22" height="19" viewBox="0 0 22 19" fill="none" xmlns="http://www.w3.org/2000/svg">
<path d="M13.735 6.24351L11.4158 1.26359C11.2522 0.912138 10.7478 0.912138 10.5842 1.26359L8.265 6.24351C8.1983 6.38675 8.06125 6.48537 7.9031 6.50394L2.40457 7.14965C2.01652 7.19522 1.86068 7.67026 2.14757 7.93304L6.21278 11.6565C6.32971 11.7637 6.38206 11.9232 6.35102 12.0779L5.2719 17.4569C5.19575 17.8365 5.60375 18.1301 5.94473 17.941L10.7763 15.2624C10.9153 15.1854 11.0847 15.1854 11.2237 15.2624L16.0553 17.941C16.3963 18.1301 16.8043 17.8365 16.7281 17.4569L15.649 12.0779C15.618 11.9232 15.6703 11.7637 15.7872 11.6565L19.8524 7.93304C20.1393 7.67026 19.9835 7.19522 19.5954 7.14965L14.0969 6.50394C13.9387 6.48537 13.8017 6.38675 13.735 6.24351Z" fill="url(#paint0_linear_37_27)" stroke="#FFD600" stroke-width="2" stroke-linecap="round" stroke-linejoin="round"/>
<defs>
<linearGradient id="paint0_linear_37_27" x1="1.38377" y1="9.44211" x2="11.0002" y2="9.44211" gradientUnits="userSpaceOnUse">
<stop stop-color="#FFD600"/>
<stop offset="0.9999" stop-color="#FFD600"/>
<stop offset="1" stop-color="#FFD600" stop-opacity="0"/>
<stop offset="1" stop-color="#FFD600" stop-opacity="0"/>
</linearGradient>
</defs>
</svg>
