<svg width="144" height="144" viewBox="0 0 144 144" fill="none" xmlns="http://www.w3.org/2000/svg">
<g clip-path="url(#clip0_602_1769)">
<path d="M57.1889 61.3176L50.001 93.7694L45.6587 93.7556L46.7124 99.7905L54.66 103.45L54.6855 110.96L59.76 114.207L59.813 129.815L85.3679 129.615L85.4256 114.364L89.7628 111.712L89.7386 104.589L97.8545 101.293L99.3425 93.8465L94.6093 93.8314L88.0854 61.6195L57.1889 61.3176Z" fill="#414141"/>
<g filter="url(#filter0_bd_602_1769)">
<path d="M46.6939 13.0497C50.7963 12.7304 55.6892 13.9142 61.4066 17.6116C61.9345 17.9531 62.3665 18.4294 62.8755 18.7985L66.6397 21.5316C66.863 21.7172 67.0986 21.8878 67.345 22.0422L70.7165 24.4475L76.346 20.6099C76.9766 20.1827 77.7893 19.6592 78.7579 19.0876C81.3324 17.5588 84.8463 15.7732 88.7633 14.572C96.5453 12.1922 104.789 12.3079 111.498 19.9964C115.548 24.634 117.235 29.1206 117.671 33.5205C119.419 63.0531 113.788 77.9072 110.465 85.4873C109.097 88.6071 106.961 91.3115 103.659 92.1481C90.1065 95.5817 53.0666 98.3136 40.0475 90.2589C24.6518 80.7338 24.9343 29.6827 30.4409 23.0732C35.9474 16.4637 41.4247 13.4576 46.6939 13.0497Z" fill="url(#paint0_linear_602_1769)" shape-rendering="crispEdges"/>
<path d="M46.7325 13.5482L46.7327 13.5482C50.7014 13.2393 55.4867 14.3787 61.1351 18.0315L61.4066 17.6116L61.1351 18.0315C61.3655 18.1805 61.5814 18.3632 61.8189 18.571C61.845 18.5938 61.8715 18.6171 61.8983 18.6406C62.1069 18.8238 62.3359 19.0249 62.5819 19.2033L66.3329 21.9267C66.5656 22.1193 66.8107 22.2967 67.0666 22.4578L70.4261 24.8546L70.71 25.0571L70.9982 24.8607L76.6264 21.0238C76.6265 21.0238 76.6266 21.0237 76.6267 21.0236C77.2493 20.6019 78.0531 20.0841 79.0121 19.5182L79.0132 19.5175C81.5656 18.0019 85.0422 16.2361 88.9095 15.0502C92.7554 13.8741 96.6772 13.327 100.445 14.0008C104.201 14.6725 107.839 16.5635 111.121 20.3252L111.121 20.3253C115.102 24.8828 116.746 29.269 117.172 33.56C118.914 62.9985 113.302 77.7714 110.007 85.2865C108.667 88.3445 106.621 90.8818 103.536 91.6634C96.8102 93.3675 84.2042 94.9065 71.6491 95.0116C65.3749 95.0642 59.1285 94.7584 53.6472 93.9405C48.1547 93.1209 43.4787 91.7938 40.3105 89.8337C36.6168 87.5484 33.7949 82.7158 31.7519 76.5157C29.7161 70.3375 28.4852 62.8992 27.9043 55.5334C27.3236 48.1698 27.3943 40.9002 27.9515 35.0674C28.2302 32.1503 28.6297 29.6025 29.1267 27.5867C29.6289 25.5494 30.2146 24.1259 30.825 23.3932C36.2767 16.8495 41.6401 13.9424 46.7325 13.5482Z" stroke="url(#paint1_linear_602_1769)" shape-rendering="crispEdges"/>
</g>
</g>
<defs>
<filter id="filter0_bd_602_1769" x="-3" y="-7" width="151" height="142.518" filterUnits="userSpaceOnUse" color-interpolation-filters="sRGB">
<feFlood flood-opacity="0" result="BackgroundImageFix"/>
<feGaussianBlur in="BackgroundImageFix" stdDeviation="2"/>
<feComposite in2="SourceAlpha" operator="in" result="effect1_backgroundBlur_602_1769"/>
<feColorMatrix in="SourceAlpha" type="matrix" values="0 0 0 0 0 0 0 0 0 0 0 0 0 0 0 0 0 0 127 0" result="hardAlpha"/>
<feOffset dy="10"/>
<feGaussianBlur stdDeviation="15"/>
<feComposite in2="hardAlpha" operator="out"/>
<feColorMatrix type="matrix" values="0 0 0 0 0 0 0 0 0 0 0 0 0 0 0 0 0 0 0.3 0"/>
<feBlend mode="normal" in2="effect1_backgroundBlur_602_1769" result="effect2_dropShadow_602_1769"/>
<feBlend mode="normal" in="SourceGraphic" in2="effect2_dropShadow_602_1769" result="shape"/>
</filter>
<linearGradient id="paint0_linear_602_1769" x1="29.4717" y1="6.8065" x2="75.5828" y2="123.884" gradientUnits="userSpaceOnUse">
<stop stop-color="white" stop-opacity="0.7"/>
<stop offset="1" stop-color="white" stop-opacity="0"/>
</linearGradient>
<linearGradient id="paint1_linear_602_1769" x1="33.693" y1="8.35488" x2="82.3112" y2="123.765" gradientUnits="userSpaceOnUse">
<stop stop-color="#F4F4F4"/>
<stop offset="1" stop-color="#7D7D7D"/>
</linearGradient>
<clipPath id="clip0_602_1769">
<rect width="144" height="144" fill="white"/>
</clipPath>
</defs>
</svg>
