<svg width="184" height="131" viewBox="0 0 184 131" fill="none" xmlns="http://www.w3.org/2000/svg"><path d="M61.333 62.025H16.177c1.425-8.53 4.813-16.698 9.948-23.984C31.26 30.755 38.029 24.51 46 19.71l13.723-8.27L51.29 0 37.567 8.27C26.015 15.19 16.542 24.566 9.989 35.566 3.436 46.566.005 58.85 0 71.329v45.829c0 3.656 1.615 7.162 4.491 9.747 2.876 2.585 6.776 4.037 10.842 4.037h46c4.067 0 7.967-1.452 10.843-4.037 2.875-2.585 4.49-6.091 4.49-9.747v-41.35c0-3.655-1.615-7.161-4.49-9.746-2.876-2.585-6.776-4.037-10.843-4.037zm107.334 0H123.51c1.425-8.53 4.813-16.698 9.948-23.984 5.135-7.286 11.904-13.53 19.875-18.33l13.724-8.27L158.7 0l-13.8 8.27c-11.552 6.92-21.024 16.296-27.578 27.296-6.553 11-9.984 23.284-9.989 35.763v45.829c0 3.656 1.616 7.162 4.491 9.747 2.876 2.585 6.776 4.037 10.843 4.037h46c4.066 0 7.966-1.452 10.842-4.037 2.876-2.585 4.491-6.091 4.491-9.747v-41.35c0-3.655-1.615-7.161-4.491-9.746-2.876-2.585-6.776-4.037-10.842-4.037z" fill="#363434" fill-opacity=".1"/></svg>