<svg width="177" height="42" viewBox="0 0 177 42" fill="none" xmlns="http://www.w3.org/2000/svg">
<g clip-path="url(#clip0_1_130)">
<path d="M167.05 13.7456H161.979V27.9683H167.05V20.6183C167.05 18.8047 167.624 17.2774 169.633 17.2774C172.121 17.2774 171.929 19.6638 171.929 21.0001V27.8729H177V19.091C177 15.6547 175.469 13.1729 171.642 13.1729C169.633 13.1729 168.198 13.7456 167.05 15.4638V13.7456Z" fill="#36393A"/>
<path d="M149.732 13.7456H144.662V27.9683H149.732V20.6183C149.732 18.8047 150.306 17.2774 152.411 17.2774C154.899 17.2774 154.708 19.6638 154.708 21.0001V27.8729H159.778V19.091C159.778 15.6547 158.248 13.1729 154.421 13.1729C152.411 13.1729 150.976 13.7456 149.828 15.4638H149.732V13.7456Z" fill="#36393A"/>
<path d="M142.652 13.7456H137.582V15.0819C136.529 13.841 134.807 13.2683 133.181 13.2683C128.971 13.2683 126.005 16.7047 126.005 20.8092C126.005 24.9138 128.971 28.4456 133.181 28.4456C134.807 28.4456 136.529 27.7774 137.486 26.3456H137.582V27.8729H142.652V13.7456ZM134.616 17.6592C136.625 17.6592 137.869 19.091 137.869 20.8092C137.869 22.6229 136.625 24.0547 134.616 24.0547C132.511 24.0547 131.363 22.7183 131.363 20.8092C131.363 19.091 132.606 17.6592 134.616 17.6592Z" fill="#36393A"/>
<path d="M105.913 13.7456H100.842V27.9683H105.913V21.191C105.913 19.6638 105.913 17.182 108.114 17.182C110.41 17.182 110.41 19.6638 110.41 21.191V27.9683H115.481V21.191C115.481 19.5683 115.576 17.2774 117.968 17.2774C120.073 17.2774 120.073 19.7592 120.073 21.191V27.9683H125.144V18.9956C125.144 15.6547 123.9 13.3638 120.264 13.3638C118.351 13.3638 116.437 14.3183 115.481 16.132C114.428 14.2229 112.706 13.3638 110.601 13.3638C108.783 13.3638 107.252 14.032 106.104 15.5592H106.009V13.7456H105.913Z" fill="#36393A"/>
<path d="M83.7162 13.7456V22.3365C83.7162 27.0138 87.0649 28.5411 91.3703 28.5411C95.6757 28.5411 99.0243 27.0138 99.0243 22.3365V13.7456H93.9535V21.382C93.9535 23.1956 93.4751 24.4365 91.4659 24.4365C89.3611 24.4365 88.9784 23.1956 88.9784 21.382V13.7456H83.7162Z" fill="#36393A"/>
<path d="M81.42 13.7456H76.3492V15.0819C75.2968 13.841 73.5746 13.2683 71.9481 13.2683C67.7384 13.2683 64.7724 16.7047 64.7724 20.8092C64.7724 24.9138 67.7384 28.4456 71.9481 28.4456C73.5746 28.4456 75.2968 27.7774 76.2535 26.3456H76.3492V27.8729H81.42V13.7456ZM73.2876 17.6592C75.3924 17.6592 76.5405 19.091 76.5405 20.8092C76.5405 22.6229 75.2968 24.0547 73.2876 24.0547C71.2784 24.0547 70.0346 22.7183 70.0346 20.8092C70.0346 19.091 71.2784 17.6592 73.2876 17.6592Z" fill="#36393A"/>
<path d="M59.4146 13.7456H54.3438V27.9683H59.4146V22.2411C59.4146 19.7592 60.0843 17.9456 62.8589 17.9456C63.6243 17.9456 64.3897 18.0411 65.0595 18.4229V13.5547H64.1027C62.0935 13.5547 60.467 14.3183 59.5103 16.0365H59.4146V13.7456Z" fill="#36393A"/>
<path d="M51.1865 17.9454H54.0568V13.7454H51.1865V9.44995H46.2114V13.7454H44.4892V17.9454H46.2114V27.9681H51.1865V17.9454Z" fill="#36393A"/>
<path d="M43.6281 14.2229C42.0973 13.5547 40.5665 13.2683 38.94 13.2683C35.7827 13.2683 32.6254 14.7956 32.6254 18.3274C32.6254 20.9047 34.2519 21.6683 35.7827 22.1456C37.4092 22.5274 38.94 22.6229 38.94 23.7683C38.94 24.5319 37.9832 24.8183 37.3135 24.8183C36.0697 24.8183 34.3476 24.0547 33.2951 23.291L31.4773 26.8229C33.1995 27.8729 35.2087 28.4456 37.2178 28.4456C40.5665 28.4456 43.9151 26.9183 43.9151 23.1001C43.9151 20.5229 42.0973 19.3774 39.8011 18.9001C39.1314 18.8047 37.5049 18.6138 37.5049 17.6592C37.5049 16.991 38.5573 16.7047 39.1314 16.7047C39.9924 16.7047 41.0449 16.991 41.8103 17.3729L43.6281 14.2229Z" fill="#36393A"/>
<path d="M27.5546 1.43188C20.1876 6.30007 12.8205 11.2637 5.45351 16.1319C2.20054 18.6137 2.29622 22.4319 4.49676 25.5819L27.4589 10.2137L27.5546 1.43188Z" fill="#36393A"/>
<path d="M0.382706 39.6136C7.74973 34.7454 15.1168 29.7818 22.4838 24.9136C25.7368 22.4318 25.6411 18.6136 23.4405 15.4636L0.478381 30.8318L0.382706 39.6136Z" fill="#36393A"/>
</g>
<defs>
<clipPath id="clip0_1_130">
<rect width="177" height="42" fill="white"/>
</clipPath>
</defs>
</svg>
