<svg width="499" height="169" viewBox="0 0 499 169" fill="none" xmlns="http://www.w3.org/2000/svg"><path d="M2.823 88.711c-.926.847-1.135 2.055-.466 3.355.348.63.556 1.044.697 1.261.14.218.242.615.383 1.246.136.598.179 1.866.134 3.84-.045 1.973.112 4.119.414 6.516.298 2.364.733 4.324 1.24 5.894.508 1.569 1.025 2.378 1.489 2.472.464.093.6-.93.388-2.997-.179-2.074-.329-3.772-.416-5.103a156.808 156.808 0 01-.123-3.979c.013-1.347.082-2.773.24-4.282.344-3.059.648-4.11.765-4.44.072-.185 1.116-.535 3.2-1.06 2.077-.56 4.301-.867 6.671-.924 2.37-.057 3.532-.323 3.525-.77-.012-.48-1.059-.958-3.167-1.394-2.109-.436-4.446-.592-7.072-.422-2.594.163-4.047.134-4.355-.055-.308-.19-.766-.25-1.342-.187-.575.063-.944.126-1.162.266-.223.107-.558.37-1.043.763zm16.78 4.984c-.61.069-1.413.412-2.424.963-.976.545-1.735 1.156-2.214 1.789a7.93 7.93 0 00-1.106 2.015c-.261.7-.404 1.689-.383 3.031.054 1.336.443 2.614 1.167 3.837 2.319 3.71 4.79 4.05 7.025 3.602.799-.169 1.597-.546 2.35-1.191.753-.645 1.316-1.189 1.65-1.659.362-.51.651-1.042.862-1.629.21-.588.345-.61.408-.035.057.542.176 1.039.429 1.514.46.887.966 1.629 2.397 1.939 1.46.269 1.748-.676.578-1.271-.57-.317-1.008-.657-1.283-1.058-.51-.776-.71-1.949-.663-3.302.041-1.386-.058-2.783.221-5.003.154-1.13.09-1.912-.157-2.353-.247-.441-.684-.574-1.281-.438-.564.13-.96.438-1.177.992-.183.549-.277 1.013-.248 1.387.03.375.07 1.023.09 1.95.019.929-.04 1.801-.19 2.55-.258 1.527-.792 2.445-1.879 3.56-1.65 1.659-3.75 2.291-5.52.798-1.171-1.008-1.981-2.94-1.912-4.366.124-1.504 1.149-2.781 2.27-3.488 1.156-.713 2.055-1.107 3.436-.893 1.186.489 1.886.75 2.104.816l.179.039c.537.115.91-.12 1.048-.73l.017-.106c.066-.218.094-.464.076-.772-.21-1.447-.906-2.295-2.053-2.549l-.319-.049c-1.04-.237-2.208-.212-3.498.11zm11.083 3.122c.333 1.358.535 3.565.66 6.544.126 2.979.132 5.047-.044 6.249-.17 1.236-.35 2.404-.61 3.517-.542 2.299-1.19 4.788-1.424 6.863-.302 2.086.203 2.621.923 2.188.34-.23.73-.985 1.162-2.3.898-2.635 1.435-4.554 1.794-6.304.358-1.751.809-4.586 1.123-8.226.168-1.856.505-3.327.966-4.474.494-1.153 1.251-2.178 2.233-3.103.98-.925 1.862-1.626 2.649-2.07 2.232-1.481 3.143.64 2.668 2.72-.348 1.405-1.204 3.274-2.702 5.218-.763.991-1.75 1.882-2.955 2.707-1.21.792-1.41 1.24-.64 1.316.778.109 1.694-.184 2.76-.813 2.17-1.23 3.77-3.191 4.91-5.212 1.718-3.084 2.056-4.555 1.742-6.812-.2-1.38-.493-2.296-1.662-2.684-1.684-.577-3.732.563-6.414 3.052-.859.835-1.622 1.62-2.358 2.366-.736.745-1.094.668-1.074-.232.006-1.794-.08-2.711-.992-3.212-.46-.267-1.108-.226-1.979.129-.843.315-1.075 1.182-.736 2.573zm21.718-8.681c-.609.069-1.413.412-2.423.962-.976.545-1.735 1.156-2.214 1.79a7.934 7.934 0 00-1.107 2.015c-.26.699-.403 1.689-.383 3.03.054 1.336.444 2.615 1.168 3.837 2.319 3.711 4.79 4.051 7.025 3.603.799-.17 1.597-.547 2.35-1.192.752-.644 1.316-1.188 1.65-1.659a6.676 6.676 0 00.862-1.629c.21-.587.344-.61.407-.034.058.542.177 1.039.43 1.513.46.888.965 1.63 2.397 1.939 1.46.27 1.748-.676.578-1.27-.571-.317-1.008-.657-1.283-1.059-.51-.775-.71-1.949-.663-3.302.04-1.386-.058-2.783.221-5.003.153-1.13.09-1.912-.157-2.353-.248-.44-.684-.573-1.282-.438-.564.13-.96.439-1.176.993-.183.548-.277 1.012-.248 1.387.029.374.07 1.022.09 1.95.018.928-.04 1.8-.19 2.55-.258 1.526-.792 2.444-1.879 3.56-1.65 1.659-3.75 2.291-5.52.797-1.171-1.008-1.981-2.94-1.913-4.365.125-1.504 1.15-2.781 2.271-3.489 1.155-.713 2.054-1.107 3.435-.892 1.187.488 1.886.749 2.104.815l.18.04c.536.115.91-.12 1.048-.73l.017-.107c.066-.218.093-.464.076-.771-.211-1.447-.906-2.295-2.053-2.55l-.319-.049c-1.04-.237-2.208-.211-3.498.11zm10.932-1.025c-.248.973-.381 1.41-.422 2.795-.013 1.348-.054 2.94.147 4.734.114.878.34 1.805.745 2.77.4.933.737 1.704 1.035 2.24.331.53.735 1.082 1.245 1.651 1.01 1.07 1.641 1.135 1.118-.121-.276-.608-.551-1.217-.849-1.753-.568-1.11-.835-2.893-.731-3.704.072-.391.535-.711 1.395-.926.893-.22 1.491-.356 1.793-.407l1.184-.339a4.114 4.114 0 001.334-.674c.396-.309.658-.594.73-.78.106-.19.168-.027.158.526.024.548.093 1.157.245 1.855.605 2.14 1.297 3.78 2.12 4.779.68.747 1.389.661.742-.712-.32-.67-.59-1.452-.8-2.279-.454-2.681-.77-3.524-.436-6.236l.325-1.745.349-1.197c.15-.543.254-.94.248-1.18.028-.246-.03-.582-.137-1.012-.107-.43-.426-.686-.958-.768-.497-.088-.967-.009-1.368.266-.843.522-1.097 1.669-1.195 4.548-.035 1.42-.229 2.314-.613 2.69-.351.37-.697.566-1 .618-.306.017-.815.069-1.536.088a12.3 12.3 0 01-1.632-.069c-.744-.115-1.22-.483-1.09-2.16.092-.877.246-1.593.53-2.159.79-1.65.939-2.194.25-2.8-.706-.502-2.46-.067-2.925 1.46zm14.233-2.275c-1.146-.047-1.928.223-2.312.806-.35.577-.5 1.12-.442 1.661.142 1.045.517 1.223 2.826 1.21 2.308-.011 3.392-.126 3.544.159.062.162.108.43.148.871.108.844.278 3.678.74 7.013.245 1.649.512 3.017.8 4.106.288 1.09.557 1.665.798 1.658.24-.006.366-1.096.332-3.332-.034-2.236-.061-3.817-.035-4.684.02-.9.028-1.867.098-2.879.064-1.045.146-1.783.217-2.175.1-.43.16-.682.21-.794.084-.118.615-.242 1.66-.385a43.328 43.328 0 013.05-.31c.99-.064 1.51-.256 1.525-.569.05-.318-.348-.63-1.115-.88-.766-.25-1.834-.447-3.204-.595-1.37-.147-2.159-.323-2.355-.463-.201-.172-.526-.255-.973-.249-.413.002-.715.053-.877.115-.162.062-.682.046-1.56-.046a42.534 42.534 0 00-3.075-.238zm14.838-.997c-.447.213-.848.695-1.237 1.45-.356.75-.424 2.383-.199 4.931.253 2.51.588 4.28 1.071 5.302.478.988 1.123 1.74 1.99 2.18.874.473 1.635.689 2.222.692.587.004 1.077-.355 1.467-1.11.389-.756.667-1.355.805-1.758.3-.878.654-2.042 1.068-3.87.222-.935.333-1.091.34-.437l.05 2.129c.031.788.385 1.66 1.037 2.652.645.96 1.49 1.472 2.536 1.536 1.079.058 2.023-.274 2.842-.93 1.668-1.352 1.203-1.652-.567-.904-1.702.737-3.002-.422-3.386-1.874-.487-2.056-.384-5.315.431-7.626.317-.778.572-1.304.834-1.59.257-.319.524-.778.796-1.41.272-.633.07-1.012-.652-1.2-.721-.188-1.459-.063-2.201.442s-1.471 1.49-2.183 2.99a19.28 19.28 0 00-1.547 4.505 53.005 53.005 0 01-.74 3.366c-.188.722-.426 1.349-.788 1.858-.329.504-.9.394-1.672-.302-.774-.697-1.157-1.943-1.084-3.748.073-1.806.377-3.271.882-4.357.5-1.12.705-1.947.58-2.478-.124-.53-.477-.78-1.097-.78a3.704 3.704 0 00-1.598.34zm13.834.172c.334 1.358.535 3.565.661 6.544.125 2.979.131 5.047-.044 6.25-.17 1.235-.352 2.404-.611 3.517-.542 2.298-1.189 4.788-1.423 6.862-.302 2.086.202 2.621.922 2.189.341-.231.73-.986 1.162-2.301.898-2.635 1.435-4.554 1.794-6.304.358-1.75.809-4.586 1.123-8.226.168-1.856.505-3.327.966-4.474.494-1.153 1.252-2.178 2.233-3.103.981-.925 1.862-1.626 2.649-2.07 2.232-1.481 3.143.64 2.668 2.72-.348 1.405-1.204 3.274-2.702 5.218-.763.991-1.75 1.883-2.955 2.708-1.211.791-1.411 1.239-.639 1.315.777.11 1.693-.184 2.759-.813 2.171-1.23 3.77-3.19 4.91-5.211 1.719-3.085 2.056-4.556 1.742-6.813-.199-1.38-.492-2.296-1.662-2.684-1.684-.577-3.732.563-6.414 3.053-.858.835-1.622 1.62-2.358 2.365-.736.745-1.093.668-1.074-.232.007-1.794-.08-2.71-.992-3.211-.459-.267-1.108-.227-1.979.128-.843.315-1.075 1.182-.736 2.573zm17.2-5.432c-.446.213-.848.695-1.237 1.45-.355.75-.424 2.383-.199 4.931.253 2.51.588 4.28 1.071 5.302.478.988 1.123 1.74 1.991 2.18.873.473 1.634.689 2.221.693.586.004 1.077-.356 1.467-1.111.389-.756.667-1.355.805-1.758.3-.878.654-2.041 1.068-3.87.221-.934.333-1.091.34-.437l.051 2.13c.03.787.384 1.658 1.035 2.651.646.96 1.491 1.472 2.537 1.536 1.079.059 2.022-.274 2.842-.93 1.668-1.352 1.203-1.652-.567-.904-1.702.737-3.002-.422-3.387-1.874-.486-2.056-.383-5.315.432-7.626.317-.777.572-1.304.834-1.59.257-.319.524-.778.796-1.41.272-.633.07-1.012-.652-1.2-.721-.188-1.459-.063-2.201.442s-1.472 1.49-2.183 2.99a19.304 19.304 0 00-1.547 4.504 52.964 52.964 0 01-.74 3.368c-.188.721-.426 1.348-.788 1.857-.329.504-.899.394-1.673-.302-.773-.697-1.156-1.942-1.083-3.748.073-1.806.377-3.271.882-4.357.5-1.12.705-1.947.58-2.478-.124-.53-.477-.78-1.097-.78-.621.003-1.151.127-1.598.34zm14.389 8.94c-.507.466-.601.93-.303 1.466.297.536.818.758 1.539.74.754-.025 1.346-.401 1.746-1.09.869-1.388 1.709-2.738 2.214-4.03.267-.666.639-1.523 1.144-2.608.506-1.086.807-1.344.898-.808.091.537.311 1.224.626 2.067.31.81.754 1.596 1.259 2.338.505.742 1.3 1.366 2.38 1.838 1.08.473 1.612.555 1.661.236.044-.352-.231-.754-.853-1.166-1.249-.857-2.243-2.861-2.634-4.553a19.645 19.645 0 01-.365-2.766c-.067-2.024.36-3.165.945-3.782.29-.325.445-.834.46-1.56.015-.727-.294-1.123-.92-1.155-.598-.07-1.112.154-1.552.608-.407.448-.791 1.03-1.152 1.747-.684 1.461-1.603 2.548-3.334 3.117-1.732.57-3.148-.26-3.146-1.674.014-.726.119-1.33.313-1.811.466-1.528 2.103-1.84 4.032-1.442 1.281.23 2.115.882 2.187.491.033-.212-.197-.553-.685-.987-1.563-1.287-3.206-1.423-4.731-.854-1.027.45-1.401.686-2.108 1.599a4.36 4.36 0 00-.773 1.545c-.398 1.516-.455 3.422 1.204 4.865 1.115.88 2.3 1.162 3.915.716.821-.243.934.22.339 1.39-.562 1.165-1.308 2.257-2.199 3.305-.897 1.014-1.599 1.754-2.107 2.219zm22.786-12.724c.334 1.358.535 3.565.661 6.544.125 2.979.131 5.047-.045 6.25-.169 1.235-.351 2.404-.61 3.517-.542 2.299-1.189 4.788-1.424 6.862-.301 2.086.203 2.621.923 2.189.34-.23.73-.986 1.162-2.3.898-2.636 1.435-4.555 1.794-6.305.358-1.75.809-4.586 1.123-8.226.168-1.856.505-3.327.966-4.474.494-1.153 1.252-2.178 2.233-3.103.981-.925 1.862-1.626 2.649-2.07 2.232-1.481 3.143.64 2.668 2.72-.348 1.405-1.204 3.274-2.702 5.218-.763.991-1.75 1.883-2.955 2.708-1.211.791-1.411 1.239-.639 1.315.777.11 1.693-.184 2.759-.813 2.171-1.23 3.77-3.19 4.91-5.211 1.719-3.085 2.056-4.556 1.742-6.813-.199-1.38-.493-2.296-1.662-2.684-1.684-.577-3.732.563-6.414 3.052-.858.836-1.622 1.62-2.358 2.366-.736.745-1.094.668-1.074-.232.007-1.794-.08-2.71-.992-3.211-.459-.267-1.108-.226-1.979.128-.843.315-1.075 1.182-.736 2.573zm21.215 3.198c1.352.047 3.029-.03 5.631-1.161 1.312-.602 2.215-1.376 2.766-2.4 1.14-2.021.491-4.222-1.049-5.374-1.473-1.165-3.801-2.08-6.623-1.637-1.38.2-2.569.712-3.545 1.463-1.947 1.537-3.024 3.927-2.75 6.363.457 3.51 1.519 5.295 3.871 6.965.812.518 1.863.822 3.155.914 1.297.125 2.532-.119 3.765-.776 2.506-1.287 3.524-3.011 3.773-3.985.283-.979-.382-.831-.71-.328-.134.23-.479.633-1.031 1.244-.552.611-1.506 1.083-2.925 1.462-1.424.344-2.682.247-3.774-.292-2.222-1.106-3.036-2.244-3.55-4.467a4.824 4.824 0 01.349-3.232c.483-1.013 1.085-1.736 1.738-2.157 1.333-.881 2.836-.963 4.173-.604 1.404.348 2.525 1.262 2.344 2.638-.06.665-.461 1.147-1.198 1.478a4.596 4.596 0 01-2.324.326c-.844-.099-1.755.021-2.71.286-1.95.503-1.981 1.336-1.683 2.079.287.675 1.021 1.137 2.307 1.195zm21.266 3.12c.024-1.693-.265-2.99-1.895-4.265-.835-.652-1.702-.884-2.635-.691-.933.192-.387-.452 1.661-2.006 2.047-1.554 2.987-3.127 2.843-4.793-.145-1.665-.746-2.977-1.839-3.93-2.146-1.877-5.002-1.842-7.648-.566-1.312.602-2.182 1.37-2.655 2.244-.472.873-.442 1.661.057 2.37.5.708 1.099.986 1.763.839.699-.153 1.15-.54 1.35-1.195.609-1.896 2.631-2.584 4.6-1.952a2.738 2.738 0 011.625 1.242c.381.625.322 1.497-.178 2.617-.5 1.119-1.492 2.184-2.942 3.188-2.868 2.004-3.641 3.548-3.13 4.324.27.368.918.327 1.979-.129 2.155-.916 2.937-.98 4.298-.073.666.474 1.004 1.244.951 2.356a13.52 13.52 0 01-.517 3.26c-.271 1.046-.832 2.21-1.656 3.454-2.438 3.724-4.767 4.222-6.216 3.812-1.013-.276-1.151-1.701-.847-3.167.121-.71.549-1.645 1.25-2.798 2.103-3.46 6.204-6.12 5.617-6.332-.124-.117-.732.159-1.753.85a50.245 50.245 0 00-3.052 2.137c-.976.752-1.857 1.66-2.681 2.696-.824 1.036-1.475 2.285-1.985 3.75-.51 1.467-.49 2.808.022 3.997.518 1.223 1.492 1.885 2.957 1.982 1.437.136 2.721-.22 3.854-1.067 1.138-.814 2.091-1.7 2.832-2.618.741-.919 1.448-2.039 2.12-3.36 1.391-2.58 1.821-4.516 1.85-6.176zm3.802-18.68c-.232-.96-.625-1.446-1.212-1.45-.553-.01-1.033.21-1.406.653-.379.409-.661 1.594-.846 3.557-.19 1.929-.174 3.857.117 5.774.251 1.888.836 3.306 1.716 4.226.88.92 1.955 1.359 3.184 1.288 1.258-.11 2.279-.593 3.121-1.529a8.38 8.38 0 001.785-3.096c.394-1.135.627-1.795.766-1.992.139-.196.175.626.141 2.46-.062 3.7-.327 7.02-.786 8.995-.453 2.008-.951 3.748-2.45 5.278-2.341 2.466-3.989.676-3.451-.829.121-.503.376-1.236.759-2.232a38.29 38.29 0 011.301-2.704c.962-1.646 1.614-2.48 2.404-3.718.412-.621.551-1.024.422-1.175-.129-.15-.497.119-1.16.887-.663.767-1.176 1.406-1.605 1.927-1.614 2.274-4.326 6.216-3.971 9.329.124 2.358 1.514 3.64 3.547 3.02 1.284-.356 2.304-1.46 3.378-3.263 1.074-1.803 1.545-3.296 2.021-5.17.221-.934.414-1.83.518-2.64.137-.816.203-1.448.235-1.868.038-.385.091-1.291.127-2.71.109-2.813.247-5.664.049-8.665l-.205-3.241c-.047-.682-.21-1.24-.519-1.637-.746-1.149-1.786-1.18-2.191-.111a2.39 2.39 0 00-.138.817c.001.206.058.748.173 1.626.261 1.748.182 3.314.056 4.197-.027.453-.171 1.03-.426 1.762-.449 1.421-1.077 2.597-2.975 3.608-.915.5-1.86.419-2.767-.255-.913-.708-1.302-1.987-1.201-3.831.129-1.884.471-3.322 1.022-4.346.55-1.025.732-1.987.467-2.942zm13.42 11.485c.167-.442.248-1.18.313-2.225.064-1.046.145-1.99.31-2.846.292-1.74.819-3.311 1.291-4.392.494-1.152 1.129-2.088 1.61-1.893.252.06.472.747.66 2.06.437 2.582 1.286 4.541 2.51 6.265.628.86 1.334 1.567 2.146 2.085.812.517 1.26.717 1.399.521.44-.454-2.58-3.218-3.505-6.234-1.621-4.277-.504-6.639-1.246-7.961-.483-1.022-2.482-.2-4.486 3.036-1.374 2.267-2.512 5.116-3.11 7.286l-.852 3.11c-.277 1.013-.325 1.745-.072 2.22.59 1.244 2.694.026 3.032-1.032zm9.145-3.24c.378 1.42 1.007 2.485 1.987 3.181.51.362 1.265.544 2.204.592a5.575 5.575 0 002.559-.364c3.06-1.278 3.342-4.085 1.441-6.349-.925-1.188-2.317-1.262-3.952-.33-1.647.865-1.343 1.435-.679 1.288l1.575-.474c.721-.226 1.33-.088 1.807.487.477.574.697 1.261.632 2.1-.031.833-.455 1.387-1.27 1.663-.788.237-1.397.306-1.833.173-.878-.3-2.048-.894-2.204-2.627-.161-1.766-.078-3.918.248-5.456.32-1.571 1.2-2.686 2.208-3.857.519-.605.528-1.158.074-1.599-.454-.44-1.113-.466-1.979-.078-1.658.798-2.437 2.102-2.777 4.367-.312 2.226-.36 3.372-.322 5.02.031.789.128 1.565.281 2.264zm10.444-13.357c-1.146-.047-1.927.224-2.311.806-.351.577-.5 1.12-.443 1.661.143 1.045.518 1.223 2.826 1.211 2.308-.012 3.393-.127 3.544.158.062.162.108.43.148.872.108.843.278 3.677.74 7.012.245 1.649.512 3.017.8 4.107.288 1.089.558 1.664.798 1.658.24-.007.366-1.097.332-3.333-.034-2.235-.061-3.817-.035-4.684.019-.9.028-1.867.098-2.879.064-1.045.146-1.783.217-2.174.1-.431.161-.683.211-.795.083-.117.614-.242 1.659-.385a43.343 43.343 0 013.051-.31c.989-.064 1.508-.255 1.524-.568.05-.32-.348-.631-1.115-.88-.766-.25-1.834-.448-3.204-.595-1.37-.148-2.158-.324-2.355-.463-.201-.173-.526-.256-.973-.25-.413.002-.715.053-.877.115-.162.062-.682.047-1.56-.046a42.418 42.418 0 00-3.075-.238zm19.357-4.246c-.609.069-1.413.412-2.423.963-.977.544-1.736 1.156-2.215 1.789a7.905 7.905 0 00-1.106 2.015c-.261.7-.404 1.69-.383 3.03.054 1.336.443 2.615 1.167 3.837 2.319 3.711 4.791 4.05 7.025 3.603.799-.17 1.597-.546 2.35-1.191.753-.645 1.316-1.189 1.65-1.66a6.67 6.67 0 00.862-1.628c.211-.588.345-.61.408-.035.057.542.176 1.04.429 1.514.461.887.966 1.63 2.398 1.938 1.459.27 1.747-.675.577-1.27-.571-.317-1.008-.657-1.283-1.059-.51-.775-.709-1.948-.663-3.301.041-1.386-.058-2.784.221-5.003.154-1.13.09-1.912-.157-2.353-.247-.441-.683-.574-1.281-.438-.564.13-.96.438-1.177.992-.183.549-.277 1.013-.248 1.387.029.375.07 1.023.09 1.95.019.928-.04 1.8-.189 2.55-.259 1.527-.793 2.445-1.88 3.56-1.65 1.66-3.749 2.291-5.52.798-1.171-1.009-1.981-2.94-1.912-4.366.124-1.504 1.149-2.781 2.271-3.489 1.155-.712 2.054-1.106 3.435-.892 1.186.488 1.886.75 2.104.816l.179.038c.537.116.91-.12 1.049-.73l.016-.105c.066-.218.094-.465.076-.772-.211-1.447-.906-2.295-2.053-2.549l-.318-.05c-1.041-.237-2.209-.211-3.499.111zm12.463-1.147c-1.146-.047-1.928.224-2.312.806-.35.577-.5 1.12-.442 1.661.142 1.045.517 1.223 2.826 1.211 2.308-.012 3.392-.127 3.544.158.062.162.107.43.148.872.108.843.278 3.677.74 7.012.245 1.649.511 3.017.799 4.107.288 1.089.558 1.664.799 1.657.24-.006.365-1.096.331-3.332-.034-2.236-.06-3.817-.035-4.684.02-.9.029-1.867.098-2.879.065-1.045.146-1.783.218-2.175.1-.43.16-.682.21-.794.084-.117.615-.242 1.659-.385a43.343 43.343 0 013.051-.31c.99-.064 1.509-.255 1.525-.569.049-.318-.348-.63-1.115-.88-.766-.249-1.835-.447-3.204-.595-1.37-.147-2.159-.323-2.355-.462-.202-.173-.526-.256-.973-.25-.414.002-.715.053-.877.115-.162.062-.682.046-1.56-.046a42.52 42.52 0 00-3.075-.238zm19.356-4.246c-.609.069-1.413.412-2.423.962-.976.545-1.735 1.157-2.214 1.79a7.941 7.941 0 00-1.107 2.015c-.26.7-.403 1.69-.383 3.03.054 1.336.444 2.615 1.168 3.837 2.319 3.711 4.79 4.05 7.025 3.603.799-.17 1.597-.546 2.35-1.191.753-.645 1.316-1.189 1.65-1.66a6.67 6.67 0 00.862-1.628c.21-.588.344-.61.408-.035.057.542.176 1.04.428 1.514.461.887.966 1.63 2.398 1.938 1.46.27 1.748-.675.578-1.27-.571-.317-1.008-.657-1.283-1.059-.511-.775-.71-1.948-.663-3.301.041-1.387-.058-2.784.221-5.004.153-1.13.09-1.911-.157-2.352-.247-.441-.684-.574-1.282-.438-.564.13-.96.438-1.176.992-.183.548-.277 1.013-.248 1.387.029.375.07 1.023.089 1.95.02.928-.04 1.8-.188 2.55-.259 1.527-.793 2.445-1.88 3.56-1.65 1.66-3.75 2.29-5.52.798-1.171-1.009-1.981-2.94-1.913-4.366.125-1.504 1.15-2.781 2.271-3.489 1.155-.713 2.054-1.106 3.435-.892 1.187.488 1.886.75 2.104.816l.179.038c.537.116.911-.12 1.049-.73l.017-.105c.066-.219.093-.465.076-.772-.211-1.447-.906-2.295-2.053-2.549l-.319-.05c-1.04-.237-2.208-.211-3.499.111zm12.279 10.989c-.193 1.101.122 1.738.889 1.987l.179.039c.106.016.251.06.425.066.927-.226 1.546-.642 1.897-1.218l.072-.185.027-.453c-.036-.821-.502-1.329-1.391-1.488l-.112-.05a2.865 2.865 0 00-.838-.065c-.537.09-.916.5-1.109 1.188l-.039.179zm-.316-11.223c-1.117.327-1.602.926-1.459 1.764l.034.201c.017.101.039.235.101.397.479 1.195 1.173 1.629 2.044 1.274l.201-.034c.268-.045 1.229-.484 1.257-2.144l-.022-.134c-.046-.268-.158-.525-.31-.81-.359-.49-.907-.673-1.645-.548l-.201.034zm14.008-9.134c.137 1.012.422 2.895.882 5.61.46 2.715.696 4.917.711 6.638.011 1.688-.322 2.78-1.036 3.245-.681.46-.963 1.44-.814 2.931.15 1.492.65 2.408 1.562 2.701.912.294 1.794.007 2.647-.862.853-.869 2.529-.946 4.951-.288 2.423.659 4.312.822 5.625.427 2.636-.723 5.241-2.648 6.458-5.233.639-1.316.852-3.317.638-6.005-.187-2.727-1.145-5.53-2.913-8.438-3.51-5.854-9.263-8.258-16.306-6.478-3.542.876-5.255 1.753-5.208 2.641.047.889 1.702.884 4.958-.047 3.256-.931 5.878-.72 7.888.56 4.048 2.52 6.327 5.79 7.234 8.498.468 1.335.595 2.9.382 4.694-.219 1.762-.751 3.3-1.597 4.616-.846 1.316-2.04 2.001-3.622 2.028-1.582.027-3.204-.181-4.887-.551-1.656-.41-2.616-2.212-2.882-5.408-.532-6.394-.352-10.01-.306-11.57.037-.8-.311-1.43-1.011-1.898-.706-.5-1.466-.51-2.287-.06-.82.449-1.176 1.199-1.067 2.25zm21.974 7.277c-.127.676-.129 1.677-.014 2.968.115 1.29.325 2.324.696 3.089.77 1.49 1.432 2.55 3.62 3.456 1.114.466 2.288.474 3.533.09 1.246-.383 2.228-.894 2.975-1.573 1.528-1.362 2.032-2.862 2.397-4.579.159-.889.257-1.94.226-3.142.002-1.207-.129-2.185-.416-2.86-.513-1.396-1.393-2.316-2.328-2.95-.941-.669-2.461-.687-3.851.066-.664.354-1.071.802-1.153 1.333-.083.531.085.71.459.474.408-.242.849-.489 1.396-.72 1.128-.466 2.711.127 3.357 1.294.988 1.557 1.119 4.57-.02 7.004-.739 1.539-2.061 2.487-3.687 2.66-1.632.138-2.741-.502-3.493-1.892-.934-2.255-1.091-4.194-.263-6.231.801-1.17 1.269-1.87 1.375-2.061l.077-.151c.317-.571.238-1.04-.205-1.414l-.078-.055c-.163-.145-.353-.251-.616-.379-1.253-.27-2.174.196-2.769 1.366l-.161.269c-.545 1.058-.877 2.355-1.057 3.938zm14.259-3.555c.275.609.801.864 1.539.74.732-.16 1.301-.463 1.708-.91.434-.488.808-.931 1.148-1.368.685-.84 1.794-1.822 3.059-1.484.609.138.795.624.478 1.402a7.74 7.74 0 01-1.101 2.049c-.88 1.114-2.285 2.387-3.512 3.285-.619.415-1.222.93-1.785 1.475-.563.543-.913 1.327-1.038 2.417-.196 2.102.567 3.145 1.754 3.634.626.239 1.437.343 2.46.273 1.062-.042 2.095-.459 3.16-1.294 2.17-1.644 2.905-2.596 2.952-3.742.036-1.213-.455-1.061-1.375.026a6.37 6.37 0 01-1.595 1.374c-1.25.763-2.266 1.073-2.982.919-.364-.11-.655-.406-.852-.96-.197-.552.097-1.257.877-2.148 1.594-1.787 3.115-3.39 4.146-4.634 1.064-1.25 1.557-3.023 1.021-4.76-.254-.888-.826-1.411-1.715-1.571a5.253 5.253 0 00-2.626.17c-1.698.563-2.658 1.002-3.858 1.86a8.54 8.54 0 00-1.583 1.44c-.49.567-.562 1.165-.28 1.807zm11.013-.729c-.126.677-.129 1.678-.014 2.968.116 1.291.325 2.325.696 3.09.77 1.49 1.433 2.55 3.621 3.455 1.113.467 2.287.475 3.533.091 1.245-.383 2.227-.895 2.974-1.573 1.528-1.363 2.033-2.862 2.397-4.579.16-.89.257-1.94.226-3.142.002-1.207-.129-2.185-.416-2.86-.512-1.397-1.392-2.317-2.328-2.951-.94-.668-2.461-.687-3.851.066-.664.354-1.071.803-1.153 1.334-.082.531.086.71.46.474a11.11 11.11 0 011.395-.72c1.128-.467 2.711.127 3.357 1.294.988 1.556 1.12 4.569-.02 7.003-.739 1.54-2.061 2.488-3.687 2.66-1.632.139-2.74-.501-3.493-1.891-.934-2.256-1.09-4.195-.263-6.232.802-1.17 1.269-1.87 1.375-2.06l.078-.152c.317-.57.237-1.04-.205-1.413l-.079-.056c-.162-.145-.353-.25-.616-.378-1.252-.27-2.173.196-2.768 1.366l-.162.268c-.545 1.058-.876 2.356-1.057 3.938zm13.781-.68a23.8 23.8 0 00.803 3.312c.36 1.112.888 1.988 1.577 2.595.69.608 1.674.924 2.966 1.015 1.291.092 2.425-.135 3.413-.613 3.053-1.518 3.939-4.84 2.769-7.47-1.232-2.791-4.352-3.297-6.863-1.63-.843.522-1.484 1.217-1.861 2.04-.378.823-.076.978.867.44a22.81 22.81 0 012.451-1.21c.675-.286 1.402-.272 2.146.05.778.317 1.116 1.087 1.001 2.245-.08 1.152-.576 1.89-1.452 2.212-.877.32-1.553.4-2.074.179-1.013-.484-2.413-1.626-3.017-3.765-.288-1.09-.42-2.274-.407-3.62.016-4.176.179-6.066.901-7.913.465-1.32.977-2.372 2.197-3.924a10.369 10.369 0 012.135-2.052c1.617-1.24 2.607-1.097 2.161 1.358-.446 2.455-1.648 4.521-2.516 5.91-.868 1.388-1.793 2.235-3.539 3.531-.854.662-1.333 1.295-1.392 1.96-.159 1.303.125 2.772 1.393 2.73.649-.041 1.33-.295 2.005-.788 1.355-.954 1.945-2.158 3.086-3.765.585-.823 1.163-1.887 1.747-3.124.583-1.237.994-2.272 1.243-3.038.278-.806.471-1.701.619-2.657.148-.956.135-1.85-.041-2.683-.379-1.626-1.309-2.64-3.02-2.764a5.388 5.388 0 00-2.514.426c-1.642.692-3.149 1.568-4.902 4.038-.864 1.215-1.463 2.765-1.787 4.717-.33 1.918-.516 3.467-.552 4.68a50.355 50.355 0 00.039 3.89c.059 1.37.197 2.587.418 3.688zm12.114-3.709c-.127.677-.13 1.678-.014 2.969.115 1.29.325 2.324.696 3.089.77 1.49 1.432 2.55 3.62 3.455 1.114.467 2.287.475 3.533.091 1.245-.383 2.228-.895 2.975-1.573 1.528-1.362 2.032-2.862 2.396-4.579.16-.889.258-1.94.226-3.142.003-1.207-.128-2.185-.415-2.86-.513-1.397-1.393-2.316-2.328-2.951-.941-.668-2.461-.686-3.851.066-.664.354-1.071.803-1.154 1.334-.082.531.086.71.46.474a11.11 11.11 0 011.395-.72c1.128-.466 2.712.127 3.358 1.294.988 1.556 1.119 4.569-.02 7.003-.739 1.54-2.061 2.488-3.688 2.66-1.631.139-2.74-.501-3.493-1.89-.934-2.256-1.09-4.196-.263-6.232.802-1.17 1.27-1.87 1.375-2.061l.078-.151c.317-.571.238-1.04-.205-1.414l-.078-.056c-.163-.145-.353-.25-.616-.378-1.253-.27-2.174.196-2.769 1.366l-.161.269c-.545 1.057-.877 2.355-1.057 3.938zm14.141-3.43c.334 1.356.536 3.564.661 6.543.126 2.979.131 5.047-.044 6.249-.17 1.236-.351 2.404-.611 3.517-.541 2.3-1.189 4.789-1.423 6.863-.302 2.086.203 2.62.923 2.188.34-.23.729-.985 1.161-2.3.899-2.635 1.436-4.554 1.794-6.305.359-1.75.809-4.585 1.123-8.225.169-1.856.506-3.327.966-4.474.495-1.153 1.252-2.178 2.233-3.103.981-.925 1.863-1.626 2.65-2.07 2.231-1.482 3.143.64 2.668 2.72-.349 1.405-1.204 3.274-2.702 5.218-.764.991-1.75 1.883-2.956 2.708-1.21.79-1.41 1.239-.639 1.315.778.11 1.693-.184 2.759-.813 2.171-1.23 3.77-3.19 4.91-5.212 1.719-3.084 2.056-4.555 1.742-6.812-.199-1.38-.492-2.296-1.661-2.684-1.685-.577-3.733.563-6.415 3.052-.858.836-1.622 1.62-2.357 2.366-.736.745-1.094.668-1.074-.232.006-1.794-.08-2.71-.993-3.212-.459-.267-1.107-.226-1.978.129-.843.315-1.076 1.182-.737 2.573zm16.009-1.68c-.127.677-.13 1.678-.014 2.968.115 1.291.325 2.325.696 3.09.77 1.49 1.432 2.55 3.62 3.455 1.114.467 2.288.475 3.533.091 1.245-.383 2.228-.895 2.975-1.573 1.528-1.362 2.032-2.862 2.396-4.579.16-.89.258-1.94.227-3.142.002-1.207-.129-2.185-.416-2.86-.513-1.397-1.393-2.316-2.328-2.951-.941-.668-2.461-.686-3.851.066-.664.354-1.071.803-1.154 1.334-.082.531.086.71.46.474.408-.242.848-.489 1.396-.72 1.127-.467 2.711.127 3.357 1.294.988 1.556 1.119 4.569-.02 7.003-.739 1.54-2.061 2.488-3.687 2.66-1.632.139-2.741-.501-3.494-1.89-.934-2.257-1.09-4.196-.263-6.233.802-1.17 1.27-1.87 1.375-2.06l.078-.151c.317-.572.238-1.04-.205-1.414l-.078-.056c-.163-.145-.353-.25-.616-.378-1.253-.27-2.174.196-2.769 1.366l-.161.268c-.545 1.058-.877 2.356-1.057 3.938zm18.577 11.75c.082-.532.029-1.454-.148-2.7a26.343 26.343 0 01-.277-3.47c.01-2.175.296-4.154.605-5.586.337-1.471.881-2.736 1.708-2.738.408-.035.595.865.583 2.625-.069 5.288 1.873 8.2 3.44 6.866.519-.398.835-1.176 1.016-2.345.182-1.168.407-2.483.683-3.909.275-1.426.591-2.617.951-3.54.677-1.908 1.211-2.826 1.608-2.721.425.066-.014.933-.334 2.505-.334 2.298-.846 5.178 1.282 8.783.758 1.216 1.531 1.913 2.331 2.157.8.243 1.281.231 1.481-.01.207-.207-.023-.548-.679-.954-1.282-.852-2.305-3.023-2.28-5.924-.004-1.448.083-2.566.198-3.31.292-1.532.702-2.774 1.218-4.413.549-1.645.026-2.488-.964-2.837-1.371-.56-2.842 1.137-4.149 3.6-1.501 2.737-2.662 5.451-2.939 8.292-.149.956-.344 1.023-.587.202-.242-.82-.284-1.883-.187-3.14.125-1.297.122-2.332.025-3.108-.263-2.163-.687-3.85-2.385-3.286-1.061.456-2.404 1.89-3.67 5.002a26.348 26.348 0 00-1.512 4.911c-.695 3.429-.844 6.006-1.067 8.561-.125 1.297-.01 2.174.377 2.626.751.976 1.968.218 2.888-.662.446-.42.707-.913.784-1.478zm16.071-10.45c-.249 1.18.033 1.823.838 1.893l.179.04c.173.004.151.077 1.095-.049.475-.046.826-.416 1.098-1.048l.039-.179c.094-.257-.026-1.375-1.246-1.858l-.112-.05c-.252-.06-.492-.054-.799-.037-.615.035-.966.405-1.054 1.11l-.038.179zM11.889 131.217c-.602.309-1.165 1.059-1.614 2.274-.456 1.18-.46 3.802-.04 7.903.42 4.102.975 6.974 1.639 8.654.692 1.642 1.657 2.857 2.86 3.653 1.232.757 2.228 1.14 3.028 1.177.793.004 1.451-.591 1.974-1.783.522-1.192.883-2.115 1.043-2.797.348-1.404.784-3.306 1.296-6.186.27-1.46.437-1.695.44-.661.03.995.09 2.158.166 3.421.076 1.263.56 2.698 1.488 4.299.926 1.602 2.142 2.465 3.578 2.601 1.47.13 2.738-.326 3.837-1.374 2.224-2.136 1.524-2.604-.804-1.485-1.178.579-2.162.47-3.013-.282-.852-.753-1.397-1.729-1.702-2.919-.577-2.385-.59-5.107-.453-8.165.052-1.526.305-2.88.688-4.083.382-1.202.754-2.059 1.083-2.563.328-.504.656-1.214 1.005-2.205.35-.99.035-1.626-.955-1.976-.99-.349-1.951-.117-2.961.64-1.01.757-1.95 2.331-2.86 4.692a34.904 34.904 0 00-1.914 7.221c-.346 2.438-.626 4.245-.874 5.425-.215 1.174-.53 2.159-.982 2.959-.416.795-1.177.579-2.304-.575-1.093-1.159-1.646-3.204-1.621-6.105.026-2.901.355-5.233.987-6.995.632-1.762.891-3.082.71-3.948-.181-.866-.669-1.301-1.53-1.293-.866-.025-1.598.133-2.195.476zm24.43 25.206c.083-.531.03-1.454-.147-2.7a26.308 26.308 0 01-.278-3.47c.011-2.174.296-4.154.605-5.586.337-1.471.882-2.735 1.709-2.738.408-.034.595.865.583 2.626-.07 5.288 1.872 8.2 3.44 6.866.518-.399.835-1.176 1.016-2.345a108.1 108.1 0 01.682-3.909c.276-1.426.591-2.618.952-3.541.677-1.908 1.21-2.826 1.608-2.721.425.066-.014.934-.334 2.505-.335 2.298-.847 5.178 1.282 8.783.758 1.217 1.53 1.913 2.33 2.157s1.281.231 1.482-.009c.206-.208-.024-.548-.679-.954-1.282-.852-2.306-3.024-2.28-5.925-.004-1.447.082-2.566.198-3.309.292-1.533.702-2.775 1.217-4.414.55-1.645.027-2.487-.963-2.837-1.371-.56-2.842 1.137-4.15 3.6-1.5 2.738-2.661 5.452-2.939 8.292-.148.956-.344 1.024-.586.203-.243-.821-.285-1.883-.188-3.141.125-1.297.123-2.331.025-3.108-.263-2.162-.687-3.849-2.384-3.285-1.061.455-2.404 1.89-3.67 5.001a26.33 26.33 0 00-1.513 4.912c-.694 3.428-.844 6.005-1.066 8.56-.125 1.298-.01 2.175.376 2.627.752.976 1.968.218 2.888-.662.446-.421.708-.913.784-1.478zm19.693-12.476c1.353.046 3.03-.031 5.631-1.162 1.312-.601 2.216-1.375 2.766-2.4 1.14-2.021.492-4.221-1.049-5.374-1.473-1.164-3.8-2.08-6.622-1.636-1.38.199-2.57.711-3.545 1.463-1.947 1.537-3.025 3.926-2.75 6.363.457 3.509 1.518 5.294 3.87 6.965.812.517 1.864.822 3.155.913 1.298.125 2.532-.118 3.766-.776 2.506-1.287 3.524-3.011 3.773-3.984.282-.979-.382-.832-.71-.328-.134.229-.48.633-1.031 1.244-.552.61-1.507 1.083-2.925 1.461-1.425.345-2.683.248-3.774-.292-2.222-1.106-3.036-2.244-3.55-4.467a4.826 4.826 0 01.348-3.232c.484-1.013 1.085-1.736 1.738-2.157 1.334-.881 2.837-.963 4.174-.603 1.404.348 2.524 1.261 2.344 2.637-.06.665-.461 1.147-1.198 1.479-.71.292-1.48.423-2.324.325-.845-.098-1.755.021-2.71.287-1.95.503-1.981 1.336-1.683 2.078.287.676 1.02 1.138 2.306 1.196zm9.603-12.594c-.249.973-.382 1.409-.423 2.796-.013 1.347-.053 2.94.147 4.734.115.877.34 1.804.746 2.77.4.933.737 1.703 1.035 2.239.33.53.735 1.082 1.245 1.651 1.009 1.07 1.64 1.136 1.118-.121-.276-.608-.552-1.217-.85-1.752-.567-1.111-.834-2.894-.73-3.704.071-.392.534-.712 1.394-.926.894-.221 1.492-.357 1.793-.408l1.184-.338a4.122 4.122 0 001.335-.675c.396-.308.657-.594.73-.779.105-.19.167-.028.158.525.023.548.092 1.157.245 1.855.604 2.139 1.296 3.781 2.12 4.779.679.747 1.389.661.742-.712a12.41 12.41 0 01-.8-2.278c-.455-2.682-.77-3.525-.436-6.237l.325-1.745.348-1.197c.15-.542.255-.94.249-1.18.027-.246-.03-.581-.137-1.011-.108-.43-.427-.687-.958-.769-.498-.088-.967-.009-1.369.266-.842.523-1.096 1.669-1.195 4.548-.035 1.42-.228 2.315-.613 2.69-.35.37-.697.567-.999.618-.307.018-.816.069-1.537.088-.72.019-1.246-.03-1.632-.068-.744-.116-1.22-.483-1.09-2.16.093-.878.247-1.594.53-2.159.79-1.652.94-2.194.25-2.802-.706-.501-2.46-.065-2.925 1.462zm17.961 7.922c1.353.046 3.03-.031 5.631-1.162 1.312-.601 2.216-1.375 2.766-2.399 1.14-2.021.492-4.222-1.049-5.375-1.473-1.164-3.8-2.08-6.622-1.636-1.38.199-2.57.711-3.546 1.463-1.946 1.537-3.024 3.927-2.749 6.363.457 3.509 1.518 5.295 3.87 6.965.812.518 1.864.822 3.155.914 1.297.125 2.532-.119 3.766-.776 2.506-1.287 3.524-3.012 3.773-3.985.282-.979-.382-.832-.71-.328-.134.23-.48.633-1.032 1.244-.551.611-1.506 1.083-2.924 1.461-1.425.345-2.683.248-3.774-.291-2.222-1.107-3.036-2.245-3.55-4.468a4.826 4.826 0 01.348-3.232c.484-1.013 1.085-1.735 1.738-2.156 1.334-.882 2.837-.964 4.174-.604 1.404.348 2.524 1.262 2.344 2.637-.06.665-.461 1.147-1.198 1.479-.71.293-1.48.423-2.325.325-.844-.098-1.755.022-2.71.287-1.949.503-1.98 1.336-1.682 2.078.287.676 1.02 1.138 2.306 1.196zm14.19 6.733c.081-.531.029-1.453-.148-2.699a26.32 26.32 0 01-.278-3.47 27.79 27.79 0 01.605-5.586c.337-1.471.882-2.736 1.709-2.738.408-.035.595.865.583 2.626-.07 5.287 1.872 8.2 3.439 6.865.519-.398.836-1.176 1.017-2.345.181-1.168.407-2.482.682-3.909.276-1.426.591-2.617.952-3.54.677-1.908 1.211-2.826 1.608-2.721.425.066-.014.933-.334 2.505-.335 2.298-.847 5.178 1.282 8.783.757 1.216 1.531 1.913 2.331 2.157s1.28.231 1.481-.01c.206-.207-.024-.548-.679-.954-1.282-.851-2.306-3.023-2.28-5.924-.004-1.448.082-2.566.198-3.31.292-1.532.702-2.774 1.217-4.413.549-1.645.027-2.488-.963-2.837-1.371-.561-2.842 1.137-4.149 3.6-1.502 2.737-2.663 5.451-2.94 8.292-.148.956-.344 1.024-.586.203-.243-.821-.285-1.883-.188-3.141.125-1.297.122-2.332.025-3.108-.263-2.163-.687-3.85-2.384-3.286-1.061.456-2.404 1.89-3.67 5.002a26.342 26.342 0 00-1.513 4.911c-.695 3.429-.844 6.006-1.066 8.561-.125 1.297-.01 2.174.376 2.626.752.976 1.968.218 2.888-.662.446-.42.707-.913.784-1.478zm16.07-10.448c-.248 1.18.033 1.822.838 1.892l.179.039c.173.005.151.078 1.096-.048.475-.046.826-.415 1.098-1.048l.038-.179c.095-.257-.026-1.375-1.246-1.858l-.111-.05c-.252-.061-.492-.054-.8-.037-.615.036-.966.405-1.053 1.11l-.039.179zm30.592-19.91c.86-.422 1.053-1.317.574-2.718-.479-1.402-1.633-2.31-3.501-2.752-1.841-.481-3.82-.56-5.876-.28-2.062.246-3.837.961-5.259 2.133-2.817 2.305-4.472 5.965-4.104 9.765.184 1.9.49 3.503.946 4.771 1.346 3.669 3.682 7.273 9.251 7.984 1.867.236 3.739-.116 5.547-1.043 1.842-.933 3.181-1.988 4.05-3.17.868-1.181 1.397-2.133 1.579-2.888.183-.755.12-1.124-.221-1.101-.313-.016-.592.17-.837.556-.211.381-.724 1.019-1.532 1.949-.78.891-2.214 1.583-4.298 2.108-2.089.492-3.917.285-5.558-.644-1.64-.929-2.805-1.904-3.535-2.953-.701-1.088-1.247-2.478-1.616-4.243-.368-1.766-.205-3.449.529-5.021.733-1.573 1.613-2.688 2.579-3.3a6.248 6.248 0 013.06-1.07c1.056-.076 2.108.229 3.088.925.98.696 1.887 1.163 2.675 1.34.789.176 1.594.04 2.459-.348zm6.739 14.617c.167-.442.248-1.18.313-2.225.064-1.046.145-1.991.31-2.846a19.39 19.39 0 011.291-4.392c.494-1.152 1.129-2.088 1.61-1.893.252.061.472.747.66 2.06.437 2.582 1.287 4.541 2.51 6.265.628.859 1.334 1.567 2.146 2.085.812.517 1.26.717 1.399.521.44-.454-2.58-3.218-3.505-6.234-1.621-4.277-.504-6.639-1.246-7.961-.483-1.022-2.482-.2-4.486 3.036-1.374 2.267-2.512 5.116-3.11 7.286l-.852 3.11c-.277 1.013-.325 1.745-.072 2.219.59 1.245 2.694.027 3.032-1.031zm9.076-9.745c-.126.676-.129 1.677-.014 2.968.116 1.291.325 2.324.696 3.089.77 1.49 1.433 2.55 3.621 3.455 1.113.467 2.287.475 3.532.091 1.246-.383 2.228-.895 2.975-1.573 1.528-1.362 2.033-2.862 2.397-4.579.16-.889.257-1.94.226-3.142.002-1.207-.129-2.185-.416-2.861-.512-1.396-1.392-2.315-2.328-2.95-.94-.668-2.461-.686-3.851.066-.664.354-1.071.803-1.153 1.334-.082.531.086.71.46.474.407-.242.848-.489 1.395-.72 1.128-.467 2.711.127 3.357 1.294.988 1.556 1.12 4.569-.02 7.003-.739 1.54-2.061 2.488-3.687 2.66-1.632.139-2.74-.501-3.493-1.891-.934-2.255-1.09-4.195-.263-6.231.802-1.171 1.269-1.871 1.375-2.061l.078-.151c.317-.571.237-1.041-.205-1.414l-.079-.056c-.162-.145-.353-.25-.616-.378-1.253-.271-2.174.196-2.768 1.366l-.162.269c-.545 1.057-.876 2.355-1.057 3.938zm13.781-.681c.181 1.073.436 2.168.802 3.313.361 1.111.889 1.987 1.578 2.594.689.608 1.674.924 2.966 1.015 1.291.092 2.425-.135 3.413-.613 3.053-1.517 3.939-4.84 2.769-7.47-1.232-2.791-4.352-3.297-6.863-1.63-.843.523-1.484 1.217-1.861 2.04-.378.823-.076.978.867.439a22.852 22.852 0 012.451-1.208c.675-.287 1.402-.272 2.146.05.778.316 1.116 1.087 1.001 2.244-.08 1.152-.576 1.891-1.452 2.212-.877.321-1.553.401-2.074.179-1.013-.484-2.413-1.626-3.017-3.765-.288-1.089-.42-2.274-.407-3.621.016-4.175.179-6.065.9-7.911.466-1.321.978-2.373 2.198-3.925a10.366 10.366 0 012.135-2.051c1.617-1.24 2.607-1.098 2.161 1.357-.446 2.456-1.648 4.521-2.516 5.91-.868 1.389-1.793 2.235-3.539 3.531-.854.662-1.333 1.295-1.392 1.96-.159 1.303.125 2.772 1.393 2.73.649-.041 1.33-.294 2.005-.788 1.355-.954 1.945-2.158 3.086-3.765.585-.823 1.163-1.887 1.747-3.124.583-1.237.994-2.272 1.243-3.038.278-.806.471-1.701.619-2.657.148-.956.135-1.851-.041-2.683-.379-1.625-1.309-2.64-3.02-2.764a5.388 5.388 0 00-2.514.426c-1.642.692-3.149 1.568-4.903 4.038-.863 1.215-1.462 2.765-1.786 4.717-.331 1.918-.516 3.467-.552 4.68a50.833 50.833 0 00.038 3.89c.06 1.37.198 2.588.419 3.688zm12.114-3.708c-.127.676-.13 1.677-.014 2.968.115 1.291.325 2.324.696 3.089.769 1.49 1.432 2.55 3.62 3.456 1.114.466 2.287.474 3.533.09 1.245-.383 2.228-.894 2.975-1.573 1.528-1.362 2.032-2.862 2.396-4.579.16-.889.258-1.94.226-3.142.003-1.207-.129-2.185-.415-2.86-.513-1.396-1.393-2.316-2.328-2.951-.941-.668-2.462-.686-3.851.067-.664.354-1.071.802-1.154 1.333-.082.531.086.71.46.474.407-.242.848-.489 1.395-.719 1.128-.467 2.712.126 3.358 1.293.988 1.557 1.119 4.569-.02 7.004-.739 1.539-2.061 2.487-3.688 2.659-1.631.139-2.74-.501-3.493-1.891-.934-2.255-1.09-4.194-.263-6.231.802-1.171 1.27-1.871 1.375-2.061l.078-.151c.317-.571.238-1.041-.205-1.414l-.078-.055c-.163-.145-.353-.251-.616-.379-1.253-.27-2.174.196-2.769 1.366l-.161.269c-.545 1.058-.877 2.355-1.057 3.938zm18.576 11.749c.083-.532.03-1.454-.147-2.7a26.345 26.345 0 01-.277-3.47c.01-2.174.296-4.154.605-5.586.337-1.471.881-2.735 1.708-2.738.408-.034.595.865.583 2.626-.069 5.288 1.873 8.2 3.44 6.865.518-.398.835-1.176 1.016-2.344.181-1.169.407-2.483.683-3.909.275-1.426.59-2.618.951-3.541.677-1.908 1.211-2.826 1.608-2.721.425.066-.014.933-.334 2.505-.335 2.298-.847 5.178 1.282 8.783.758 1.217 1.531 1.913 2.331 2.157s1.281.231 1.481-.01c.206-.207-.024-.547-.679-.954-1.282-.851-2.305-3.023-2.28-5.924-.004-1.448.083-2.566.198-3.309.292-1.533.702-2.775 1.218-4.414.548-1.645.026-2.487-.964-2.837-1.371-.561-2.842 1.137-4.149 3.6-1.501 2.737-2.662 5.452-2.94 8.292-.148.956-.343 1.024-.586.203-.242-.821-.285-1.883-.187-3.141.125-1.297.122-2.331.025-3.108-.263-2.162-.687-3.849-2.385-3.286-1.061.456-2.404 1.891-3.67 5.002a26.337 26.337 0 00-1.512 4.912c-.695 3.428-.845 6.005-1.067 8.56-.125 1.297-.011 2.175.376 2.626.752.976 1.969.219 2.888-.662.446-.42.708-.913.784-1.477zm16.071-10.449c-.248 1.18.033 1.822.839 1.893l.178.038c.174.005.152.078 1.096-.047.475-.046.826-.416 1.098-1.049l.039-.179c.094-.257-.026-1.375-1.246-1.858l-.112-.05c-.252-.06-.492-.054-.8-.036-.614.035-.965.405-1.053 1.109l-.039.179z" fill="#1B1B1B"/></svg>