<svg width="499" height="169" viewBox="0 0 499 169" fill="none" xmlns="http://www.w3.org/2000/svg">
<path d="M2.82301 88.7112C1.89746 89.5577 1.68838 90.7657 2.35711 92.0662C2.70539 92.6969 2.91334 93.1099 3.05368 93.3275C3.19402 93.5451 3.29572 93.9417 3.43719 94.573C3.57298 95.1707 3.61559 96.4394 3.5707 98.4126C3.52581 100.386 3.68262 102.532 3.98545 104.929C4.2826 107.293 4.71838 109.253 5.22575 110.823C5.73312 112.392 6.24958 113.201 6.71377 113.295C7.17797 113.388 7.3149 112.365 7.10241 110.298C6.92344 108.224 6.77345 106.526 6.68595 105.195C6.63198 103.86 6.58369 102.557 6.56324 101.216C6.57631 99.8689 6.64506 98.4433 6.80301 96.9337C7.14676 93.8753 7.4513 92.8236 7.56778 92.4935C7.63993 92.3088 8.68423 91.9594 10.7677 91.4339C12.8455 90.8748 15.0693 90.5668 17.4391 90.51C19.809 90.4532 20.9709 90.1873 20.964 89.7402C20.9515 89.2595 19.905 88.7817 17.7965 88.3459C15.688 87.9101 13.3512 87.7544 10.7245 87.9237C8.13141 88.0873 6.67803 88.0578 6.37009 87.8686C6.06214 87.6794 5.60363 87.6192 5.02807 87.6822C4.45252 87.7453 4.08378 87.8078 3.86617 87.9481C3.64288 88.0549 3.30823 88.3186 2.82301 88.7112ZM19.6027 93.6953C18.9937 93.764 18.1897 94.1072 17.1795 94.6577C16.2028 95.2026 15.4443 95.8139 14.9654 96.4469C14.4864 97.0798 14.1193 97.7628 13.8586 98.4622C13.5978 99.1616 13.4552 100.151 13.4756 101.493C13.5296 102.829 13.9188 104.107 14.6432 105.33C16.9619 109.04 19.4334 109.38 21.668 108.932C22.4668 108.763 23.2651 108.386 24.018 107.741C24.7708 107.096 25.3338 106.552 25.6679 106.082C26.0298 105.572 26.319 105.04 26.5298 104.453C26.7406 103.865 26.8747 103.843 26.9378 104.418C26.9952 104.96 27.1139 105.457 27.3667 105.932C27.8275 106.819 28.3326 107.561 29.7644 107.871C31.224 108.14 31.5121 107.195 30.3422 106.6C29.7712 106.283 29.3343 105.943 29.0593 105.542C28.5485 104.766 28.3497 103.593 28.3963 102.24C28.4372 100.854 28.3383 99.4565 28.6173 97.2367C28.7707 96.1072 28.7071 95.3248 28.4599 94.8839C28.2128 94.443 27.7764 94.31 27.1787 94.4458C26.6145 94.5759 26.2185 94.8844 26.002 95.4384C25.8191 95.9867 25.7253 96.4509 25.7543 96.8253C25.7833 97.1997 25.8242 97.848 25.8435 98.7758C25.8628 99.7036 25.8037 100.576 25.6549 101.325C25.3963 102.852 24.8623 103.77 23.7753 104.885C22.1254 106.544 20.0254 107.176 18.255 105.683C17.084 104.675 16.2738 102.743 16.3426 101.317C16.467 99.8133 17.492 98.536 18.6136 97.8287C19.7686 97.1156 20.6675 96.7219 22.0487 96.9361C23.235 97.4247 23.9345 97.6855 24.1526 97.752L24.3316 97.7906C24.8685 97.9065 25.2424 97.6707 25.3804 97.0611L25.3969 96.9549C25.4634 96.7367 25.4907 96.4907 25.4731 96.1833C25.2623 94.7362 24.5668 93.8884 23.4203 93.6345L23.1015 93.585C22.0612 93.3475 20.8931 93.3731 19.6027 93.6953ZM30.6859 96.8171C31.0194 98.1745 31.2211 100.382 31.3466 103.361C31.4722 106.34 31.4779 108.408 31.3023 109.61C31.1324 110.846 30.9512 112.014 30.6915 113.127C30.15 115.426 29.5029 117.915 29.2682 119.99C28.9665 122.076 29.4711 122.611 30.1909 122.178C30.5313 121.948 30.9205 121.193 31.3528 119.878C32.2511 117.243 32.788 115.324 33.1466 113.574C33.5051 111.823 33.9556 108.988 34.2698 105.348C34.438 103.492 34.775 102.021 35.2357 100.874C35.73 99.721 36.4874 98.696 37.4686 97.7711C38.4499 96.8461 39.3311 96.145 40.118 95.7012C42.3498 94.2195 43.2611 96.341 42.7861 98.4216C42.4378 99.8256 41.5822 101.695 40.0839 103.639C39.3209 104.63 38.334 105.521 37.1289 106.346C35.9181 107.138 35.7181 107.586 36.4897 107.662C37.2669 107.771 38.1828 107.478 39.2487 106.849C41.4197 105.619 43.0185 103.658 44.1588 101.637C45.8775 98.5529 46.2145 97.0819 45.9008 94.8246C45.7014 93.4445 45.4082 92.5286 44.2389 92.1405C42.5549 91.5638 40.5067 92.7042 37.8249 95.1933C36.9664 96.0285 36.2028 96.8131 35.467 97.5586C34.7312 98.304 34.3733 98.2267 34.3932 97.3268C34.3994 95.5325 34.313 94.616 33.4006 94.1155C32.9415 93.8484 32.2932 93.8893 31.4222 94.2439C30.579 94.5592 30.3467 95.4262 30.6859 96.8171ZM52.4045 88.1357C51.7954 88.2045 50.9914 88.5476 49.9812 89.0982C49.0046 89.6431 48.246 90.2544 47.7671 90.8873C47.2881 91.5203 46.9211 92.2032 46.6603 92.9026C46.3995 93.602 46.2569 94.5918 46.2773 95.9332C46.3313 97.269 46.7205 98.548 47.4449 99.7701C49.7636 103.481 52.2351 103.821 54.4697 103.373C55.2686 103.203 56.0669 102.826 56.8197 102.181C57.5725 101.537 58.1356 100.993 58.4696 100.522C58.8316 100.013 59.1208 99.4809 59.3316 98.8934C59.5423 98.3059 59.6764 98.2832 59.7395 98.8588C59.7969 99.4008 59.9156 99.8979 60.1685 100.372C60.6292 101.26 61.1343 102.002 62.5661 102.311C64.0257 102.581 64.3138 101.635 63.144 101.041C62.5729 100.724 62.136 100.384 61.861 99.982C61.3503 99.2065 61.1514 98.0332 61.198 96.6804C61.2389 95.2941 61.14 93.897 61.419 91.6771C61.5724 90.5476 61.5088 89.7652 61.2616 89.3243C61.0145 88.8834 60.5781 88.7505 59.9804 88.8863C59.4162 89.0164 59.0202 89.3249 58.8037 89.8789C58.6208 90.4272 58.527 90.8913 58.556 91.2658C58.585 91.6402 58.6259 92.2885 58.6452 93.2163C58.6645 94.1441 58.6054 95.0162 58.4566 95.7657C58.1981 97.2923 57.664 98.2105 56.5771 99.3258C54.9271 100.985 52.8272 101.617 51.0568 100.123C49.8858 99.115 49.0756 97.1832 49.1443 95.7577C49.2687 94.2537 50.2937 92.9765 51.4153 92.2691C52.5704 91.5561 53.4692 91.1624 54.8504 91.3766C56.0368 91.8652 56.7362 92.126 56.9544 92.1924L57.1333 92.2311C57.6702 92.347 58.0441 92.1112 58.1822 91.5016L58.1986 91.3953C58.2651 91.1771 58.2924 90.9311 58.2748 90.6237C58.064 89.1766 57.3686 88.3289 56.222 88.0749L55.9033 88.0255C54.8629 87.788 53.6948 87.8136 52.4045 88.1357ZM63.3365 87.1105C63.0876 88.0838 62.9546 88.5201 62.9137 89.9065C62.9007 91.2536 62.8603 92.8467 63.0609 94.6404C63.1751 95.5177 63.4012 96.4449 63.8063 97.4108C64.2057 98.3432 64.5432 99.1136 64.8409 99.6494C65.1722 100.18 65.5762 100.732 66.0864 101.301C67.0954 102.371 67.7272 102.436 67.204 101.18C66.9284 100.572 66.6528 99.963 66.3551 99.4273C65.7875 98.3165 65.5199 96.5341 65.6239 95.7234C65.6955 95.3319 66.1585 95.012 67.0187 94.7973C67.9125 94.5768 68.5102 94.441 68.8119 94.3899L69.9959 94.0513C70.4874 93.899 70.934 93.6854 71.33 93.3768C71.726 93.0683 71.9879 92.7825 72.0601 92.5979C72.1658 92.4075 72.2277 92.5695 72.2181 93.1229C72.2419 93.6706 72.3107 94.2797 72.4635 94.9779C73.0675 97.1171 73.7595 98.7585 74.5839 99.7568C75.2623 100.504 75.9719 100.418 75.3253 99.0449C75.0049 98.375 74.7345 97.5932 74.5254 96.7665C74.0708 94.0848 73.7555 93.2416 74.089 90.5298L74.414 88.7849L74.7629 87.5878C74.9123 87.0452 75.0174 86.648 75.0112 86.4077C75.0385 86.1617 74.9816 85.8265 74.8743 85.3964C74.7669 84.9663 74.4476 84.71 73.9163 84.6276C73.4186 84.5396 72.9493 84.6191 72.5476 84.8941C71.705 85.4162 71.451 86.5628 71.3527 89.4417C71.3175 90.8616 71.1243 91.7564 70.7397 92.132C70.3886 92.5019 70.0425 92.6984 69.7408 92.7496C69.4335 92.7672 68.9249 92.8189 68.2039 92.8376C67.4829 92.8564 66.9574 92.8075 66.5716 92.7695C65.8279 92.6541 65.3517 92.2865 65.4813 90.6093C65.5739 89.7315 65.7284 89.0156 66.012 88.4502C66.8011 86.7991 66.9506 86.2565 66.2614 85.6492C65.5557 85.1481 63.8018 85.5833 63.3365 87.1105ZM77.5693 84.8361C76.4233 84.789 75.6415 85.0594 75.2575 85.6418C74.9069 86.2185 74.7575 86.7611 74.8149 87.3031C74.9575 88.348 75.3325 88.5258 77.6409 88.5139C79.9494 88.5019 81.0335 88.3872 81.1852 88.6718C81.2471 88.8338 81.2925 89.1019 81.3329 89.5434C81.4414 90.3871 81.6113 93.2206 82.0732 96.5563C82.3181 98.2046 82.5845 99.5733 82.8726 100.662C83.1606 101.752 83.4305 102.327 83.6709 102.32C83.9112 102.314 84.0368 101.224 84.0027 98.9881C83.9686 96.7523 83.9419 95.1705 83.9675 94.3041C83.9873 93.4041 83.9959 92.4371 84.0658 91.4252C84.13 90.3797 84.2118 89.6417 84.2834 89.2502C84.3828 88.8196 84.4436 88.5679 84.4936 88.4559C84.5771 88.3383 85.1078 88.2139 86.1526 88.0713C87.1975 87.9287 88.2145 87.8253 89.2037 87.7611C90.1929 87.6969 90.7122 87.5054 90.7281 87.1923C90.7775 86.8736 90.3798 86.5617 89.6134 86.3122C88.8469 86.0628 87.7787 85.8645 86.4089 85.7174C85.039 85.5702 84.2504 85.3935 84.0544 85.2543C83.8527 85.0816 83.5283 84.9986 83.0811 85.0054C82.6675 85.0066 82.3658 85.0577 82.2039 85.1196C82.042 85.1816 81.5221 85.1662 80.6443 85.0736C79.7664 84.981 78.7489 84.8776 77.5693 84.8361ZM92.4071 83.8386C91.9605 84.0522 91.5594 84.534 91.1702 85.2897C90.8145 86.0397 90.7464 87.672 90.9714 90.2203C91.2242 92.7293 91.5588 94.5003 92.0423 95.5218C92.5202 96.5099 93.165 97.2627 94.0326 97.7019C94.9059 98.1746 95.6667 98.3905 96.2536 98.3945C96.8405 98.3985 97.3314 98.0394 97.7206 97.2837C98.1098 96.5281 98.3876 95.9292 98.5263 95.5264C98.8257 94.648 99.1802 93.4844 99.5944 91.6555C99.8155 90.7214 99.9268 90.5646 99.9342 91.2186L99.9848 93.348C100.015 94.1361 100.369 95.0071 101.021 96.0003C101.666 96.9599 102.511 97.4718 103.557 97.536C104.636 97.5945 105.58 97.2622 106.399 96.6059C108.067 95.2543 107.602 94.9537 105.832 95.702C104.13 96.4389 102.83 95.2798 102.446 93.8276C101.959 91.772 102.062 88.5129 102.877 86.2022C103.194 85.4244 103.449 84.8983 103.711 84.6125C103.968 84.2932 104.235 83.8341 104.507 83.2017C104.779 82.5693 104.577 82.1898 103.855 82.0017C103.134 81.8137 102.396 81.9387 101.654 82.4438C100.912 82.9489 100.183 83.9346 99.4712 85.4346C98.7541 86.901 98.2496 88.4004 97.924 89.9385C97.632 91.4708 97.3723 92.5839 97.1843 93.3054C96.9962 94.027 96.7576 94.6537 96.3956 95.1633C96.0672 95.6673 95.4968 95.5571 94.7235 94.8605C93.9503 94.1639 93.5667 92.9185 93.64 91.1129C93.7133 89.3072 94.0167 87.8419 94.5224 86.7562C95.0224 85.6369 95.2269 84.809 95.1025 84.2784C94.9781 83.7477 94.6253 83.4971 94.0048 83.4988C93.3844 83.5005 92.8537 83.625 92.4071 83.8386ZM106.241 84.0113C106.575 85.3686 106.776 87.576 106.902 90.5549C107.027 93.5338 107.033 95.6019 106.858 96.8042C106.688 98.0399 106.506 99.2086 106.247 100.322C105.705 102.62 105.058 105.11 104.824 107.184C104.522 109.27 105.026 109.805 105.746 109.373C106.087 109.142 106.476 108.387 106.908 107.072C107.806 104.437 108.343 102.518 108.702 100.768C109.06 99.0172 109.511 96.182 109.825 92.5423C109.993 90.6861 110.33 89.2151 110.791 88.068C111.285 86.9152 112.043 85.8902 113.024 84.9653C114.005 84.0403 114.886 83.3392 115.673 82.8954C117.905 81.4136 118.816 83.5352 118.341 85.6158C117.993 87.0198 117.137 88.889 115.639 90.8327C114.876 91.8242 113.889 92.7156 112.684 93.5406C111.473 94.3321 111.273 94.7798 112.045 94.8559C112.822 94.9656 113.738 94.6724 114.804 94.0434C116.975 92.8134 118.574 90.8526 119.714 88.8317C121.433 85.7471 121.77 84.2761 121.456 82.0188C121.257 80.6387 120.964 79.7228 119.794 79.3347C118.11 78.758 116.062 79.8983 113.38 82.3875C112.522 83.2227 111.758 84.0073 111.022 84.7528C110.286 85.4982 109.929 85.4209 109.948 84.5209C109.955 82.7267 109.868 81.8102 108.956 81.3097C108.497 81.0426 107.848 81.0835 106.977 81.4381C106.134 81.7534 105.902 82.6204 106.241 84.0113ZM123.441 78.5787C122.995 78.7923 122.593 79.2741 122.204 80.0298C121.849 80.7798 121.78 82.4121 122.005 84.9603C122.258 87.4694 122.593 89.2403 123.076 90.2619C123.554 91.25 124.199 92.0028 125.067 92.442C125.94 92.9147 126.701 93.1306 127.288 93.1346C127.874 93.1386 128.365 92.7795 128.755 92.0238C129.144 91.2682 129.422 90.6693 129.56 90.2665C129.86 89.3881 130.214 88.2245 130.628 86.3955C130.849 85.4615 130.961 85.3047 130.968 85.9586L131.019 88.0881C131.049 88.8762 131.403 89.7472 132.054 90.7403C132.7 91.7 133.545 92.2119 134.591 92.2761C135.67 92.3346 136.613 92.0022 137.433 91.346C139.101 89.9943 138.636 89.6938 136.866 90.4421C135.164 91.179 133.864 90.0199 133.479 88.5677C132.993 86.512 133.096 83.253 133.911 80.9423C134.228 80.1645 134.483 79.6383 134.745 79.3525C135.002 79.0332 135.269 78.5742 135.541 77.9418C135.813 77.3094 135.611 76.9299 134.889 76.7418C134.168 76.5537 133.43 76.6787 132.688 77.1838C131.946 77.6889 131.216 78.6747 130.505 80.1747C129.788 81.6411 129.284 83.1405 128.958 84.6785C128.666 86.2109 128.406 87.3239 128.218 88.0455C128.03 88.7671 127.792 89.3938 127.43 89.9034C127.101 90.4074 126.531 90.2971 125.757 89.6006C124.984 88.904 124.601 87.6586 124.674 85.8529C124.747 84.0473 125.051 82.582 125.556 81.4962C126.056 80.3769 126.261 79.5491 126.136 79.0184C126.012 78.4878 125.659 78.2372 125.039 78.2389C124.418 78.2406 123.888 78.365 123.441 78.5787ZM137.83 87.5199C137.323 87.9852 137.229 88.4494 137.527 88.9852C137.824 89.521 138.345 89.7431 139.066 89.7244C139.82 89.7 140.412 89.3238 140.812 88.6352C141.681 87.2466 142.521 85.8972 143.026 84.6046C143.293 83.9387 143.665 83.0825 144.17 81.9967C144.676 80.911 144.977 80.653 145.068 81.1894C145.159 81.7257 145.379 82.4127 145.694 83.2558C146.004 84.0655 146.448 84.8524 146.953 85.5944C147.458 86.3364 148.253 86.9603 149.333 87.4324C150.413 87.9046 150.945 87.987 150.994 87.6682C151.038 87.316 150.763 86.9143 150.141 86.5023C148.892 85.645 147.898 83.641 147.507 81.9485C147.326 81.0826 147.206 80.1718 147.142 79.1826C147.075 77.1594 147.502 76.0179 148.087 75.4015C148.377 75.0765 148.532 74.5674 148.547 73.8407C148.562 73.114 148.253 72.718 147.627 72.6862C147.029 72.6152 146.515 72.8402 146.075 73.2941C145.668 73.7424 145.284 74.3248 144.923 75.0412C144.239 76.502 143.32 77.5889 141.589 78.1582C139.857 78.7275 138.441 77.8985 138.443 76.4844C138.457 75.7577 138.562 75.1537 138.756 74.6725C139.222 73.1452 140.859 72.8333 142.788 73.2305C144.069 73.4617 144.903 74.1134 144.975 73.722C145.008 73.5095 144.778 73.1691 144.29 72.7345C142.727 71.4476 141.084 71.3123 139.559 71.8811C138.532 72.3311 138.158 72.5669 137.451 73.4799C137.111 73.9168 136.85 74.4094 136.678 75.0247C136.28 76.5406 136.223 78.4468 137.882 79.89C138.997 80.7701 140.182 81.0519 141.797 80.6059C142.618 80.3633 142.731 80.8269 142.136 81.9967C141.574 83.1609 140.828 84.2529 139.937 85.3006C139.04 86.3148 138.338 87.0546 137.83 87.5199ZM160.616 74.7953C160.95 76.1527 161.151 78.36 161.277 81.3389C161.402 84.3178 161.408 86.3859 161.232 87.5882C161.063 88.824 160.881 89.9927 160.622 91.1057C160.08 93.4045 159.433 95.8937 159.198 97.968C158.897 100.054 159.401 100.589 160.121 100.157C160.461 99.9265 160.851 99.1709 161.283 97.8561C162.181 95.221 162.718 93.3023 163.077 91.5517C163.435 89.8012 163.886 86.9661 164.2 83.3264C164.368 81.4702 164.705 79.9992 165.166 78.852C165.66 77.6992 166.418 76.6743 167.399 75.7493C168.38 74.8243 169.261 74.1232 170.048 73.6795C172.28 72.1977 173.191 74.3192 172.716 76.3998C172.368 77.8038 171.512 79.6731 170.014 81.6168C169.251 82.6082 168.264 83.4997 167.059 84.3246C165.848 85.1161 165.648 85.5638 166.42 85.64C167.197 85.7496 168.113 85.4564 169.179 84.8275C171.35 83.5974 172.949 81.6367 174.089 79.6157C175.808 76.5311 176.145 75.0601 175.831 72.8028C175.632 71.4227 175.338 70.5068 174.169 70.1188C172.485 69.5421 170.437 70.6824 167.755 73.1715C166.897 74.0067 166.133 74.7914 165.397 75.5368C164.661 76.2822 164.303 76.2049 164.323 75.305C164.33 73.5107 164.243 72.5942 163.331 72.0937C162.872 71.8266 162.223 71.8676 161.352 72.2221C160.509 72.5374 160.277 73.4044 160.616 74.7953ZM181.831 77.9932C183.183 78.0398 184.86 77.9625 187.462 76.8319C188.774 76.2302 189.677 75.4563 190.228 74.4319C191.368 72.411 190.719 70.2104 189.179 69.0576C187.706 67.8934 185.378 66.9776 182.556 67.4213C181.176 67.6207 179.987 68.1326 179.011 68.8843C177.064 70.4212 175.987 72.8109 176.261 75.2472C176.718 78.7562 177.78 80.542 180.132 82.2124C180.944 82.73 181.995 83.0345 183.287 83.126C184.584 83.251 185.819 83.0073 187.052 82.3499C189.558 81.063 190.576 79.3386 190.825 78.3654C191.108 77.3864 190.443 77.5336 190.115 78.0375C189.981 78.2671 189.636 78.6705 189.084 79.2812C188.532 79.892 187.578 80.3642 186.159 80.7426C184.735 81.0874 183.477 80.9903 182.385 80.4511C180.163 79.3449 179.349 78.2068 178.835 75.9836C178.575 74.8552 178.7 73.7649 179.184 72.7518C179.667 71.7388 180.269 71.0161 180.922 70.5951C182.255 69.7138 183.758 69.6315 185.095 69.9911C186.499 70.3394 187.62 71.253 187.439 72.6286C187.379 73.2939 186.978 73.7757 186.241 74.1075C185.532 74.4001 184.761 74.5308 183.917 74.4325C183.073 74.3342 182.162 74.4541 181.207 74.7194C179.257 75.2222 179.226 76.0552 179.524 76.7978C179.811 77.4733 180.545 77.9352 181.831 77.9932ZM203.097 81.1133C203.121 79.4196 202.832 78.1236 201.202 76.848C200.367 76.1963 199.5 75.964 198.567 76.1566C197.634 76.3492 198.18 75.7049 200.228 74.1509C202.275 72.597 203.215 71.0237 203.071 69.3584C202.926 67.6931 202.325 66.3812 201.232 65.4284C199.086 63.5506 196.23 63.5864 193.584 64.8625C192.272 65.4642 191.402 66.2324 190.929 67.1056C190.457 67.9789 190.487 68.767 190.986 69.4755C191.486 70.184 192.085 70.4618 192.749 70.3147C193.448 70.1618 193.899 69.7749 194.099 69.1204C194.708 67.2238 196.73 66.5363 198.699 67.1681C199.387 67.3619 199.942 67.7852 200.324 68.4102C200.705 69.0352 200.646 69.9073 200.146 71.0266C199.646 72.1459 198.654 73.2106 197.204 74.2151C194.336 76.2185 193.563 77.7633 194.074 78.5389C194.344 78.9071 194.992 78.8662 196.053 78.4105C198.208 77.4935 198.99 77.4298 200.351 78.3372C201.017 78.8105 201.355 79.5809 201.302 80.6934C201.255 81.8394 201.09 82.9019 200.785 83.9535C200.514 84.9995 199.953 86.1637 199.129 87.4069C196.691 91.1306 194.362 91.6289 192.913 91.2193C191.9 90.9426 191.762 89.5176 192.066 88.0523C192.187 87.3421 192.615 86.4074 193.316 85.2541C195.419 81.7939 199.52 79.1332 198.933 78.9224C198.809 78.8054 198.201 79.0809 197.18 79.7712C196.153 80.428 195.138 81.1519 194.128 81.9093C193.152 82.6609 192.271 83.5689 191.447 84.6052C190.623 85.6415 189.972 86.8898 189.462 88.3557C188.952 89.8216 188.972 91.163 189.484 92.3522C190.002 93.5749 190.976 94.2374 192.441 94.334C193.878 94.4697 195.162 94.1141 196.295 93.2669C197.433 92.4533 198.386 91.5676 199.127 90.6488C199.868 89.7301 200.575 88.6102 201.247 87.2893C202.638 84.7086 203.068 82.7735 203.097 81.1133ZM206.899 62.4334C206.667 61.4726 206.274 60.9874 205.687 60.9834C205.134 60.9737 204.654 61.193 204.281 61.6356C203.902 62.0447 203.62 63.2305 203.435 65.1929C203.245 67.1219 203.261 69.0502 203.552 70.9667C203.803 72.8553 204.388 74.2734 205.268 75.1933C206.148 76.1131 207.223 76.5518 208.452 76.4813C209.71 76.3717 210.731 75.8882 211.573 74.9524C212.414 74.0166 212.998 72.9865 213.358 71.8564C213.752 70.7207 213.985 70.0605 214.124 69.8644C214.263 69.6684 214.299 70.49 214.265 72.3235C214.203 76.024 213.938 79.3449 213.479 81.3193C213.026 83.3272 212.528 85.0669 211.029 86.597C208.688 89.0628 207.04 87.2731 207.578 85.768C207.699 85.2646 207.954 84.5317 208.337 83.5357C208.76 82.5675 209.193 81.6664 209.638 80.8323C210.6 79.1864 211.252 78.3517 212.042 77.1143C212.454 76.4927 212.593 76.0899 212.464 75.9393C212.335 75.7887 211.967 76.058 211.304 76.8256C210.641 77.5932 210.128 78.2318 209.699 78.7529C208.085 81.0267 205.373 84.9692 205.728 88.0816C205.852 90.4401 207.242 91.7218 209.275 91.1014C210.559 90.7457 211.579 89.6418 212.653 87.839C213.727 86.0362 214.198 84.5425 214.674 82.6687C214.895 81.7346 215.088 80.8397 215.192 80.029C215.329 79.2125 215.395 78.5807 215.427 78.1614C215.465 77.7756 215.518 76.87 215.554 75.4501C215.663 72.6382 215.801 69.7872 215.603 66.7861L215.398 63.5447C215.351 62.8629 215.188 62.3044 214.879 61.9084C214.133 60.759 213.093 60.7283 212.688 61.797C212.571 62.1271 212.55 62.4067 212.55 62.6135C212.551 62.8203 212.608 63.3623 212.723 64.2396C212.984 65.9884 212.905 67.5537 212.779 68.4372C212.752 68.89 212.608 69.4662 212.353 70.1991C211.904 71.6201 211.276 72.7956 209.378 73.8069C208.463 74.3069 207.518 74.2257 206.611 73.5518C205.698 72.8445 205.309 71.5655 205.41 69.7207C205.539 67.8366 205.881 66.3992 206.432 65.3748C206.982 64.3504 207.164 63.3884 206.899 62.4334ZM220.319 73.9182C220.486 73.4762 220.567 72.7381 220.632 71.6927C220.696 70.6473 220.777 69.7024 220.942 68.8468C221.234 67.1076 221.761 65.5355 222.233 64.4554C222.727 63.3026 223.362 62.3674 223.843 62.5617C224.095 62.6225 224.315 63.3094 224.503 64.6224C224.94 67.2036 225.789 69.1632 227.013 70.8871C227.641 71.7461 228.347 72.4541 229.159 72.9717C229.971 73.4893 230.419 73.6893 230.558 73.4933C230.998 73.0393 227.978 70.2751 227.053 67.2593C225.432 62.9821 226.549 60.6203 225.807 59.2976C225.324 58.276 223.325 59.0976 221.321 62.3339C219.947 64.6014 218.809 67.4496 218.211 69.62L217.359 72.7302C217.082 73.7427 217.034 74.475 217.287 74.9494C217.877 76.1943 219.981 74.9756 220.319 73.9182ZM229.464 70.6786C229.842 72.0973 230.471 73.1632 231.451 73.8592C231.961 74.2211 232.716 74.4035 233.655 74.4512C234.6 74.5325 235.471 74.3848 236.214 74.0865C239.274 72.8092 239.556 70.0025 237.655 67.7383C236.73 66.5503 235.338 66.4759 233.703 67.4082C232.056 68.2735 232.36 68.8428 233.024 68.6957L234.599 68.2218C235.32 67.9963 235.929 68.1343 236.406 68.7088C236.883 69.2832 237.103 69.9701 237.038 70.8087C237.007 71.6416 236.583 72.1962 235.768 72.4723C234.98 72.7092 234.371 72.778 233.935 72.645C233.057 72.3456 231.887 71.7507 231.731 70.0184C231.57 68.2525 231.653 66.1003 231.979 64.5623C232.299 62.9907 233.179 61.876 234.187 60.705C234.706 60.0999 234.715 59.5465 234.261 59.1062C233.807 58.6658 233.148 58.6397 232.282 59.0277C230.624 59.826 229.845 61.1305 229.505 63.3952C229.193 65.6208 229.145 66.7668 229.183 68.4156C229.214 69.2036 229.311 69.9803 229.464 70.6786ZM239.908 57.3214C238.762 57.2742 237.981 57.5447 237.597 58.127C237.246 58.7037 237.097 59.2463 237.154 59.7883C237.297 60.8332 237.672 61.011 239.98 60.9991C242.288 60.9872 243.373 60.8724 243.524 61.1571C243.586 61.319 243.632 61.5872 243.672 62.0287C243.78 62.8724 243.95 65.7058 244.412 69.0415C244.657 70.6898 244.924 72.0585 245.212 73.1477C245.5 74.2369 245.77 74.8119 246.01 74.8056C246.25 74.7994 246.376 73.7091 246.342 71.4733C246.308 69.2376 246.281 67.6558 246.307 66.7893C246.326 65.8894 246.335 64.9223 246.405 63.9104C246.469 62.865 246.551 62.1269 246.622 61.7355C246.722 61.3048 246.783 61.0531 246.833 60.9412C246.916 60.8236 247.447 60.6991 248.492 60.5565C249.537 60.4139 250.554 60.3105 251.543 60.2463C252.532 60.1821 253.051 59.9907 253.067 59.6776C253.117 59.3588 252.719 59.0469 251.952 58.7975C251.186 58.5481 250.118 58.3498 248.748 58.2026C247.378 58.0555 246.59 57.8788 246.393 57.7396C246.192 57.5668 245.867 57.4839 245.42 57.4907C245.007 57.4918 244.705 57.543 244.543 57.6049C244.381 57.6668 243.861 57.6515 242.983 57.5589C242.106 57.4663 241.088 57.3628 239.908 57.3214ZM259.265 53.0751C258.656 53.1438 257.852 53.487 256.842 54.0376C255.865 54.5824 255.106 55.1938 254.627 55.8267C254.148 56.4596 253.781 57.1426 253.521 57.842C253.26 58.5414 253.117 59.5312 253.138 60.8726C253.192 62.2084 253.581 63.4873 254.305 64.7094C256.624 68.4202 259.096 68.7599 261.33 68.3122C262.129 68.1423 262.927 67.7656 263.68 67.1208C264.433 66.4759 264.996 65.9322 265.33 65.4617C265.692 64.9521 265.981 64.4203 266.192 63.8328C266.403 63.2453 266.537 63.2226 266.6 63.7981C266.657 64.3402 266.776 64.8373 267.029 65.3117C267.49 66.1992 267.995 66.9412 269.427 67.2503C270.886 67.5202 271.174 66.5748 270.004 65.9799C269.433 65.6629 268.996 65.3231 268.721 64.9214C268.211 64.1459 268.012 62.9726 268.058 61.6198C268.099 60.2335 268 58.8363 268.279 56.6165C268.433 55.487 268.369 54.7046 268.122 54.2637C267.875 53.8228 267.439 53.6899 266.841 53.8256C266.277 53.9558 265.881 54.2643 265.664 54.8182C265.481 55.3665 265.387 55.8307 265.416 56.2051C265.445 56.5796 265.486 57.2278 265.506 58.1557C265.525 59.0835 265.466 59.9556 265.317 60.705C265.058 62.2317 264.524 63.1498 263.437 64.2652C261.787 65.9242 259.688 66.556 257.917 65.0629C256.746 64.0544 255.936 62.1226 256.005 60.6971C256.129 59.1931 257.154 57.9159 258.276 57.2085C259.431 56.4955 260.33 56.1017 261.711 56.3159C262.897 56.8045 263.597 57.0653 263.815 57.1318L263.994 57.1704C264.531 57.2864 264.904 57.0506 265.043 56.4409L265.059 56.3347C265.125 56.1165 265.153 55.8705 265.135 55.5631C264.924 54.116 264.229 53.2683 263.082 53.0143L262.764 52.9649C261.723 52.7274 260.555 52.7529 259.265 53.0751ZM271.728 51.9283C270.582 51.8811 269.8 52.1516 269.416 52.7339C269.066 53.3106 268.916 53.8532 268.974 54.3953C269.116 55.4401 269.491 55.618 271.8 55.606C274.108 55.5941 275.192 55.4793 275.344 55.764C275.406 55.9259 275.451 56.1941 275.492 56.6356C275.6 57.4793 275.77 60.3127 276.232 63.6485C276.477 65.2967 276.743 66.6654 277.031 67.7546C277.319 68.8438 277.589 69.4188 277.83 69.4125C278.07 69.4063 278.195 68.316 278.161 66.0802C278.127 63.8445 278.101 62.2627 278.126 61.3962C278.146 60.4963 278.155 59.5292 278.224 58.5173C278.289 57.4719 278.37 56.7339 278.442 56.3424C278.542 55.9117 278.602 55.66 278.652 55.5481C278.736 55.4305 279.267 55.3061 280.311 55.1634C281.356 55.0208 282.373 54.9174 283.362 54.8532C284.352 54.789 284.871 54.5976 284.887 54.2845C284.936 53.9658 284.539 53.6538 283.772 53.4044C283.006 53.155 281.937 52.9567 280.568 52.8095C279.198 52.6624 278.409 52.4857 278.213 52.3465C278.011 52.1737 277.687 52.0908 277.24 52.0976C276.826 52.0987 276.525 52.1499 276.363 52.2118C276.201 52.2737 275.681 52.2584 274.803 52.1658C273.925 52.0732 272.908 51.9698 271.728 51.9283ZM291.084 47.682C290.475 47.7507 289.671 48.0939 288.661 48.6445C287.685 49.1893 286.926 49.8007 286.447 50.4336C285.968 51.0666 285.601 51.7495 285.34 52.4489C285.08 53.1483 284.937 54.1381 284.957 55.4795C285.011 56.8153 285.401 58.0942 286.125 59.3164C288.444 63.0271 290.915 63.3668 293.15 62.9191C293.949 62.7492 294.747 62.3726 295.5 61.7277C296.253 61.0828 296.816 60.5391 297.15 60.0686C297.512 59.559 297.801 59.0272 298.012 58.4397C298.222 57.8522 298.356 57.8295 298.42 58.405C298.477 58.9471 298.596 59.4442 298.848 59.9186C299.309 60.8061 299.814 61.5482 301.246 61.8572C302.706 62.1271 302.994 61.1817 301.824 60.5868C301.253 60.2698 300.816 59.93 300.541 59.5283C300.03 58.7528 299.831 57.5795 299.878 56.2267C299.919 54.8404 299.82 53.4432 300.099 51.2234C300.252 50.0939 300.189 49.3115 299.942 48.8706C299.695 48.4297 299.258 48.2968 298.66 48.4326C298.096 48.5627 297.7 48.8712 297.484 49.4251C297.301 49.9734 297.207 50.4376 297.236 50.812C297.265 51.1865 297.306 51.8347 297.325 52.7626C297.345 53.6904 297.285 54.5625 297.137 55.3119C296.878 56.8386 296.344 57.7568 295.257 58.8721C293.607 60.5311 291.507 61.1629 289.737 59.6698C288.566 58.6613 287.756 56.7295 287.824 55.304C287.949 53.8 288.974 52.5228 290.095 51.8154C291.25 51.1024 292.149 50.7086 293.53 50.9228C294.717 51.4115 295.416 51.6722 295.634 51.7387L295.813 51.7774C296.35 51.8933 296.724 51.6575 296.862 51.0478L296.879 50.9416C296.945 50.7234 296.972 50.4774 296.955 50.17C296.744 48.7229 296.049 47.8752 294.902 47.6212L294.583 47.5718C293.543 47.3343 292.375 47.3598 291.084 47.682ZM303.363 58.6707C303.17 59.7724 303.485 60.4087 304.252 60.6581L304.431 60.6968C304.537 60.7133 304.682 60.7576 304.856 60.7627C305.783 60.5366 306.402 60.1212 306.753 59.5445L306.825 59.3599L306.852 58.9071C306.816 58.0855 306.35 57.5781 305.461 57.4185L305.349 57.3685C305.098 57.3077 304.818 57.2861 304.511 57.3037C303.974 57.3946 303.595 57.8037 303.402 58.4917L303.363 58.6707ZM303.047 47.4477C301.93 47.7749 301.445 48.3743 301.588 49.2124L301.622 49.4135C301.639 49.5141 301.661 49.6482 301.723 49.8101C302.202 51.005 302.896 51.439 303.767 51.0845L303.968 51.0504C304.236 51.005 305.197 50.5663 305.225 48.9062L305.203 48.7721C305.157 48.5039 305.045 48.2471 304.893 47.9624C304.534 47.4715 303.986 47.2886 303.248 47.4136L303.047 47.4477ZM317.055 38.3144C317.192 39.3257 317.477 41.2086 317.937 43.9239C318.397 46.6392 318.633 48.8408 318.648 50.5624C318.659 52.2504 318.326 53.3413 317.612 53.8072C316.931 54.2674 316.649 55.2464 316.798 56.7384C316.948 58.2304 317.448 59.1457 318.36 59.4394C319.272 59.7332 320.154 59.4457 321.007 58.577C321.86 57.7082 323.536 57.631 325.958 58.2895C328.381 58.948 330.27 59.1105 331.583 58.7156C334.219 57.9929 336.824 56.0685 338.041 53.4828C338.68 52.1675 338.893 50.1659 338.679 47.4778C338.492 44.7506 337.534 41.9473 335.766 39.04C332.256 33.1861 326.503 30.7816 319.46 32.5617C315.918 33.4378 314.205 34.3145 314.252 35.2031C314.299 36.0917 315.954 36.0872 319.21 35.1559C322.466 34.2247 325.088 34.4355 327.098 35.7156C331.146 38.2366 333.425 41.5058 334.332 44.2143C334.8 45.5489 334.927 47.1136 334.714 48.9085C334.495 50.6698 333.963 52.2084 333.117 53.5243C332.271 54.8402 331.077 55.5254 329.495 55.5521C327.913 55.5788 326.291 55.3708 324.608 55.0009C322.952 54.5918 321.992 52.789 321.726 49.5925C321.194 43.1995 321.374 39.5825 321.42 38.0229C321.457 37.2235 321.109 36.5928 320.409 36.1252C319.703 35.6241 318.943 35.615 318.122 36.0644C317.302 36.5139 316.946 37.2638 317.055 38.3144ZM339.029 45.5907C338.902 46.2674 338.9 47.268 339.015 48.5589C339.13 49.8497 339.34 50.8832 339.711 51.648C340.481 53.1383 341.143 54.1985 343.331 55.1036C344.445 55.5701 345.619 55.578 346.864 55.1945C348.11 54.811 349.092 54.2996 349.839 53.6213C351.367 52.2588 351.871 50.7594 352.236 49.0424C352.395 48.1532 352.493 47.1021 352.462 45.9004C352.464 44.6931 352.333 43.7153 352.046 43.0397C351.533 41.6437 350.653 40.7238 349.718 40.0892C348.777 39.421 347.257 39.4028 345.867 40.1557C345.203 40.5096 344.796 40.9579 344.714 41.4892C344.631 42.0204 344.799 42.1988 345.173 41.963C345.581 41.7215 346.022 41.4744 346.569 41.2437C347.697 40.7767 349.28 41.3704 349.926 42.5369C350.914 44.0937 351.045 47.1061 349.906 49.5407C349.167 51.0798 347.845 52.0281 346.219 52.2003C344.587 52.3389 343.478 51.6991 342.726 50.3094C341.792 48.0538 341.635 46.1146 342.463 44.0777C343.264 42.9073 343.732 42.2073 343.838 42.017L343.915 41.8658C344.232 41.2948 344.153 40.8255 343.71 40.4522L343.632 40.3966C343.469 40.2517 343.279 40.146 343.016 40.0182C341.763 39.7477 340.842 40.2142 340.247 41.384L340.086 41.6528C339.541 42.7107 339.209 44.0084 339.029 45.5907ZM353.288 42.0361C353.563 42.6446 354.089 42.9002 354.827 42.7753C355.559 42.6167 356.128 42.3133 356.535 41.8651C356.969 41.3776 357.343 40.935 357.683 40.498C358.368 39.6577 359.477 38.6765 360.742 39.014C361.351 39.1521 361.537 39.6378 361.22 40.4157C360.938 41.1878 360.571 41.8707 360.119 42.4645C359.239 43.5792 357.834 44.8519 356.607 45.7496C355.988 46.1649 355.385 46.6808 354.822 47.2246C354.259 47.7683 353.909 48.5518 353.784 49.6421C353.588 51.7443 354.351 52.7875 355.538 53.2761C356.164 53.5148 356.975 53.6187 357.998 53.5489C359.06 53.5068 360.093 53.0904 361.158 52.2546C363.328 50.6109 364.063 49.6586 364.11 48.5126C364.146 47.2996 363.655 47.4519 362.735 48.5388C362.306 49.0598 361.765 49.5308 361.14 49.9126C359.89 50.6762 358.874 50.9864 358.158 50.8319C357.794 50.7211 357.503 50.4256 357.306 49.8728C357.109 49.32 357.403 48.6149 358.183 47.724C359.777 45.9365 361.298 44.3338 362.329 43.09C363.393 41.8406 363.886 40.0674 363.35 38.3305C363.096 37.4424 362.524 36.9186 361.635 36.7589C360.746 36.5993 359.891 36.6408 359.009 36.9282C357.311 37.4919 356.351 37.9305 355.151 38.789C354.566 39.1986 354.058 39.664 353.568 40.2299C353.078 40.7958 353.006 41.394 353.288 42.0361ZM364.301 41.3073C364.175 41.984 364.172 42.9846 364.287 44.2755C364.403 45.5663 364.612 46.5998 364.983 47.3646C365.753 48.8549 366.416 49.9151 368.604 50.8202C369.717 51.2867 370.891 51.2946 372.137 50.9111C373.382 50.5276 374.364 50.0162 375.111 49.3379C376.639 47.9754 377.144 46.476 377.508 44.759C377.668 43.8698 377.765 42.8187 377.734 41.617C377.736 40.4097 377.605 39.4319 377.318 38.7563C376.806 37.3603 375.926 36.4404 374.99 35.8058C374.05 35.1376 372.529 35.1194 371.139 35.8723C370.475 36.2262 370.068 36.6745 369.986 37.2058C369.904 37.737 370.072 37.9154 370.446 37.6796C370.853 37.4381 371.294 37.191 371.841 36.9603C372.969 36.4933 374.552 37.087 375.198 38.2535C376.186 39.8103 376.318 42.8227 375.178 45.2573C374.439 46.7964 373.117 47.7447 371.491 47.9169C369.859 48.0555 368.751 47.4157 367.998 46.026C367.064 43.7704 366.908 41.8312 367.735 39.7943C368.537 38.6239 369.004 37.9239 369.11 37.7336L369.188 37.5824C369.505 37.0114 369.425 36.5421 368.983 36.1688L368.904 36.1132C368.742 35.9683 368.551 35.8626 368.288 35.7348C367.036 35.4643 366.115 35.9308 365.52 37.1006L365.358 37.3694C364.813 38.4273 364.482 39.725 364.301 41.3073ZM378.082 40.627C378.264 41.6997 378.518 42.7946 378.885 43.9394C379.245 45.0508 379.773 45.9269 380.462 46.5343C381.152 47.1416 382.136 47.4575 383.428 47.549C384.719 47.6405 385.853 47.4138 386.841 46.936C389.894 45.4184 390.78 42.0958 389.61 39.4663C388.378 36.6749 385.258 36.1692 382.747 37.8362C381.904 38.3583 381.263 39.0532 380.886 39.8759C380.508 40.6986 380.81 40.8543 381.753 40.3151C382.696 39.7759 383.528 39.3935 384.204 39.1066C384.879 38.8197 385.606 38.8345 386.35 39.1566C387.128 39.4731 387.466 40.2435 387.351 41.4009C387.271 42.5526 386.775 43.2917 385.899 43.6128C385.022 43.9338 384.346 44.0139 383.825 43.7917C382.812 43.3082 381.412 42.1662 380.808 40.027C380.52 38.9379 380.388 37.7532 380.401 36.4061C380.417 32.2306 380.58 30.3409 381.302 28.4944C381.767 27.1739 382.279 26.1217 383.499 24.57C384.095 23.8138 384.803 23.1076 385.634 22.5184C387.251 21.2786 388.241 21.4213 387.795 23.8763C387.349 26.3314 386.147 28.3972 385.279 29.7858C384.411 31.1744 383.486 32.021 381.74 33.317C380.886 33.9789 380.407 34.6118 380.348 35.2772C380.189 36.58 380.473 38.0492 381.741 38.0066C382.39 37.9657 383.071 37.7123 383.746 37.2186C385.101 36.2646 385.691 35.0613 386.832 33.4539C387.417 32.6306 387.995 31.567 388.579 30.3301C389.162 29.0932 389.573 28.058 389.822 27.2916C390.1 26.4859 390.293 25.591 390.441 24.6348C390.589 23.6786 390.576 22.7843 390.4 21.9519C390.021 20.3264 389.091 19.3117 387.38 19.1878C386.508 19.1287 385.67 19.2707 384.866 19.6139C383.224 20.3059 381.717 21.182 379.964 23.6519C379.1 24.8672 378.501 26.4171 378.177 28.3688C377.847 30.2869 377.661 31.8358 377.625 33.0488C377.589 34.2618 377.598 35.5362 377.664 36.939C377.723 38.3083 377.861 39.5265 378.082 40.627ZM390.196 36.9185C390.069 37.5952 390.066 38.5958 390.182 39.8866C390.297 41.1775 390.507 42.211 390.878 42.9758C391.648 44.4661 392.31 45.5263 394.498 46.4314C395.612 46.8978 396.785 46.9058 398.031 46.5223C399.276 46.1388 400.259 45.6274 401.006 44.949C402.534 43.5866 403.038 42.0872 403.402 40.3702C403.562 39.481 403.66 38.4299 403.628 37.2282C403.631 36.0208 403.5 35.043 403.213 34.3675C402.7 32.9715 401.82 32.0516 400.885 31.417C399.944 30.7488 398.424 30.7306 397.034 31.4834C396.37 31.8374 395.963 32.2857 395.88 32.8169C395.798 33.3482 395.966 33.5266 396.34 33.2908C396.747 33.0493 397.188 32.8022 397.735 32.5715C398.863 32.1045 400.447 32.6982 401.093 33.8646C402.081 35.4214 402.212 38.4339 401.073 40.8685C400.334 42.4076 399.012 43.3559 397.385 43.528C395.754 43.6667 394.645 43.0269 393.892 41.6372C392.958 39.3815 392.802 37.4424 393.629 35.4055C394.431 34.2351 394.899 33.5351 395.004 33.3448L395.082 33.1936C395.399 32.6226 395.32 32.1533 394.877 31.78L394.799 31.7243C394.636 31.5795 394.446 31.4738 394.183 31.3459C392.93 31.0755 392.009 31.542 391.414 32.7118L391.253 32.9806C390.708 34.0385 390.376 35.3362 390.196 36.9185ZM404.337 33.4871C404.671 34.8445 404.873 37.0518 404.998 40.0307C405.124 43.0096 405.129 45.0778 404.954 46.28C404.784 47.5158 404.603 48.6845 404.343 49.7975C403.802 52.0963 403.154 54.5855 402.92 56.6599C402.618 58.7456 403.123 59.2808 403.843 58.8484C404.183 58.6183 404.572 57.8627 405.004 56.5479C405.903 53.9128 406.44 51.9941 406.798 50.2435C407.157 48.493 407.607 45.6579 407.921 42.0182C408.09 40.162 408.427 38.691 408.887 37.5439C409.382 36.3911 410.139 35.3661 411.12 34.4411C412.101 33.5161 412.983 32.815 413.77 32.3713C416.001 30.8895 416.913 33.011 416.438 35.0917C416.089 36.4956 415.234 38.3649 413.736 40.3086C412.972 41.3 411.986 42.1915 410.78 43.0165C409.57 43.8079 409.37 44.2556 410.141 44.3318C410.919 44.4414 411.834 44.1483 412.9 43.5193C415.071 42.2892 416.67 40.3285 417.81 38.3075C419.529 35.2229 419.866 33.7519 419.552 31.4946C419.353 30.1145 419.06 29.1986 417.891 28.8106C416.206 28.2339 414.158 29.3742 411.476 31.8633C410.618 32.6985 409.854 33.4832 409.119 34.2286C408.383 34.974 408.025 34.8968 408.045 33.9968C408.051 32.2025 407.965 31.2861 407.052 30.7855C406.593 30.5185 405.945 30.5594 405.074 30.9139C404.231 31.2292 403.998 32.0963 404.337 33.4871ZM420.346 31.8084C420.219 32.4851 420.216 33.4856 420.332 34.7765C420.447 36.0674 420.657 37.1009 421.028 37.8656C421.798 39.356 422.46 40.4162 424.648 41.3213C425.762 41.7877 426.936 41.7957 428.181 41.4122C429.426 41.0287 430.409 40.5173 431.156 39.8389C432.684 38.4765 433.188 36.9771 433.552 35.2601C433.712 34.3709 433.81 33.3198 433.779 32.1181C433.781 30.9107 433.65 29.9329 433.363 29.2574C432.85 27.8614 431.97 26.9415 431.035 26.3069C430.094 25.6387 428.574 25.6205 427.184 26.3733C426.52 26.7273 426.113 27.1756 426.03 27.7068C425.948 28.2381 426.116 28.4165 426.49 28.1807C426.898 27.9392 427.338 27.692 427.886 27.4614C429.013 26.9943 430.597 27.5881 431.243 28.7545C432.231 30.3113 432.362 33.3237 431.223 35.7583C430.484 37.2975 429.162 38.2458 427.536 38.4179C425.904 38.5566 424.795 37.9168 424.042 36.5271C423.108 34.2714 422.952 32.3323 423.779 30.2954C424.581 29.125 425.049 28.425 425.154 28.2346L425.232 28.0835C425.549 27.5125 425.47 27.0432 425.027 26.6699L424.949 26.6142C424.786 26.4693 424.596 26.3637 424.333 26.2358C423.08 25.9654 422.159 26.4318 421.564 27.6017L421.403 27.8704C420.858 28.9284 420.526 30.2261 420.346 31.8084ZM438.923 43.5573C439.005 43.0261 438.952 42.104 438.775 40.858C438.599 39.612 438.506 38.4552 438.498 37.3876C438.508 35.2132 438.794 33.2337 439.103 31.8019C439.44 30.331 439.984 29.0662 440.811 29.0639C441.219 29.0293 441.406 29.9287 441.394 31.6894C441.325 36.9774 443.267 39.8898 444.834 38.5552C445.353 38.1569 445.669 37.3791 445.85 36.2104C446.032 35.0416 446.257 33.7275 446.533 32.3014C446.808 30.8753 447.124 29.6838 447.484 28.7606C448.161 26.8526 448.695 25.9345 449.092 26.0396C449.517 26.1055 449.078 26.9731 448.758 28.5447C448.424 30.8429 447.912 33.7229 450.04 37.328C450.798 38.5444 451.571 39.241 452.371 39.4847C453.171 39.7285 453.652 39.716 453.852 39.4751C454.059 39.2677 453.829 38.9274 453.173 38.5211C451.891 37.6694 450.868 35.4979 450.893 32.5968C450.889 31.1491 450.976 30.031 451.091 29.2873C451.383 27.7549 451.793 26.5129 452.309 24.8737C452.858 23.2289 452.335 22.3863 451.345 22.0369C449.974 21.4761 448.503 23.1738 447.196 25.6368C445.695 28.3742 444.534 31.0883 444.257 33.9286C444.108 34.8848 443.913 34.9524 443.67 34.1314C443.428 33.3104 443.386 32.2485 443.483 30.9906C443.608 29.6935 443.605 28.6594 443.508 27.8827C443.245 25.7203 442.821 24.0334 441.123 24.597C440.062 25.0527 438.719 26.4873 437.453 29.5986C436.815 31.1207 436.299 32.7599 435.941 34.5104C435.246 37.9387 435.097 40.5159 434.874 43.071C434.749 44.3681 434.864 45.2454 435.251 45.697C436.002 46.6732 437.219 45.9152 438.139 45.0351C438.585 44.6147 438.846 44.1221 438.923 43.5573ZM454.994 33.1089C454.745 34.2889 455.027 34.931 455.832 35.0014L456.011 35.0401C456.184 35.0452 456.162 35.1179 457.106 34.9923C457.581 34.9463 457.932 34.5764 458.204 33.9441L458.243 33.7651C458.337 33.5077 458.217 32.3901 456.997 31.9072L456.885 31.8572C456.633 31.7964 456.393 31.8026 456.086 31.8203C455.471 31.8555 455.12 32.2254 455.032 32.9299L454.994 33.1089ZM11.8893 131.216C11.2865 131.525 10.724 132.275 10.2745 133.49C9.81944 134.67 9.81545 137.292 10.2348 141.393C10.6541 145.495 11.2097 148.367 11.8739 150.047C12.5659 151.689 13.5307 152.904 14.7346 153.7C15.9664 154.457 16.9624 154.84 17.7618 154.877C18.5555 154.881 19.2135 154.286 19.7356 153.094C20.2578 151.902 20.6186 150.979 20.7788 150.297C21.1271 148.893 21.5634 146.991 22.0754 144.111C22.3453 142.651 22.5123 142.416 22.5151 143.45C22.5458 144.445 22.6049 145.608 22.681 146.871C22.7572 148.134 23.2418 149.569 24.1685 151.17C25.0952 152.772 26.3105 153.635 27.7474 153.771C29.2178 153.901 30.4854 153.445 31.5836 152.397C33.808 150.261 33.108 149.793 30.7803 150.912C29.6024 151.491 28.6184 151.382 27.7667 150.63C26.915 149.877 26.3701 148.901 26.065 147.711C25.4884 145.326 25.4753 142.604 25.6122 139.546C25.6639 138.02 25.9173 136.666 26.2997 135.463C26.6821 134.261 27.0542 133.404 27.3826 132.9C27.7111 132.396 28.0389 131.686 28.3883 130.695C28.7377 129.705 28.423 129.069 27.4327 128.719C26.4423 128.37 25.4816 128.602 24.4719 129.359C23.4623 130.116 22.522 131.69 21.6118 134.051C20.7016 136.412 20.0766 138.829 19.6976 141.272C19.3521 143.71 19.072 145.517 18.8237 146.697C18.609 147.871 18.2931 148.856 17.8425 149.656C17.4255 150.451 16.6647 150.235 15.538 149.081C14.4449 147.922 13.8915 145.877 13.917 142.976C13.9426 140.075 14.2716 137.743 14.904 135.981C15.5363 134.219 15.7954 132.899 15.6142 132.033C15.4329 131.167 14.9455 130.732 14.0847 130.74C13.2182 130.715 12.4864 130.873 11.8893 131.216ZM36.3192 156.422C36.4016 155.891 36.3487 154.968 36.1721 153.722C35.9954 152.476 35.9027 151.32 35.8942 150.252C35.905 148.078 36.1902 146.098 36.4993 144.666C36.8363 143.195 37.3806 141.931 38.2078 141.928C38.6158 141.894 38.8027 142.793 38.7908 144.554C38.7214 149.842 40.6634 152.754 42.2304 151.42C42.7492 151.021 43.0656 150.244 43.2469 149.075C43.4281 147.906 43.6537 146.592 43.9293 145.166C44.2048 143.74 44.5202 142.548 44.881 141.625C45.5576 139.717 46.0917 138.799 46.4889 138.904C46.9139 138.97 46.4747 139.838 46.1548 141.409C45.8201 143.707 45.3082 146.587 47.4366 150.192C48.1945 151.409 48.9678 152.105 49.7677 152.349C50.5677 152.593 51.0484 152.58 51.249 152.34C51.4552 152.132 51.2251 151.792 50.57 151.386C49.2876 150.534 48.2644 148.362 48.29 145.461C48.286 144.014 48.3723 142.895 48.4877 142.152C48.7797 140.619 49.1899 139.377 49.7053 137.738C50.2541 136.093 49.732 135.251 48.7417 134.901C47.3707 134.341 45.8997 136.038 44.5929 138.501C43.0912 141.239 41.9305 143.953 41.6532 146.793C41.5049 147.749 41.3094 147.817 41.0668 146.996C40.8242 146.175 40.7822 145.113 40.8793 143.855C41.0043 142.558 41.0015 141.524 40.9044 140.747C40.6413 138.585 40.2174 136.898 38.5198 137.462C37.459 137.917 36.1158 139.352 34.8499 142.463C34.2113 143.985 33.696 145.624 33.3375 147.375C32.6426 150.803 32.4932 153.38 32.271 155.935C32.146 157.233 32.2602 158.11 32.6471 158.562C33.3988 159.538 34.6153 158.78 35.5351 157.9C35.9811 157.479 36.2425 156.987 36.3192 156.422ZM56.0123 143.946C57.3651 143.992 59.0417 143.915 61.6434 142.784C62.9553 142.183 63.8587 141.409 64.4092 140.384C65.5495 138.363 64.9007 136.163 63.3604 135.01C61.8871 133.846 59.5594 132.93 56.7378 133.374C55.3578 133.573 54.1686 134.085 53.1925 134.837C51.2459 136.374 50.1681 138.763 50.4431 141.2C50.8999 144.709 51.9612 146.494 54.3134 148.165C55.1253 148.682 56.177 148.987 57.4685 149.078C58.7656 149.203 60.0002 148.96 61.2337 148.302C63.7399 147.015 64.7581 145.291 65.0069 144.318C65.2893 143.339 64.6246 143.486 64.2962 143.99C64.1626 144.219 63.8172 144.623 63.2655 145.234C62.7138 145.844 61.7593 146.317 60.3406 146.695C58.9162 147.04 57.6582 146.943 56.5668 146.403C54.3447 145.297 53.5311 144.159 53.0163 141.936C52.7561 140.808 52.8817 139.717 53.3652 138.704C53.8487 137.691 54.4504 136.968 55.1032 136.547C56.4367 135.666 57.9401 135.584 59.277 135.944C60.6809 136.292 61.8013 137.205 61.6207 138.581C61.561 139.246 61.1599 139.728 60.423 140.06C59.7139 140.352 58.9429 140.483 58.0986 140.385C57.2543 140.287 56.3435 140.406 55.3884 140.672C53.439 141.175 53.4078 142.008 53.7061 142.75C53.993 143.426 54.7265 143.888 56.0123 143.946ZM65.615 131.352C65.3662 132.325 65.2332 132.761 65.1923 134.148C65.1792 135.495 65.1389 137.088 65.3394 138.882C65.4536 139.759 65.6798 140.686 66.0849 141.652C66.4843 142.585 66.8218 143.355 67.1195 143.891C67.4507 144.421 67.8547 144.973 68.3649 145.542C69.374 146.612 70.0058 146.678 69.4825 145.421C69.2069 144.813 68.9314 144.204 68.6337 143.669C68.0661 142.558 67.7985 140.775 67.9024 139.965C67.974 139.573 68.4371 139.253 69.2973 139.039C70.191 138.818 70.7887 138.682 71.0904 138.631L72.2745 138.293C72.766 138.14 73.2125 137.927 73.6086 137.618C74.0046 137.31 74.2665 137.024 74.3387 136.839C74.4443 136.649 74.5063 136.811 74.4966 137.364C74.5205 137.912 74.5892 138.521 74.742 139.219C75.346 141.358 76.038 143 76.8624 143.998C77.5408 144.745 78.2505 144.659 77.6039 143.286C77.2835 142.616 77.013 141.835 76.8039 141.008C76.3494 138.326 76.0341 137.483 76.3676 134.771L76.6926 133.026L77.0414 131.829C77.1909 131.287 77.296 130.889 77.2897 130.649C77.317 130.403 77.2602 130.068 77.1528 129.638C77.0454 129.208 76.7261 128.951 76.1949 128.869C75.6972 128.781 75.2279 128.86 74.8262 129.135C73.9836 129.658 73.7296 130.804 73.6313 133.683C73.5961 135.103 73.4029 135.998 73.0182 136.373C72.6671 136.743 72.3211 136.94 72.0194 136.991C71.712 137.009 71.2035 137.06 70.4825 137.079C69.7615 137.098 69.2359 137.049 68.8501 137.011C68.1064 136.895 67.6303 136.528 67.7598 134.851C67.8525 133.973 68.007 133.257 68.2905 132.692C69.0797 131.04 69.2291 130.498 68.5399 129.89C67.8343 129.389 66.0803 129.825 65.615 131.352ZM83.5762 139.274C84.929 139.32 86.6057 139.243 89.2073 138.112C90.5192 137.511 91.4226 136.737 91.9732 135.713C93.1135 133.692 92.4646 131.491 90.9243 130.338C89.4511 129.174 87.1233 128.258 84.3018 128.702C82.9217 128.901 81.7325 129.413 80.7564 130.165C78.8098 131.702 77.732 134.092 78.007 136.528C78.4638 140.037 79.5251 141.823 81.8774 143.493C82.6893 144.011 83.7409 144.315 85.0324 144.407C86.3295 144.532 87.5641 144.288 88.7976 143.631C91.3038 142.344 92.322 140.619 92.5709 139.646C92.8532 138.667 92.1885 138.814 91.8601 139.318C91.7266 139.548 91.3811 139.951 90.8294 140.562C90.2777 141.173 89.3232 141.645 87.9045 142.023C86.4801 142.368 85.2222 142.271 84.1307 141.732C81.9086 140.625 81.095 139.487 80.5802 137.264C80.32 136.136 80.4456 135.045 80.9291 134.032C81.4126 133.019 82.0143 132.297 82.6671 131.876C84.0006 130.994 85.504 130.912 86.8409 131.272C88.2448 131.62 89.3653 132.534 89.1846 133.909C89.1249 134.574 88.7238 135.056 87.9869 135.388C87.2778 135.681 86.5068 135.811 85.6625 135.713C84.8182 135.615 83.9074 135.735 82.9523 136C81.003 136.503 80.9717 137.336 81.27 138.078C81.5569 138.754 82.2904 139.216 83.5762 139.274ZM97.7651 146.007C97.8475 145.476 97.7947 144.554 97.618 143.308C97.4413 142.062 97.3487 140.905 97.3402 139.838C97.351 137.663 97.6362 135.684 97.9453 134.252C98.2822 132.781 98.8265 131.516 99.6538 131.514C100.062 131.479 100.249 132.379 100.237 134.14C100.167 139.427 102.109 142.34 103.676 141.005C104.195 140.607 104.512 139.829 104.693 138.66C104.874 137.492 105.1 136.178 105.375 134.751C105.651 133.325 105.966 132.134 106.327 131.211C107.004 129.303 107.538 128.385 107.935 128.49C108.36 128.556 107.921 129.423 107.601 130.995C107.266 133.293 106.754 136.173 108.883 139.778C109.64 140.994 110.414 141.691 111.214 141.935C112.014 142.179 112.494 142.166 112.695 141.925C112.901 141.718 112.671 141.377 112.016 140.971C110.734 140.12 109.71 137.948 109.736 135.047C109.732 133.599 109.818 132.481 109.934 131.737C110.226 130.205 110.636 128.963 111.151 127.324C111.7 125.679 111.178 124.836 110.188 124.487C108.817 123.926 107.346 125.624 106.039 128.087C104.537 130.824 103.376 133.538 103.099 136.379C102.951 137.335 102.755 137.403 102.513 136.582C102.27 135.761 102.228 134.699 102.325 133.441C102.45 132.144 102.447 131.109 102.35 130.333C102.087 128.17 101.663 126.483 99.9657 127.047C98.9049 127.503 97.5618 128.937 96.2959 132.049C95.6573 133.571 95.1419 135.21 94.7834 136.96C94.0885 140.389 93.9391 142.966 93.717 145.521C93.592 146.818 93.7062 147.695 94.0931 148.147C94.8448 149.123 96.0612 148.365 96.9811 147.485C97.4271 147.065 97.6884 146.572 97.7651 146.007ZM113.836 135.559C113.588 136.739 113.869 137.381 114.674 137.451L114.853 137.49C115.026 137.495 115.004 137.568 115.949 137.442C116.424 137.396 116.775 137.027 117.047 136.394L117.085 136.215C117.18 135.958 117.059 134.84 115.839 134.357L115.728 134.307C115.476 134.246 115.236 134.253 114.928 134.27C114.313 134.306 113.962 134.675 113.875 135.38L113.836 135.559ZM144.428 115.649C145.288 115.227 145.481 114.332 145.002 112.931C144.523 111.529 143.369 110.621 141.501 110.179C139.66 109.698 137.681 109.619 135.625 109.899C133.563 110.145 131.788 110.86 130.366 112.032C127.549 114.337 125.894 117.997 126.262 121.797C126.446 123.697 126.752 125.3 127.208 126.568C128.554 130.237 130.89 133.841 136.459 134.552C138.326 134.788 140.198 134.436 142.006 133.509C143.848 132.576 145.187 131.521 146.056 130.339C146.924 129.158 147.453 128.206 147.635 127.451C147.818 126.696 147.755 126.327 147.414 126.35C147.101 126.334 146.822 126.52 146.577 126.906C146.366 127.287 145.853 127.925 145.045 128.855C144.265 129.746 142.831 130.438 140.747 130.963C138.658 131.455 136.83 131.248 135.189 130.319C133.549 129.39 132.384 128.415 131.654 127.366C130.953 126.278 130.407 124.888 130.038 123.123C129.67 121.357 129.833 119.674 130.567 118.102C131.3 116.529 132.18 115.414 133.146 114.802C134.105 114.157 135.15 113.807 136.206 113.732C137.262 113.656 138.314 113.961 139.294 114.657C140.274 115.353 141.181 115.82 141.969 115.997C142.758 116.173 143.563 116.037 144.428 115.649ZM151.167 130.266C151.334 129.824 151.415 129.086 151.48 128.041C151.544 126.995 151.625 126.05 151.79 125.195C152.082 123.456 152.609 121.884 153.081 120.803C153.575 119.651 154.21 118.715 154.691 118.91C154.943 118.971 155.163 119.657 155.351 120.97C155.788 123.552 156.638 125.511 157.861 127.235C158.489 128.094 159.195 128.802 160.007 129.32C160.819 129.837 161.267 130.037 161.406 129.841C161.846 129.387 158.826 126.623 157.901 123.607C156.28 119.33 157.397 116.968 156.655 115.646C156.172 114.624 154.173 115.446 152.169 118.682C150.795 120.949 149.657 123.798 149.059 125.968L148.207 129.078C147.93 130.091 147.882 130.823 148.135 131.297C148.725 132.542 150.829 131.324 151.167 130.266ZM160.243 120.521C160.117 121.197 160.114 122.198 160.229 123.489C160.345 124.78 160.554 125.813 160.925 126.578C161.695 128.068 162.358 129.128 164.546 130.033C165.659 130.5 166.833 130.508 168.078 130.124C169.324 129.741 170.306 129.229 171.053 128.551C172.581 127.189 173.086 125.689 173.45 123.972C173.61 123.083 173.707 122.032 173.676 120.83C173.678 119.623 173.547 118.645 173.26 117.969C172.748 116.573 171.868 115.654 170.932 115.019C169.992 114.351 168.471 114.333 167.081 115.085C166.417 115.439 166.01 115.888 165.928 116.419C165.846 116.95 166.014 117.129 166.388 116.893C166.795 116.651 167.236 116.404 167.783 116.173C168.911 115.706 170.494 116.3 171.14 117.467C172.128 119.023 172.26 122.036 171.12 124.47C170.381 126.01 169.059 126.958 167.433 127.13C165.801 127.269 164.693 126.629 163.94 125.239C163.006 122.984 162.85 121.044 163.677 119.008C164.479 117.837 164.946 117.137 165.052 116.947L165.13 116.796C165.447 116.225 165.367 115.755 164.925 115.382L164.846 115.326C164.684 115.181 164.493 115.076 164.23 114.948C162.977 114.677 162.056 115.144 161.462 116.314L161.3 116.583C160.755 117.64 160.424 118.938 160.243 120.521ZM174.024 119.84C174.205 120.913 174.46 122.008 174.826 123.153C175.187 124.264 175.715 125.14 176.404 125.747C177.093 126.355 178.078 126.671 179.37 126.762C180.661 126.854 181.795 126.627 182.783 126.149C185.836 124.632 186.722 121.309 185.552 118.679C184.32 115.888 181.2 115.382 178.689 117.049C177.846 117.572 177.205 118.266 176.828 119.089C176.45 119.912 176.752 120.067 177.695 119.528C178.638 118.989 179.47 118.607 180.146 118.32C180.821 118.033 181.548 118.048 182.292 118.37C183.07 118.686 183.408 119.457 183.293 120.614C183.213 121.766 182.717 122.505 181.841 122.826C180.964 123.147 180.288 123.227 179.767 123.005C178.754 122.521 177.354 121.379 176.75 119.24C176.462 118.151 176.33 116.966 176.343 115.619C176.359 111.444 176.522 109.554 177.243 107.708C177.709 106.387 178.221 105.335 179.441 103.783C180.037 103.027 180.745 102.321 181.576 101.732C183.193 100.492 184.183 100.634 183.737 103.089C183.291 105.545 182.089 107.61 181.221 108.999C180.353 110.388 179.428 111.234 177.682 112.53C176.828 113.192 176.349 113.825 176.29 114.49C176.131 115.793 176.415 117.262 177.683 117.22C178.332 117.179 179.013 116.926 179.688 116.432C181.043 115.478 181.633 114.274 182.774 112.667C183.359 111.844 183.937 110.78 184.521 109.543C185.104 108.306 185.515 107.271 185.764 106.505C186.042 105.699 186.235 104.804 186.383 103.848C186.531 102.892 186.518 101.997 186.342 101.165C185.963 99.5396 185.033 98.5248 183.322 98.401C182.45 98.3419 181.612 98.4839 180.808 98.8271C179.166 99.5191 177.659 100.395 175.905 102.865C175.042 104.08 174.443 105.63 174.119 107.582C173.788 109.5 173.603 111.049 173.567 112.262C173.531 113.475 173.54 114.749 173.605 116.152C173.665 117.522 173.803 118.74 174.024 119.84ZM186.138 116.132C186.011 116.808 186.008 117.809 186.124 119.1C186.239 120.391 186.449 121.424 186.82 122.189C187.589 123.679 188.252 124.739 190.44 125.645C191.554 126.111 192.727 126.119 193.973 125.735C195.218 125.352 196.201 124.841 196.948 124.162C198.476 122.8 198.98 121.3 199.344 119.583C199.504 118.694 199.602 117.643 199.57 116.441C199.573 115.234 199.441 114.256 199.155 113.581C198.642 112.185 197.762 111.265 196.827 110.63C195.886 109.962 194.365 109.944 192.976 110.697C192.312 111.051 191.905 111.499 191.822 112.03C191.74 112.561 191.908 112.74 192.282 112.504C192.689 112.262 193.13 112.015 193.677 111.785C194.805 111.318 196.389 111.911 197.035 113.078C198.023 114.635 198.154 117.647 197.015 120.082C196.276 121.621 194.954 122.569 193.327 122.741C191.696 122.88 190.587 122.24 189.834 120.85C188.9 118.595 188.744 116.656 189.571 114.619C190.373 113.448 190.841 112.748 190.946 112.558L191.024 112.407C191.341 111.836 191.262 111.366 190.819 110.993L190.741 110.938C190.578 110.793 190.388 110.687 190.125 110.559C188.872 110.289 187.951 110.755 187.356 111.925L187.195 112.194C186.65 113.252 186.318 114.549 186.138 116.132ZM204.714 127.881C204.797 127.349 204.744 126.427 204.567 125.181C204.391 123.935 204.298 122.778 204.29 121.711C204.3 119.537 204.586 117.557 204.895 116.125C205.232 114.654 205.776 113.39 206.603 113.387C207.011 113.353 207.198 114.252 207.186 116.013C207.117 121.301 209.059 124.213 210.626 122.878C211.144 122.48 211.461 121.702 211.642 120.534C211.823 119.365 212.049 118.051 212.325 116.625C212.6 115.199 212.915 114.007 213.276 113.084C213.953 111.176 214.487 110.258 214.884 110.363C215.309 110.429 214.87 111.296 214.55 112.868C214.215 115.166 213.703 118.046 215.832 121.651C216.59 122.868 217.363 123.564 218.163 123.808C218.963 124.052 219.444 124.039 219.644 123.798C219.85 123.591 219.62 123.251 218.965 122.844C217.683 121.993 216.66 119.821 216.685 116.92C216.681 115.472 216.768 114.354 216.883 113.611C217.175 112.078 217.585 110.836 218.101 109.197C218.649 107.552 218.127 106.71 217.137 106.36C215.766 105.799 214.295 107.497 212.988 109.96C211.487 112.697 210.326 115.412 210.048 118.252C209.9 119.208 209.705 119.276 209.462 118.455C209.22 117.634 209.177 116.572 209.275 115.314C209.4 114.017 209.397 112.983 209.3 112.206C209.037 110.044 208.613 108.357 206.915 108.92C205.854 109.376 204.511 110.811 203.245 113.922C202.607 115.444 202.091 117.083 201.733 118.834C201.038 122.262 200.888 124.839 200.666 127.394C200.541 128.691 200.655 129.569 201.042 130.02C201.794 130.996 203.011 130.239 203.93 129.358C204.376 128.938 204.638 128.445 204.714 127.881ZM220.785 117.432C220.537 118.612 220.818 119.254 221.624 119.325L221.802 119.363C221.976 119.368 221.954 119.441 222.898 119.316C223.373 119.27 223.724 118.9 223.996 118.267L224.035 118.088C224.129 117.831 224.009 116.713 222.789 116.23L222.677 116.18C222.425 116.12 222.185 116.126 221.877 116.144C221.263 116.179 220.912 116.549 220.824 117.253L220.785 117.432Z" fill="#1B1B1B"/>
</svg>
