<svg width="285" height="50" viewBox="0 0 285 50" fill="none" xmlns="http://www.w3.org/2000/svg"><path fill-rule="evenodd" clip-rule="evenodd" d="M178.486 25.086c0-5.07-3.271-8.179-8.342-8.179-5.071 0-8.342 3.435-8.342 8.179 0 5.07 3.271 8.178 8.342 8.178 5.153 0 8.424-3.435 8.424-8.178h-.082zm-2.862 0c0 3.271-2.127 5.561-5.398 5.561-3.599 0-5.48-2.453-5.48-5.561 0-3.272 2.045-5.562 5.398-5.562 3.599 0 5.48 2.454 5.48 5.562zm36.803 0c0-5.07-3.271-8.179-8.342-8.179-5.152 0-8.424 3.435-8.424 8.179 0 5.07 3.353 8.178 8.424 8.178s8.342-3.435 8.342-8.178zm-2.944 0c0 3.271-2.045 5.561-5.398 5.561-3.598 0-5.48-2.453-5.48-5.561 0-3.272 2.045-5.562 5.398-5.562 3.599 0 5.48 2.454 5.48 5.562zm5.807 7.933V17.153h6.87c3.516 0 5.234 1.308 5.234 3.925 0 1.881-.654 3.026-2.29 3.68 1.881.328 2.781 1.636 2.781 3.6 0 3.27-2.29 4.66-6.134 4.66h-6.461zm6.461-9.16c1.799 0 2.862-.818 2.862-2.126 0-1.309-.818-1.963-2.781-1.963h-3.68v4.089h3.599zm.163 6.543c2.208 0 3.19-.736 3.19-2.208 0-1.554-1.145-2.127-3.108-2.127h-3.844v4.335h3.762zm14.067-8.26h-2.126v-4.908h-2.781V33.02h4.907c4.58 0 7.034-1.881 7.034-5.561 0-3.599-2.045-5.316-7.034-5.316zm-2.126 8.178v-5.643h2.372c2.699 0 3.925.818 3.925 2.699 0 2.126-1.39 3.026-4.007 3.026h-2.29v-.082z" fill="#FF0D65"/><path d="M248.74 26.149h7.197v-2.617h-7.197V19.77h8.015v-2.617h-10.796v15.866H257v-2.617h-8.26v-4.253z" fill="#FF0D65"/><path fill-rule="evenodd" clip-rule="evenodd" d="M184.211 28.03v4.907h-2.781V17.234h5.235c4.907 0 7.033 1.8 7.033 5.398 0 3.68-2.453 5.48-7.033 5.48h-2.454v-.082zm0-8.178v5.643h2.699c2.535 0 3.926-.818 3.926-3.026 0-1.963-1.227-2.7-3.926-2.7h-2.617l-.082.083zm-38.275 10.55c.899-2.127 1.554-5.153 1.635-9.978v-3.271h11.041v13.249h1.8v5.48h-2.618v-2.863h-10.959v2.862h-2.617v-5.48h1.718zm2.699 0h7.197V19.77h-5.725v.818c0 4.089-.573 7.36-1.472 9.814z" fill="#FF0D65"/><path d="M136.203 16.907c-2.454 0-4.253.818-5.152 1.472v3.926a6.21 6.21 0 015.152-2.78c1.636.081 2.944.654 2.944 2.126 0 1.145-.654 2.126-2.699 2.126h-2.371v2.372h2.453c2.454 0 3.435.654 3.435 2.045 0 1.635-1.554 2.453-3.435 2.453-2.862 0-4.907-1.308-5.888-2.862v3.435c.817.981 3.026 2.044 5.806 1.962 4.253 0 6.38-2.126 6.38-4.825 0-2.044-1.145-3.271-3.599-3.68 1.881-.654 2.781-1.881 2.781-3.762 0-2.781-2.29-3.926-5.725-3.926l-.082-.082z" fill="#FF0D65"/><path d="M70.448 30.157c.981 0 1.963-.246 2.862-.737l.818-.409 2.126 1.636a8.014 8.014 0 01-5.97 2.454c-2.372 0-4.498-.9-5.97-2.454a8.015 8.015 0 01-2.372-5.725c0-2.29.818-4.334 2.372-5.725 1.472-1.472 3.598-2.29 5.97-2.29 2.126 0 4.09.736 5.48 1.963l.163.082-2.453 1.8c-.818-.655-1.963-.982-3.026-.982a5.071 5.071 0 00-5.316 5.234c0 2.944 2.208 5.152 5.316 5.152z" fill="#21A038"/><path fill-rule="evenodd" clip-rule="evenodd" d="M86.56 23.287h-4.09V19.77h6.543l3.517-2.617H79.117v15.702h6.952c3.925 0 6.215-1.799 6.215-4.907 0-3.026-2.044-4.662-5.725-4.662zm-.573 6.951H82.47v-4.334h3.517c2.126 0 3.108.654 3.108 2.126s-1.064 2.208-3.108 2.208z" fill="#21A038"/><path d="M107.333 17.153l-3.599 2.617h-4.907v3.844h7.197v2.617h-7.197v4.007h8.506v2.617H95.474V17.153h11.859z" fill="#21A038"/><path fill-rule="evenodd" clip-rule="evenodd" d="M110.441 17.153h6.379c4.089 0 6.706 2.126 6.706 5.643 0 3.435-2.617 5.561-6.706 5.561h-2.944v4.498h-3.354V17.153h-.081zm3.271 8.587h3.026c2.208 0 3.353-1.063 3.353-2.944 0-1.963-1.145-3.026-3.271-3.026h-3.026v5.97h-.082z" fill="#21A038"/><path d="M51.31 17.07c.572.819 1.145 1.636 1.554 2.618l-11.86 8.751-4.906-3.108V21.57l4.907 3.19 10.305-7.69z" fill="#21A038"/><path d="M31.027 25.086v-.491L28 24.431v.655a13.085 13.085 0 003.844 9.241l2.126-2.126a10.059 10.059 0 01-2.944-7.115z" fill="url(#paint0_linear_1_507)"/><path d="M41.005 15.026h.49L41.66 12h-.654c-3.599 0-6.87 1.472-9.16 3.844l2.126 2.126c1.8-1.799 4.253-2.944 7.034-2.944z" fill="url(#paint1_linear_1_507)"/><path d="M41.005 35.145h-.49l-.246 3.026h.654c3.599 0 6.87-1.472 9.16-3.844l-2.126-2.126a9.978 9.978 0 01-7.034 2.944h.082z" fill="url(#paint2_linear_1_507)"/><path d="M46.648 16.744l2.454-1.8A12.922 12.922 0 0040.923 12v3.026c2.127 0 4.09.654 5.725 1.718z" fill="url(#paint3_linear_1_507)"/><path d="M54.009 25.086c0-.818-.082-1.636-.245-2.372l-2.781 2.126v.246c0 2.944-1.227 5.643-3.272 7.442l2.045 2.29a13.085 13.085 0 004.253-9.732z" fill="#21A038"/><path d="M41.005 35.145c-2.945 0-5.562-1.308-7.36-3.271l-2.373 1.963c2.536 2.699 5.889 4.334 9.815 4.334v-3.026h-.082z" fill="url(#paint4_linear_1_507)"/><path d="M34.298 17.643l-2.044-2.372A13.086 13.086 0 0028 25.087h3.026c0-2.944 1.227-5.643 3.271-7.443z" fill="url(#paint5_linear_1_507)"/><defs><linearGradient id="paint0_linear_1_507" x1="32.417" y1="34" x2="29.064" y2="24.431" gradientUnits="userSpaceOnUse"><stop offset=".1" stop-color="#F2E913"/><stop offset=".3" stop-color="#E7E518"/><stop offset=".6" stop-color="#CADB26"/><stop offset=".9" stop-color="#A3CD39"/></linearGradient><linearGradient id="paint1_linear_1_507" x1="32.663" y1="16.335" x2="41.168" y2="13.145" gradientUnits="userSpaceOnUse"><stop offset=".1" stop-color="#0FA8E0"/><stop offset=".5" stop-color="#0099F9"/><stop offset=".9" stop-color="#0291EB"/></linearGradient><linearGradient id="paint2_linear_1_507" x1="40.187" y1="36.372" x2="49.674" y2="34.246" gradientUnits="userSpaceOnUse"><stop offset=".1" stop-color="#A3CD39"/><stop offset=".3" stop-color="#86C339"/><stop offset=".9" stop-color="#21A038"/></linearGradient><linearGradient id="paint3_linear_1_507" x1="40.351" y1="12.981" x2="48.529" y2="15.517" gradientUnits="userSpaceOnUse"><stop offset=".1" stop-color="#0291EB"/><stop offset=".8" stop-color="#0C8ACB"/></linearGradient><linearGradient id="paint4_linear_1_507" x1="32.09" y1="33.51" x2="41.005" y2="36.781" gradientUnits="userSpaceOnUse"><stop offset=".1" stop-color="#F2E913"/><stop offset=".3" stop-color="#EBE716"/><stop offset=".5" stop-color="#D9E01F"/><stop offset=".8" stop-color="#BBD62D"/><stop offset="1" stop-color="#A3CD39"/></linearGradient><linearGradient id="paint5_linear_1_507" x1="29.146" y1="25.495" x2="32.745" y2="16.089" gradientUnits="userSpaceOnUse"><stop offset=".1" stop-color="#A3CD39"/><stop offset=".3" stop-color="#81C55F"/><stop offset=".9" stop-color="#0FA8E0"/></linearGradient></defs></svg>