<svg width="285" height="50" viewBox="0 0 285 50" fill="none" xmlns="http://www.w3.org/2000/svg"><path fill-rule="evenodd" clip-rule="evenodd" d="M115.136 36.067c8.522 0 15.385-6.987 15.385-15.533C130.521 11.93 123.6 5 115.136 5c-8.465 0-15.385 6.93-15.385 15.476 0 8.604 6.863 15.591 15.385 15.591zm0-7.102c4.633 0 8.35-3.812 8.35-8.431 0-4.678-3.775-8.431-8.35-8.431-4.633 0-8.35 3.81-8.35 8.43 0 4.62 3.717 8.431 8.35 8.431z" fill="#13A546"/><path fill-rule="evenodd" clip-rule="evenodd" d="M122.571 35.605l6.921 8.142a3.509 3.509 0 004.976.404c1.487-1.27 1.658-3.522.4-5.024l-6.749-7.968c-1.487 1.848-3.374 3.349-5.548 4.446z" fill="#13A546"/><path d="M161.172 30.894c0 1.04-.343 1.906-.972 2.54-.687.694-1.487.983-2.46.983-1.086 0-2.001-.405-2.688-1.213l-7.835-9.47-3.4 3.099v4c0 .983-.261 1.794-.947 2.486a3.401 3.401 0 01-2.459 1.04 3.405 3.405 0 01-2.46-1.04c-.686-.693-.972-1.559-.972-2.483V10.394c0-.981.343-1.79.972-2.483.687-.693 1.545-1.039 2.517-1.039s1.773.346 2.402 1.04c.686.692.936 1.559.936 2.482v8.662l11.132-11.318c.629-.635 1.372-.924 2.288-.924.915 0 1.715.347 2.287.982.629.635.915 1.386.915 2.31 0 .924-.286 1.732-.915 2.31l-7.206 7.16 8.179 9.182c.457.462.686 1.212.686 2.136zm13.297.096V13.495h-4.747a3.19 3.19 0 01-2.231-.866c-.572-.578-.858-1.328-.858-2.195 0-.866.286-1.559.858-2.194.629-.635 1.373-.924 2.231-.924h16.586c.858 0 1.544.289 2.173.924.63.578.915 1.328.915 2.194 0 .809-.285 1.56-.915 2.195-.572.577-1.315.866-2.173.866h-4.804V31.05c0 .981-.343 1.79-1.03 2.483a3.402 3.402 0 01-2.459 1.04c-.972 0-1.773-.347-2.459-1.04-.687-.693-1.087-1.56-1.087-2.541zm23.198 7.733l.342-.057c1.831-.058 3.032-.693 3.661-1.964l.973-2.31-9.152-22.867c-.171-.289-.228-.75-.228-1.27 0-.982.343-1.79.972-2.426.686-.692 1.487-1.039 2.402-1.039 1.659 0 2.746.75 3.203 2.194l6.406 17.15 6.348-17.15c.572-1.443 1.659-2.194 3.26-2.194.973 0 1.83.347 2.459 1.04.686.692.973 1.5.973 2.425 0 .404-.114.866-.287 1.328L208.19 38.435c-1.659 4.273-4.861 6.467-9.666 6.525-.399 0-.686 0-.743-.058-.916-.058-1.659-.346-2.288-.924-.629-.577-.857-1.328-.857-2.252 0-.866.285-1.559.857-2.136.686-.52 1.372-.809 2.174-.867zm-102.183-7.16v6.467c0 .867-.286 1.56-.858 2.195-.572.635-1.315.866-2.173.866a3.19 3.19 0 01-2.23-.866c-.573-.578-.859-1.328-.859-2.195v-4.086H71.12v4.086c0 .867-.286 1.56-.858 2.195-.572.635-1.316.866-2.174.866a3.19 3.19 0 01-2.23-.866c-.572-.578-.858-1.328-.858-2.195v-5.428c0-2.656.858-4.157 2.516-4.62 1.487-2.771 2.574-7.564 3.203-14.378l.23-2.599c.114-1.212.514-2.136 1.257-2.771.744-.693 1.662-.926 2.805-.926h13.327c1.315 0 2.342.233 3.028.983.744.693 1.087 1.733 1.087 3.06v16.574c2.059.173 3.031 1.386 3.031 3.638zm-9.901-3.42V13.102h-8.637l-.164 2.582c-.343 5.774-1.334 10.151-2.764 12.46h11.565z" fill="#2C2B67"/></svg>