<svg width="285" height="50" viewBox="0 0 285 50" fill="none" xmlns="http://www.w3.org/2000/svg"><path d="M45.787 8.715c.134.319.201.672.201 1.059v6.783h6.783c.378 0 .731.067 1.05.201l.018.009h.017l.016.008.017.009.008.008.017.008h.017l.017.009.008.008.05.025c.253.126.497.311.715.53.227.227.404.462.538.723l.017.025v.017l.008.017.009.016.008.009.008.017.009.016v.017l.008.017.009.008.008.017v.017l.009.017.008.017.008.008v.017l.009.017.008.017v.016l.009.009.008.017v.016l.008.017v.017l.009.017.008.017v.016l.009.009v.017l.008.016v.017l.008.017v.017l.009.017v.017l.008.016v.017l.009.009v.033l.008.017v.017l.009.017v.033l.008.017v.034l.008.016v.034l.009.017v.05l.008.017v.067l.008.017v.143l.009.017v10.985l-.009.017v.135l-.008.016v.076l-.008.017v.05l-.009.017v.034l-.008.017v.033l-.008.017v.034l-.009.016v.017l-.008.017v.025l-.009.017v.017l-.008.017v.016l-.009.017v.017l-.008.017v.017l-.008.017v.016l-.009.009v.017l-.008.016-.009.017v.017l-.008.017v.017l-.008.008-.009.017v.017l-.008.016-.009.017v.017l-.008.008-.008.017-.009.017v.017l-.008.017-.009.008-.008.017v.017l-.008.017-.009.008-.008.017-.009.017-.008.016v.017l-.017.025a3.049 3.049 0 01-1.252 1.253l-.05.025-.01.008h-.016l-.017.009-.017.008-.008.009-.017.008h-.017l-.016.008-.017.009a2.69 2.69 0 01-1.05.201h-6.784v6.783c0 .387-.067.74-.201 1.06l-.009.016-.008.009-.009.017v.016l-.008.017-.008.008-.009.017-.008.017-.009.017-.017.042a3.049 3.049 0 01-1.252 1.252l-.034.017-.008.008H44.4l-.009.009h-.017l-.016.008-.017.009-.008.008-.017.009h-.017l-.017.008-.017.008-.008.009h-.017l-.017.008-.017.009-.016.008h-.009l-.017.008-.016.009h-.017l-.017.008-.017.009h-.008l-.017.008h-.017l-.017.008h-.016l-.017.009-.017.008h-.017l-.008.009h-.017l-.017.008h-.017l-.017.008h-.016l-.017.009h-.034l-.017.008h-.016l-.017.009h-.034l-.017.008h-.033l-.017.009h-.034l-.017.008h-.05l-.017.008h-.067l-.017.009h-.084l-.017.008H32.246l-.017-.008h-.084l-.017-.009h-.067l-.017-.008h-.05l-.017-.008h-.034l-.016-.009h-.034l-.017-.008h-.034l-.016-.009h-.017l-.017-.008h-.033l-.017-.008h-.017l-.017-.009H31.7l-.017-.008h-.017l-.017-.009h-.017l-.016-.008-.017-.009h-.017l-.017-.008h-.008l-.017-.008h-.017l-.017-.009-.017-.008h-.016l-.009-.009-.016-.008h-.017l-.017-.008-.017-.009-.017-.008h-.008l-.017-.009-.017-.008-.017-.008h-.016l-.009-.009-.017-.008-.016-.009-.017-.008h-.009l-.016-.009-.017-.008-.026-.017h-.008a3.209 3.209 0 01-.714-.53 2.658 2.658 0 01-.53-.722h-.008l-.017-.042-.009-.017-.008-.017-.008-.017v-.008h-.009v-.017l-.008-.017-.009-.016-.008-.009v-.017a2.702 2.702 0 01-.202-1.059v-4.95h2v4.581l.01.008v.143l.008.008v.093l.008.008v.067l.008.009v.042l.009.008v.034l.008.025v.025c.042.185.118.32.219.42v.009c.176.168.555.26 1.151.269h9.499c.597-.008.983-.101 1.152-.27l.008-.008a.898.898 0 00.21-.42v-.025l.008-.025v-.017l.009-.017v-.033l.008-.017v-.059h.009v-.084l.008-.009v-.126l.009-.008v-6.464h-3.934v-2h12.245l.008-.008h.202l.009-.009h.1l.009-.008h.067l.017-.009h.059l.008-.008h.042l.009-.008h.025l.008-.009h.009a.858.858 0 00.428-.21c.177-.176.27-.563.27-1.16v-9.498c0-.588-.093-.974-.27-1.151a.858.858 0 00-.428-.21l-.009-.009h-.033l-.009-.008h-.042l-.008-.008h-.051l-.008-.009h-.067l-.009-.008h-.1l-.009-.009h-.176l-.009-.008H40.046v-2h3.934v-6.464l-.009-.008v-.126l-.008-.009v-.084l-.009-.008v-.059l-.008-.009v-.033l-.009-.017v-.025l-.008-.017v-.025a.932.932 0 00-.21-.429h-.008c-.169-.168-.555-.26-1.152-.269h-9.498c-.596.009-.975.101-1.151.27a.857.857 0 00-.219.428v.025l-.008.017v.042l-.009.008v.042l-.008.009v.067l-.008.008v.093l-.009.008v.143l-.008.008v4.581h-2v-4.95c0-.387.067-.74.201-1.06v-.016l.009-.009.008-.016.008-.017v-.017h.009v-.017l.008-.008.008-.017.009-.017.017-.042h.008a2.67 2.67 0 01.53-.723 3.01 3.01 0 01.714-.53h.008l.026-.016.017-.008.016-.009.009-.008h.017l.016-.009.017-.008.009-.008.016-.009h.017l.017-.008.017-.009.008-.008h.017l.017-.008.017-.009h.017l.016-.008.009-.009h.017l.016-.008.017-.009h.017l.017-.008h.008l.017-.008.017-.009h.017l.016-.008h.017l.017-.009h.017l.017-.008h.008l.017-.008h.017l.017-.009h.033l.017-.008h.017l.017-.009h.033l.017-.008h.017l.017-.008h.05l.017-.009h.05l.017-.008h.051l.016-.009h.101L32.246 7h11.128l.017.008h.101l.017.009h.05l.017.008h.051l.016.009h.051l.017.008h.016l.017.008h.034l.017.009h.016l.017.008h.034l.017.009h.016l.017.008h.017l.017.008h.017l.008.009h.017l.017.008h.017l.016.009.017.008h.017l.017.008h.008l.017.009.017.008h.017l.016.009.017.008h.009l.016.009.017.008h.017l.017.008.008.009.017.008h.017l.017.009.017.008.008.008.017.009h.017l.016.008.009.009h.008l.008.008.034.017c.252.126.496.31.715.53.227.226.403.462.538.722l.016.042.009.017.008.017.009.008.008.017.008.017v.017l.009.016.008.009.009.017z" fill="#01BACC"/><path d="M28.615 32.904h9.59v-2h-9.59v2zm-6.9-.201c.319.134.672.202 1.05.202h1.959v-2h-1.27c-.243 0-.445-.01-.605-.026-.269-.034-.47-.118-.605-.244-.176-.185-.269-.588-.269-1.21v-9.389c0-.243.009-.445.025-.605.034-.269.11-.47.244-.605.126-.126.336-.21.605-.244a5.93 5.93 0 01.605-.025h12.037v-2H22.765a2.69 2.69 0 00-1.05.201 2.83 2.83 0 00-.9.614 2.8 2.8 0 00-.613.9A2.69 2.69 0 0020 19.33v10.8c0 .387.067.74.202 1.06.134.32.336.622.613.9.278.268.572.478.9.613z" fill="#ED1C60"/><path d="M25.648 36.956V21.667h2.244l4.035 4.808 4.026-4.808h2.252v11.137h-2.059v-8.17l-4.22 5.026-4.235-5.01v12.306h-2.043z" fill="#ED1C60"/><path d="M21.799 32.703c.319.134.672.202 1.059.202h2.076v-2h-1.606l-.008-.01h-.202l-.008-.008h-.101L23 30.88h-.067l-.008-.009h-.067l-.009-.008h-.034l-.016-.008h-.026l-.008-.009h-.008a.858.858 0 01-.429-.21c-.177-.176-.26-.563-.269-1.16v-9.499c.008-.588.092-.974.269-1.151.1-.1.244-.168.429-.21l.008-.008h.034l.017-.009h.033l.009-.008h.05l.017-.009h.067v-.008h.101l.008-.009h.177l.017-.008h12.28v-2H22.857c-.386 0-.74.067-1.058.201l-.017.009h-.017l-.017.008-.008.009-.017.008-.017.008h-.017l-.008.009-.017.008-.042.025h-.008a2.966 2.966 0 00-.715.53 2.66 2.66 0 00-.53.723h-.008l-.008.025-.009.017-.008.017-.008.016-.009.009v.017h-.008v.016l-.009.017-.008.017-.008.009v.016l-.009.017-.008.017-.009.017v.008l-.008.017-.008.017v.017l-.009.016-.008.009v.017l-.009.016-.008.017v.017l-.009.017v.017l-.008.016v.009l-.008.017-.009.017v.016l-.008.017v.017l-.008.017v.033l-.009.017v.009l-.008.016v.017l-.009.017v.034l-.008.016v.034l-.009.017v.033l-.008.017v.034l-.008.017v.05l-.009.017v.092l-.008.017v11.221l.008.017v.092l.009.017v.05l.008.017v.034l.008.017v.033l.009.017v.034l.008.017v.033l.009.017v.008l.008.017v.017l.009.017v.033l.008.017v.017l.008.017v.017l.009.017.008.016v.009l.008.017v.016l.009.017v.017l.008.017.009.017v.008l.008.017.009.017v.017l.008.016.008.017v.009l.009.016.008.017.009.017v.017l.008.008.008.017.009.017v.017h.008v.008l.009.017.008.017.008.016.009.009v.008l.008.025h.009c.126.253.302.496.53.723.226.219.461.395.714.53h.008l.042.025.017.008h.008l.017.009.017.008.017.009.008.008h.017l.017.008.017.009zm3.849.202h2.043v-2h-2.043v2zm2.757 0h7.17v-2h-7.17v2z" fill="#ED1C60"/><path d="M62.194 31.803a2.674 2.674 0 001.958.816h12.851v-2.236H64.8c-.227 0-.412-.009-.546-.025-.219-.017-.37-.076-.462-.169-.093-.1-.152-.252-.177-.462a4.768 4.768 0 01-.025-.546v-8.792c0-.227.008-.403.025-.546.025-.21.084-.362.177-.462.092-.093.243-.152.462-.177.134-.008.32-.017.546-.017h12.204v-2.244H64.152c-.378 0-.731.067-1.06.202a2.972 2.972 0 00-.898.622c-.278.277-.48.571-.614.9a2.7 2.7 0 00-.202 1.058v10.12c0 .378.068.731.202 1.059.134.32.336.622.614.9zm18.743-12.078V32.62h2.219v-5.54h11.22v5.54h2.236V19.725c0-.387-.067-.74-.201-1.059a2.722 2.722 0 00-.614-.9 2.71 2.71 0 00-1.983-.823H83.719c-.756 0-1.412.277-1.958.824-.278.277-.48.571-.622.9a2.682 2.682 0 00-.202 1.058zm13.036 5.144H83.156v-4.48c0-.227.008-.403.025-.546.017-.21.076-.362.168-.462h.009c.092-.093.243-.152.453-.177a8.86 8.86 0 01.547-.017h8.817c.218 0 .395.009.53.017.201.025.344.076.445.16.1.092.168.252.201.47.017.152.026.328.026.555v4.48h-.404zm6.783-7.943V32.62h15.676v-2.236h-13.465V16.926h-2.211zm18.533 0V32.62h15.676v-2.236H121.5V16.926h-2.211z" fill="#01BACC"/><path d="M137.798 16.943V32.62h2.219V19.86l6.673 7.893 6.649-7.917V32.62h2.244V16.943h-2.757l-6.136 7.346-6.161-7.346h-2.731zm21.987 0V32.62h14.373v-2.236H162.03v-4.471h9.749V23.65h-9.749v-4.463h12.128v-2.245h-14.373zm18.239 0V32.62h12.877c.773 0 1.429-.27 1.984-.815.269-.278.479-.58.613-.9.135-.328.202-.68.202-1.059v-10.12c0-.386-.067-.74-.202-1.059a2.845 2.845 0 00-.613-.899c-.555-.546-1.211-.824-1.984-.824h-12.877zm12.238 13.44h-8.817c-.227 0-.403-.008-.546-.025-.21-.025-.37-.076-.462-.168-.093-.101-.152-.252-.177-.463a9.523 9.523 0 01-.017-.546V20.39c0-.226.009-.403.017-.546.025-.21.084-.361.177-.462.101-.093.252-.151.462-.177.143-.008.319-.017.546-.017h8.817c.21 0 .387.009.53.017.202.026.344.076.437.16.16.134.235.48.235 1.025v8.792c0 .219-.008.404-.025.546-.034.227-.101.379-.21.48a.785.785 0 01-.437.15 4.38 4.38 0 01-.53.026zm7.422-13.44V32.62h2.185V16.943h-2.185zm6.506 14.86a2.671 2.671 0 001.958.816h12.851v-2.236h-12.204c-.227 0-.412-.008-.546-.025-.219-.017-.37-.076-.463-.168v-.009c-.134-.126-.201-.462-.201-1V20.39c0-.226.008-.403.025-.546.025-.21.084-.37.176-.462.093-.093.244-.151.463-.177.134-.008.319-.017.546-.017h12.204v-2.244h-12.851c-.757 0-1.412.278-1.958.824-.278.277-.48.572-.614.9a2.69 2.69 0 00-.202 1.058v10.12c0 .378.067.731.202 1.06.134.319.336.621.614.899zm18.65-1.37v2.186h2.194v-2.186h-2.194zm5.926-13.464v15.65h2.211v-5.623l5.992-.025 4.741 5.648h2.706v-.294l-4.538-5.354h1.756c.395 0 .757-.068 1.084-.202.328-.143.622-.345.9-.622a2.89 2.89 0 00.622-.9c.134-.319.202-.672.202-1.058V19.75a2.66 2.66 0 00-.202-1.043 2.796 2.796 0 00-.622-.907 2.788 2.788 0 00-.908-.622 2.644 2.644 0 00-1.076-.21h-12.868zm12.229 7.758h-8.808c-.219 0-.404 0-.546-.017-.202-.017-.353-.068-.438-.143-.109-.093-.176-.252-.201-.48a4.474 4.474 0 01-.025-.537v-3.16c0-.227.008-.404.025-.547.025-.21.084-.37.176-.462.093-.093.244-.151.463-.177.134-.008.319-.017.546-.017h8.808c.219 0 .395.009.53.017.21.026.361.084.454.177.092.092.151.252.176.462.017.143.026.32.026.546v3.16c0 .228-.009.404-.026.539-.025.227-.092.386-.201.479-.126.109-.446.16-.959.16zm8.153 7.077a2.675 2.675 0 001.959.815h10.119c.379 0 .732-.067 1.06-.202a2.81 2.81 0 00.899-.613 2.81 2.81 0 00.613-.9c.135-.328.202-.68.202-1.059V16.943h-2.236v12.238c0 .219-.008.404-.025.546-.033.227-.101.379-.202.48a.836.836 0 01-.445.15 4.448 4.448 0 01-.53.026h-8.816c-.227 0-.404-.008-.547-.025-.21-.025-.361-.076-.462-.168-.126-.135-.193-.47-.193-1.009V16.943h-2.219v12.902c0 .378.067.731.201 1.06.143.319.345.621.622.899z" fill="#ED1C60"/><path d="M63.95 37.78v1.571h-2.202V37.78h-.37v3.522h.37V39.68h2.202v1.62h.37v-3.52h-.37zm12.146 3.52h.395l-1.614-3.522h-.362L72.902 41.3h.386l.42-.941h1.967l.42.941zm-2.245-1.244l.84-1.891.85 1.891h-1.69zm12.692-2.538c.504 0 .815-.236.824-.647h-.278c-.008.269-.227.437-.546.437-.32 0-.538-.168-.538-.437h-.277c0 .411.32.647.815.647zM85.081 41.3h.336l2.252-2.916V41.3h.37v-3.52h-.336l-2.261 2.917V37.78h-.361v3.522zm14.709-.32v-3.2h-2.38l-.041 1.143c-.034 1.118-.143 2.026-.639 2.06h-.176l-.009 1.11h.345l.008-.79h3.068v.79h.353v-1.11h-.53zm-2.085-2.025l.034-.857h1.68v2.883h-2.168c.336-.26.42-1.11.454-2.026zm11.288 2.345h.336l2.253-2.916V41.3h.37v-3.52h-.337l-2.26 2.917V37.78h-.362v3.522zm21.509.034c.521 0 .983-.177 1.294-.521l-.235-.236c-.286.294-.639.42-1.042.42-.858 0-1.497-.621-1.497-1.462 0-.832.639-1.454 1.497-1.454.403 0 .756.126 1.042.412l.235-.236c-.311-.336-.773-.512-1.294-.512-1.059 0-1.841.765-1.841 1.79 0 1.034.782 1.799 1.841 1.799zm12.061-1.85c.353-.134.58-.395.58-.806 0-.589-.462-.9-1.202-.9h-1.462V41.3h1.555c.857 0 1.277-.345 1.277-.95 0-.47-.252-.765-.748-.865zm-1.723-1.411h1.084c.538 0 .841.226.841.647 0 .428-.303.655-.841.655h-1.084v-1.302zm1.194 2.933h-1.194v-1.345h1.194c.596 0 .916.202.916.664s-.32.68-.916.68zm11.666.328c1.059 0 1.849-.765 1.849-1.799 0-1.025-.79-1.79-1.849-1.79s-1.849.765-1.849 1.79c0 1.034.79 1.799 1.849 1.799zm0-.337c-.849 0-1.479-.621-1.479-1.462 0-.84.63-1.454 1.479-1.454.849 0 1.479.614 1.479 1.454s-.63 1.462-1.479 1.462zm11.027-.016V39.67h1.824v-.319h-1.824V38.1h2.043v-.32h-2.413v3.522h2.488v-.32h-2.118zm13.095-3.203h-2.235V41.3h.361l-.008-3.202h1.882v-.32zm9.616 3.556c1.059 0 1.849-.765 1.849-1.799 0-1.025-.79-1.79-1.849-1.79-1.068 0-1.849.765-1.849 1.79 0 1.034.781 1.799 1.849 1.799zm0-.337c-.849 0-1.479-.621-1.479-1.462 0-.84.63-1.454 1.479-1.454.849 0 1.479.614 1.479 1.454s-.63 1.462-1.479 1.462zm20.651-1.512c.353-.135.58-.395.58-.807 0-.589-.462-.9-1.202-.9h-1.462V41.3h1.555c.857 0 1.286-.345 1.286-.95 0-.47-.261-.765-.757-.865zm-1.714-1.412h1.075c.538 0 .841.226.841.647 0 .428-.303.655-.841.655h-1.075v-1.302zm1.185 2.933h-1.185v-1.345h1.185c.596 0 .916.202.916.664s-.32.68-.916.68zm11.447-3.228h-1.319V41.3h.37v-1.11h.949c.891 0 1.438-.453 1.438-1.201 0-.757-.547-1.21-1.438-1.21zm-.016 2.085h-.933v-1.765h.933c.706 0 1.075.32 1.075.89 0 .547-.369.875-1.075.875zm12.632 1.437h.395l-1.613-3.522h-.37L228.43 41.3h.386l.42-.941h1.959l.428.941zm-2.252-1.244l.849-1.891.84 1.891h-1.689zM242.5 37.78v1.732c-.362.168-.74.252-1.076.252-.614 0-.975-.311-.975-.866V37.78h-.37v1.16c0 .723.479 1.152 1.311 1.152a2.85 2.85 0 001.11-.252v1.46h.361v-3.52h-.361zm12.145 3.522h.395l-1.614-3.522h-.37l-1.605 3.522h.387l.42-.941h1.967l.42.941zm-2.253-1.244l.849-1.891.841 1.891h-1.69zm11.154.185h.277l.076-2.463h-.429l.076 2.463zm.134 1.084a.257.257 0 00.261-.26.256.256 0 00-.261-.26.256.256 0 00-.26.26c0 .143.109.26.26.26z" fill="#666"/></svg>