<svg width="22" height="19" viewBox="0 0 22 19" fill="none" xmlns="http://www.w3.org/2000/svg"><path d="M13.735 6.244l-2.32-4.98a.46.46 0 00-.83 0l-2.32 4.98a.458.458 0 01-.362.26l-5.498.646a.453.453 0 00-.257.783l4.065 3.723a.45.45 0 01.138.422l-1.08 5.379a.457.457 0 00.674.484l4.831-2.679a.462.462 0 01.448 0l4.831 2.679a.457.457 0 00.673-.484l-1.079-5.38a.451.451 0 01.138-.42l4.065-3.724a.452.452 0 00-.257-.783l-5.498-.646a.458.458 0 01-.362-.26z" fill="url(#paint0_linear_37_27)" stroke="#FFD600" stroke-width="2" stroke-linecap="round" stroke-linejoin="round"/><defs><linearGradient id="paint0_linear_37_27" x1="1.384" y1="9.442" x2="11" y2="9.442" gradientUnits="userSpaceOnUse"><stop stop-color="#FFD600"/><stop offset="1" stop-color="#FFD600"/><stop offset="1" stop-color="#FFD600" stop-opacity="0"/><stop offset="1" stop-color="#FFD600" stop-opacity="0"/></linearGradient></defs></svg>