<svg width="40" height="25" viewBox="0 0 40 25" fill="none" xmlns="http://www.w3.org/2000/svg">
<path d="M1.86124 4.00907e-05C0.83364 4.00907e-05 0 0.829259 0 1.85239V23.1477C0 24.1706 0.83376 25 1.86124 25H38.1388C39.1664 25 40 24.1708 40 23.1477V1.85235C40 0.829378 39.1663 0 38.1388 0H1.8612L1.86124 4.00907e-05ZM13.1162 3.00935C15.3995 3.00935 17.4964 3.79991 19.1425 5.12045C17.7576 6.35369 16.7246 7.97395 16.215 9.81045H17.0138C17.4842 8.29541 18.3387 6.94653 19.465 5.87682C20.5913 6.94653 21.4458 8.29541 21.9162 9.81045H22.7275C22.2108 7.98363 21.1764 6.37304 19.7925 5.14784C21.4417 3.81054 23.5469 3.00931 25.84 3.00931C31.1316 3.00931 35.4212 7.27889 35.4212 12.546C35.4212 17.8132 31.1316 22.0828 25.84 22.0828C23.5088 22.0828 21.3712 21.2547 19.71 19.8771C21.196 18.5905 22.2915 16.8657 22.7925 14.9035H22.0112C21.5664 16.5504 20.671 18.0151 19.465 19.1606C18.259 18.0151 17.3648 16.5504 16.92 14.9035H16.1762C16.6801 16.8372 17.7613 18.5379 19.225 19.8124C17.5668 21.1729 15.4376 21.9907 13.1162 21.9907C7.8246 21.9907 3.535 17.7417 3.535 12.5C3.535 7.25839 7.8246 3.00935 13.1162 3.00935ZM25.1212 9.7134C23.97 9.7134 22.85 10.7151 22.85 12.5958C22.85 13.8429 23.455 14.6659 24.645 14.6659C24.9815 14.666 25.5175 14.529 25.5175 14.529L25.695 13.4393C25.695 13.4393 25.2058 13.6856 24.87 13.6856C24.1626 13.6856 23.8788 13.1441 23.8788 12.5622C23.8788 11.3818 24.4874 10.7322 25.165 10.7322C25.6731 10.7322 26.0812 11.0184 26.0812 11.0184L26.2438 9.95846C26.2438 9.95846 25.6396 9.7134 25.1212 9.7134H25.1212ZM34.8 9.80548L33.7988 9.80795L33.5838 11.1192C33.5838 11.1192 33.2074 10.6103 32.6188 10.6103C31.7036 10.6103 30.9412 11.6923 30.9412 12.9367C30.9412 13.7399 31.347 14.5278 32.1788 14.5278C32.7771 14.5278 33.1088 14.1185 33.1088 14.1185L33.065 14.4681H34.0375L34.8 9.80548ZM6.12248 9.81913L5.325 14.4929H6.28624L6.89376 10.9687L6.98376 14.4929H7.67124L8.95376 10.9687L8.385 14.4929H9.40624L10.1938 9.81913H8.61376L7.63 12.6866L7.57876 9.81917H6.12252L6.12248 9.81913ZM16.165 10.1227C16.1433 10.1444 15.5838 13.3554 15.5838 13.7465C15.5838 14.3256 15.9099 14.5842 16.3688 14.58C16.6976 14.5772 16.9522 14.495 17.07 14.4606C17.0823 14.4573 17.1062 14.4507 17.1062 14.4507L17.23 13.6147C17.1627 13.6147 17.0636 13.6433 16.9762 13.6433C16.6336 13.6433 16.5957 13.4619 16.6175 13.3273L16.8938 11.6218H17.415L17.5412 10.6974H17.05L17.15 10.1227H16.165ZM27.7838 10.5929C27.1128 10.5929 26.5988 10.8131 26.5988 10.8131L26.4562 11.6715C26.4562 11.6715 26.8808 11.4961 27.5225 11.4961C27.8868 11.4961 28.1537 11.5376 28.1537 11.8394C28.1537 12.0228 28.1212 12.0907 28.1212 12.0907C28.1212 12.0907 27.8332 12.0659 27.7 12.0659C26.8539 12.0659 25.965 12.4349 25.965 13.545C25.965 14.4197 26.5486 14.6198 26.91 14.6198C27.6003 14.6198 27.898 14.1634 27.9138 14.162L27.8812 14.5427H28.7425L29.1275 11.7959C29.1276 10.6304 28.1302 10.5929 27.7838 10.5929V10.5929ZM11.6275 10.5979C10.9541 10.5979 10.4375 10.8181 10.4375 10.8181L10.295 11.6765C10.295 11.6765 10.721 11.5011 11.365 11.5011C11.7307 11.5011 11.9988 11.5427 11.9988 11.8444C11.9988 12.0277 11.9662 12.0957 11.9662 12.0957C11.9662 12.0957 11.6773 12.0708 11.5438 12.0708C10.6944 12.0708 9.80252 12.4393 9.80252 13.5487C9.80252 14.4229 10.3872 14.6236 10.75 14.6236C11.4428 14.6236 11.7416 14.1671 11.7575 14.1658L11.725 14.5464H12.59L12.9762 11.8009C12.9762 10.6361 11.9752 10.5979 11.6275 10.5979V10.5979ZM14.6825 10.5979C13.9594 10.5979 13.225 10.8884 13.225 11.8805C13.225 13.0046 14.4488 12.8911 14.4488 13.3646C14.4488 13.6807 14.1072 13.7067 13.8438 13.7067C13.3878 13.7067 12.9777 13.5499 12.9762 13.5575L12.845 14.4158C12.8686 14.4231 13.1225 14.5365 13.9425 14.5365C14.1627 14.5365 15.4212 14.5921 15.4212 13.2875C15.4212 12.0678 14.2562 12.3095 14.2562 11.8195C14.2562 11.5756 14.4454 11.4986 14.7925 11.4986C14.9303 11.4986 15.4613 11.5421 15.4613 11.5421L15.5838 10.675C15.5838 10.6751 15.2412 10.5979 14.6825 10.5979H14.6825ZM19.2025 10.5979C18.1977 10.5981 17.4538 11.6734 17.4538 12.8882C17.4538 14.2902 18.3858 14.6236 19.18 14.6236C19.913 14.6236 20.2362 14.4606 20.2362 14.4606L20.4112 13.504C20.4112 13.504 19.8536 13.7478 19.35 13.7478C18.277 13.7478 18.465 12.9528 18.465 12.9528H20.4962C20.4962 12.9528 20.6275 12.3104 20.6275 12.0484C20.6275 11.3948 20.2997 10.5979 19.2025 10.5979H19.2025ZM22.8413 10.639C22.3886 10.639 22.0525 11.2448 22.0525 11.2448L22.1425 10.6887H21.2025L20.5713 14.5278H21.61C21.9042 12.8884 21.9579 11.5572 22.66 11.8009C22.7829 11.1663 22.9021 10.9212 23.0362 10.6527C23.0362 10.6527 22.9732 10.639 22.8412 10.639H22.8413ZM31.2575 10.639C30.8048 10.639 30.4688 11.2448 30.4688 11.2448L30.5588 10.6887H29.6188L28.9875 14.5278H30.025C30.3193 12.8884 30.3744 11.5572 31.0762 11.8009C31.1994 11.1663 31.3185 10.9212 31.4525 10.6527C31.4525 10.6527 31.3895 10.639 31.2575 10.639H31.2575ZM19.1975 11.4638C19.7682 11.4638 19.6638 12.1048 19.6638 12.1567H18.54C18.54 12.0905 18.6463 11.4638 19.1975 11.4638H19.1975ZM32.7763 11.5384C33.1395 11.5383 33.3263 11.7825 33.3263 12.3569C33.3263 12.8782 33.0621 13.5749 32.515 13.5749C32.1519 13.5749 31.9812 13.2764 31.9812 12.8085C31.9812 12.0435 32.3329 11.5384 32.7762 11.5384H32.7763ZM27.785 12.8446C27.9332 12.8448 27.9638 12.8591 27.9888 12.8658C27.9852 12.8652 27.9845 12.8659 27.9988 12.8683C28.0175 13.0392 27.895 13.8411 27.3025 13.8411C26.997 13.8411 26.9188 13.5993 26.9188 13.4567C26.9188 13.1785 27.0643 12.8446 27.785 12.8446ZM11.6288 12.8483C11.797 12.8485 11.8154 12.8673 11.8438 12.872C11.8626 13.0429 11.7395 13.8436 11.145 13.8436C10.8383 13.8436 10.7588 13.603 10.7588 13.4604C10.7588 13.1824 10.9052 12.8483 11.6288 12.8483Z" fill="#F2F2F2" fill-opacity="0.5"/>
</svg>
