<svg width="25" height="25" viewBox="0 0 25 25" fill="none" xmlns="http://www.w3.org/2000/svg">
<path d="M22.0937 4.85693C22.6796 5.62465 23.1756 6.45871 23.5717 7.34236L12.3362 15.7361L7.64062 12.753V9.16422L12.3362 12.1473L22.0937 4.85693Z" fill="#8D8D8D"/>
<path d="M2.84954 12.4998C2.84954 12.3388 2.85342 12.1788 2.86117 12.0197L0.015498 11.8784C0.00581228 12.0846 3.43886e-06 12.2927 3.43886e-06 12.5027C-0.00120731 14.1438 0.317305 15.769 0.937277 17.285C1.55724 18.8011 2.46646 20.1781 3.61278 21.3372L5.63128 19.2925C4.74889 18.4019 4.04889 17.3432 3.5715 16.1775C3.09411 15.0118 2.84876 13.7619 2.84954 12.4998Z" fill="#8D8D8D"/>
<path d="M12.3353 2.8874C12.4941 2.8874 12.652 2.89329 12.8089 2.90114L12.9513 0.0161976C12.7473 0.00638155 12.5419 0.00147411 12.3353 0.00147411C10.7152 -0.000528125 9.11078 0.321805 7.61401 0.949965C6.11723 1.57813 4.75763 2.49974 3.61328 3.66189L5.63179 5.70756C6.51065 4.813 7.55534 4.10332 8.70577 3.61934C9.85621 3.13535 11.0896 2.8866 12.3353 2.8874Z" fill="#8D8D8D"/>
<path d="M12.3357 22.1126C12.1769 22.1126 12.019 22.1126 11.8611 22.0998L11.7188 24.9838C11.9234 24.9943 12.1291 24.9995 12.3357 24.9995C13.9551 25.0012 15.5588 24.6787 17.0548 24.0504C18.5507 23.422 19.9094 22.5003 21.0529 21.3381L19.0383 19.2935C18.1593 20.1875 17.1147 20.8968 15.9645 21.3806C14.8143 21.8644 13.5811 22.1132 12.3357 22.1126Z" fill="#8D8D8D"/>
<path d="M17.6805 4.5645L20.0787 2.77306C17.8867 0.974224 15.1506 -0.00499337 12.3301 1.91487e-05V2.88693C14.24 2.88453 16.1056 3.46948 17.6805 4.5645Z" fill="#8D8D8D"/>
<path d="M24.6685 12.4998C24.6701 11.7488 24.6052 10.9991 24.4748 10.2598L21.82 12.2426C21.82 12.3281 21.82 12.4134 21.82 12.4998C21.8206 13.8429 21.5428 15.1712 21.0046 16.3985C20.4663 17.6258 19.6795 18.7248 18.6953 19.6243L20.6102 21.7692C21.8897 20.5985 22.9122 19.1684 23.6113 17.5716C24.3105 15.9747 24.6707 14.2468 24.6685 12.4998Z" fill="#8D8D8D"/>
<path d="M12.3357 22.1135C11.0103 22.1139 9.69961 21.8323 8.48841 21.2868C7.27727 20.7413 6.19265 19.944 5.30481 18.9468L3.18945 20.8864C4.34444 22.1834 5.7555 23.2198 7.33115 23.9285C8.90679 24.6372 10.6118 25.0024 12.3357 25.0003V22.1135Z" fill="#8D8D8D"/>
<path d="M5.97417 5.37479L4.06027 3.22998C2.78036 4.40042 1.75751 5.83044 1.05803 7.42729C0.358561 9.02413 -0.001907 10.7522 7.58698e-06 12.4993H2.84955C2.84896 11.1562 3.12681 9.82795 3.66507 8.60063C4.20334 7.37334 4.99003 6.27431 5.97417 5.37479Z" fill="#8D8D8D"/>
</svg>
