<svg width="118" height="130" viewBox="0 0 118 130" fill="none" xmlns="http://www.w3.org/2000/svg"><g filter="url(#filter0_bd_1_93)"><path d="M77.5 38.75c0 8.535-11.426 23.73-16.435 30a2.95 2.95 0 01-4.63 0C51.338 62.48 40 47.285 40 38.75 40 28.395 48.395 20 58.75 20c10.352 0 18.75 8.395 18.75 18.75z" fill="url(#paint0_linear_1_93)"/><path d="M56.825 68.437l-.002-.002c-2.54-3.126-6.635-8.473-10.09-14.097-1.729-2.812-3.291-5.684-4.42-8.375-1.133-2.699-1.813-5.177-1.813-7.213 0-10.08 8.17-18.25 18.25-18.25C68.826 20.5 77 28.67 77 38.75c0 2.035-.685 4.513-1.824 7.212-1.136 2.691-2.707 5.563-4.44 8.375-3.468 5.624-7.562 10.972-10.062 14.1a2.45 2.45 0 01-3.849 0z" stroke="url(#paint1_linear_1_93)"/></g><defs><linearGradient id="paint0_linear_1_93" x1="40" y1="14.39" x2="94.003" y2="58.688" gradientUnits="userSpaceOnUse"><stop stop-color="#159E74"/><stop offset="1" stop-color="#2A47A0"/></linearGradient><linearGradient id="paint1_linear_1_93" x1="42.703" y1="17.506" x2="73.425" y2="73.64" gradientUnits="userSpaceOnUse"><stop stop-color="#fff"/><stop offset="1" stop-color="#7D7D7D"/></linearGradient><filter id="filter0_bd_1_93" x="0" y="0" width="117.5" height="129.871" filterUnits="userSpaceOnUse" color-interpolation-filters="sRGB"><feFlood flood-opacity="0" result="BackgroundImageFix"/><feGaussianBlur in="BackgroundImageFix" stdDeviation="2"/><feComposite in2="SourceAlpha" operator="in" result="effect1_backgroundBlur_1_93"/><feColorMatrix in="SourceAlpha" values="0 0 0 0 0 0 0 0 0 0 0 0 0 0 0 0 0 0 127 0" result="hardAlpha"/><feOffset dy="20"/><feGaussianBlur stdDeviation="20"/><feComposite in2="hardAlpha" operator="out"/><feColorMatrix values="0 0 0 0 0 0 0 0 0 0 0 0 0 0 0 0 0 0 0.3 0"/><feBlend in2="effect1_backgroundBlur_1_93" result="effect2_dropShadow_1_93"/><feBlend in="SourceGraphic" in2="effect2_dropShadow_1_93" result="shape"/></filter></defs></svg>